<mxfile host="65bd71144e">
    <diagram id="BxoOcnL2zgzlrMpcOhO-" name="Page-1">
        <mxGraphModel dx="3247" dy="738" grid="1" gridSize="10" guides="1" tooltips="1" connect="1" arrows="1" fold="1" page="1" pageScale="1" pageWidth="850" pageHeight="1100" math="0" shadow="0">
            <root>
                <mxCell id="0"/>
                <mxCell id="1" parent="0"/>
                <mxCell id="2" value="" style="shape=image;verticalLabelPosition=bottom;labelBackgroundColor=default;verticalAlign=top;aspect=fixed;imageAspect=0;image=data:image/png,iVBORw0KGgoAAAANSUhEUgAABhUAAAScCAYAAACMUg7WAAAAAXNSR0IArs4c6QAAAARnQU1BAACxjwv8YQUAAAAJcEhZcwAADsMAAA7DAcdvqGQAAP+lSURBVHhe7N15fBT1/cfx924gBCEYQCQgUEIRBEXlsEJakLOgaUONUDAo5VQUxAIRESgUCogY9MelVE6xRCwYS2w4lEuxAZVDjXKJBLkCQkgggdw7vz92N5mdbMKGQyC+no/HPmRmvnN95zuT9vuZ+XxtWdk5hq4Bw7gmmwUAAAAAAAAAAKVgs9mssy6b3TrjShiGUfADAAAAAAAAAADX39Xsu7dd6ZcKvh6Er+UAAAAAAAAAAMDl8/XLBF/LmV12UKGkIEFJy8x8LQcAAAAAAAAAAIryNTBQUrmSllldVlDBWzDA2zyVML8kl7MOAAAAAAAAAABlVWk6/t2KW8fbfG/zvClVUMFbZ791nnW6uHkAAAAAAAAAAODa8BYksM6zThc3z8znoIK3wIB5XnH/9jbtVtx8AAAAAAAAAABwacUFAazzzdPF/bukeW4+BRWsnf/FBRDc/zYMQzabTX5+fvKz22X3s8tus5V4IAAAAAAAAAAA4MoYhiGHYciR71C+w6H8/PyCPnuVEFCw9t9bp90uGVTwJaBg/q/dblf5cuVUvny5gnIAAAAAAAAAAOD6yM3NU25enhwOR5HgQmkDCyUGFYoLKBT3X3//8vIvX960BgAAAAAAAAAAuBHk5OYqJydX8hJUsP7Xrch0cUGF0gQUbDabAgIqyM9u91gHAAAAAAAAAADcOPIdDmVlZXtNiWT9r5t52qcogLdAgvu/drtdt1QMIKAAAAAAAAAAAMANzs/Vp2+32732+Zv/643XSIB5BetGDMMo+NlsNlUMqFAkagEAAAAAAAAAAG5M5r59c5+/vMQErP8uElQoKQJh3UhABQIKAAAAAAAAAADcbGw2mwIqVCjS718c97IiQQUz69cJ5n9X8PeXn1+JqwMAAAAAAAAAgBuUn59dFfz9vcYA3P+28ogKeItIWOcZrrRH/v7lC+YDAAAAAAAAAICbj79/eY80SG7FxQh8+tTAvTH3j4ACAAAAAAAAAABlg79/+SJxgOJ4DSp4i0C42Ww2+ZcnqAAAAAAAAAAAQFngX975tYKVt1hBQVDBWwBBXr5S8PPzsxYBAAAAAAAAAAA3MT8/vyLxAG+8fqmgYoIMhmGoHEEFAAAAAAAAAADKlHKuoIKVdZ7dOtP6b2tUws+v2DgEAAAAAAAAAAC4Cbn7/r3FBdzzVdKXCt4YhiG7vVSrAAAAAAAAAACAG5zdbi/yVYI3PkcI3BvzNlgDAAAAAAAAAAC4ebn7/i8VWPAaVLB+0uCevtTGAAAAAAAAAADAzckcC7DGCdy8BhXkZSURUAAAAAAAAAAAoGwr5qMDN4+ggnWhWfFLAAAAAAAAAABAWVBSLMAwjOK/VDAj/REAAAAAAAAAAGWbL7EAe0kLAQAAAAAAAAAA3C75pUJB0IHgAwAAAAAAAAAAZdslvla4ZFDBzfvqAAAAAAAAAACgrLhULKBIUMEcfSgSibBOAwAAAAAAAACAssESA/AWLygSVAAAAAAAAAAAAPCmVEEFvlMAAAAAAAAAAKBs8iUGUKqgAgAAAAAAAAAA+OUiqAAAAAAAAAAAAHziW1CBAZoBAAAAAAAAAPhlKCEm4DWoYB7RGQAAAAAAAAAA/HKZYwZegwoAAAAAAAAAAABWBBUAAAAAAAAAAIBPCCoAAAAAAAAAAACfEFQAAAAAAAAAAAA+IagAAAAAAAAAAAB8QlABAAAAAAAAAAD4hKACAAAAAAAAAADwCUEFAAAAAAAAAADgE4IKAAAAAAAAAADAJwQVAAAAAAAAAACATwgqAAAAAAAAAAAAnxBUAAAAAAAAAAAAPiGoAAAAAAAAAAAAfEJQAQAAAAAAAAAA+ISgAgAAAAAAAAAA8IktMyvbcE8YhlHwkySHw+GcdjjkMAw5HA5Vr1bVvD4AAAAAANdRir5bn6ijkiR/1f1NqO4u6f+25ufofGq6siVJ/qpyW6AquJelHtDmL06oQpNQhdbzN68FAADwi5ByNlV2u112m002u102m012u/PbBJvN5vwRVAAAADeMi4eVsCFBm3ce1sEDSVKjEN1+WyN169BBofdUL+z0wS9Ejg4mJOhgumvyjmbqdk91S5lrJ/vMASVs2KR1e5N19ECKajSqrdt/1VId2ndQaIMy2Nl46oDWfXXCNVFZDdu2UsNbLGXKBHMHtFTlztAb/Hrm6Pz33+g/6z7Sd2ey9VOqdHvV6moY2k1/attINcrkNSqlz6PVuP8qZ5DgnuHa+u9I1bWWcTm4cowen7ZFp50RBafOk7R/dldVOBWnyM7TlJAvSdXV91/xmtzCVA4AAOAXgKACAAC4OeSnaN3UoRqy4rB1SaGaoRr3f5M0+L5A6xKUWSe0ICJCU/e5JsNf0+HpoZYy10B6ohaMGaOpm1OsSwrd2UPz34pSt5rWBTexzRNVf+h610QjjVu3TIPrWcqUCQl6vulIrXZNNYyK1YYBtS1lbgznv47R6Bfna92RHOsiJ79A3f3EJL0bFaoqftaFvxQ5Wj2inZ5fL8mvkcbFF99us7dO0wNPx+m8Zf7dL8Yq/i+1LffAjd02AAAArhVfggqMqQAAAK6v9B2a0D2s5ICCJJ1K0NTHe+v5ze7X1oFr4FCcIsMGlxxQkKTvV2lI575acMi6ALg6zm+YqN89Prv4gIIk5afru7dH6t7HY3Qw37rwF+LIKs1xxQHujppebEBBStF/FpsCCn7V1SIsXL16hqvvg67AQbs+GtbAtfy2UA3uTEABAADAG4IKAADgOkrRe8OHaZm5Y9YvUHd3DtewCZM07i9dLTmtU7R6+FAtOGKaBVwt+Yma0G+aEs6Y5lWordCwSI2bHqVhPdvrbvOHMvkHNLXfNG2+aJoHXA2Hlipi+HrPN+rrtVL3vwzXrAn91KtzI1Uwf5nw7WxFTE5wjRHwC3PbH/Xup/H68tOPFfuXkoIA+7VrR+FUhZ6TFPvqWL0yaax63eWa6ddIUf/9VN98+rH2b35NvYoNUAAAAPyykf4IAABcN9nrx6jxiC2FM2qGa37sWHXz+J8bOTq4YowiJicUdrB1na79r7cvZoyFHJ0/4x6AU6oQWF1VvBeULqbr9EXXW8B+gapR1RXAyE7X6XTn/CLrewzwKalCoGoEesnHbilX4ZbqqlIk97n5WP1VpWqgZ0ehSXZ6is4XnpRrn+71i1nXfH7WwUhLYjr/ktcrpq7d65vr9JJM2yo4v9KkP/K9LotzcE6EOr/pHlNAUovh2rAoUg09rn+6Nr8yWP3/VfhlTd1nlmnrc41MhUx8rksvimufVtZBZ93n7l7fWxst2LapfGnSH5mPzdv23Yo7h5LusWJkp6bovOttfO/3kxemuilcx/f0R5e1T+t94fN6bpZ2L3+1iFqmdwfU92w7qQma8ORIU1C2tobFxirK3UFuZW6LJbWnIoq5zy/J2z3tWacebedy2rEvx1Zw3jv0t3YTtc41u+FTC/TuE87rXrCe9bntbXtuxbXtS7nM9Tz+BpRiPQAAgNLyJf0RQQUAAHCdpGjZE2GasMs1WWIu7HStHt5Fz29wTfp11ZKvJqmDudM4P1273p6qp+dYBuCUv2qE9tA/JgxRN4+vHqSji/uqbfQB58Rdw7U19o86+spgRb5tSsXkF6gWT72mpc81UxVJ0gFFd+mrucddy1tE6ct/9VCNwjWkIgGTQPVd8rEmP+iazE/RuuiJ+tuKHZ7H6heou8Oe1j/G9VALy9ARm8e0Vv8410T4azr81Bn1HzhNm0+pSAfw+V0xGj3WSx52v0Dd3XOc5r/YXnW9dZSlJmrBxImausHUsS4539bvPVyv/NW6nmfnbPd52/XcmZF6fHKCTue767T4AVOdcnR0/Wz1H7NKB011UaPDWL07u5U297xEUOEy6tKr/B2aEDpMy9zZtW4L15J1Y9XBW2dw/gFFh/XVXPcXM97Os9R1WSj7yBZNiJqq9761pPoKbKTuI17QP3o288yffyRGnbvN1kHJ1Rbm6e53Te3YXG+piVow3jJeRIX6Gjx/gcZdjL5kUOH816v0t6n/1GrrsdVrpcFRkzSus+dA2pd3j5kUe18Xv0/Jvd5EPf26qy1KkvzV8C+vKfbFHP2tpKDC5e4z+4TWvTJGz688oGxrKqJ67TVu2jgN9qUxmgcdllSl52v6clKo92DUt/PV9s9LCwadrvHUMn35V0uA69QWTR03WwsSLG3R3Z56e6l3lVQPxT9TnYq7p6P07muh2vx4Mfd0adpxCXVd4Z6uGjcuSn3d4+9Yxknwpvu87ZrVwXoMpvkml7w/i6nPYp/LrmfCrKj2qlEkEOqsyyETVuk7a+a/CrXV7blJmvEXy/MAAADgCvkSVCD9EQAAuD7O/E/r3AEFSQobUqQDs1CguvUbrl49nfmve0WESKmmxfmHteDxLoqItnZ+SVKOTifEaEhYX0343NorY5aj7xYP9ezslKtj7c3BCvs/V8eoGulP4aYOyF3rtfZU4aRbwmbTFxiBXdWtlevf6YmKfjxMQ962dILLua/v4qIVETZRJQ8dcVgLotwBBU9Hlw/WvU8Uk4c9P13frRijtk96yb9+KEZh7QYX7QSXswMv4e0xavtYtBJKOq6kGA2ZaO7EvbSDiwep7QjPzkdJOr15miImb9E5z9merkpduny9Re+ZyjXs1897QEHOAFiv5yIL22Ozyp5paq6gLs9vnqgHuo0p2mEpSekHtHryYP3u2bii18/k3IZo9be2Y0lKT9Dz3b2MF5F9WAsGDdWCJM/ZVqfjx+h3j0cXDShI0pEdWjA8TGGLvey3gK/3mHv+YS34S1gx93VJ+0zX5nG9FRFtbYs5Ovj2MD1u3b/Z5e7zYoJe7BahISuKdnJLko5s0dQnfBsT5rtt5jRGjfTcwGICCpJ0zwDFfxqvL12/NQPreyw+//V8hXUeUzSgIFN7GmP6CsztCp6pxd/T0Qob/5F+8pxdrJLacUl1nf3tek24RuPv+HR/Pl30/jz4dgnPZdcz4YEi42LkaPPkR9V2hJeAglyBlejB+t04L9cPAADgGiOoAAAAro8jB7TTNNmhrbvX3bsKLSL1yiRn/utXJvVTh9vcS3K0efJQTf3WVPjO9s7OXnPe8fzDWjZoqlZ765yRpPQ4TX39gBRYX6Fh7XW3JbXE0bdm6z1Xrv2GXX5veis9Uf+xdtLmJ+g/8YWTNR4PV6ifnMcaPUZz3cfqV10t/hKl+a9P16yoroVpds6sV/+BMQVvHxcRP9v5pq9foGrcUVs1arrei724RVOnJxaWaxCuyUtW6MtPV2jJM6GFb8F+O1ujV5qO+WKCXuw3W9+Z3+ju7Oww73CP6c3qQ6sUOc6S591k9euuN3wDqzuP61ZrCYt989Xf/Ra75HoDuqtzv3f66/zK2ZpbkALG6irVpcvpHw6bOnJrq9tvvKfDcasbNtzUHsN1t3vBldTlkRg9bs6jXzCQrOfYIue3TlP/OZYO+AIHNPf19c5zqVpbNe6o7Uq9k6PVE0ZqtXm8iMBG6tAzXL3CWqmGDmhqdAlvcx+JUb8xWwqP7c6uGjd9uua/HqXBDxa+tf9d9FC9uNVLx6lKd49J0tG3J2jqrsLUUQ3Dh2vW69M1f/pwdXMPpivpu+ipWmYKsGWvn6r+cab27RqnpVfPrmpRU/ruldkFXylYXe4+Dy6K1nsF09UV+sx0xX8cr63/Hqted7rPM0Wrx/xTCV46wgul6NuvTQGAO0IVWmywVa6UWtVVw/0zpwe6mKCpzy0tbIs1W2nwhOma//okjQsvDD6cjxupx982Bx2u4Jl6iXs6O36+FhR7T5sV3443T51YWNem+37+hEi1KPi7YKrrWi1dAcBWHl8TVbjHdU49wxVay7SgOMXen85zczu/dZomxJra35EYDXnF9FwuuHcmaVyYKQhkfS7vW6wJKwqnq7Ttp/n/jtWXHy/TK73N12+ioj8vmAQAAPhZkP4IAABcHx4pKQLV918fa3ILSxlf7JuvthGF6T8qhE3Xl6+2L0g/cX7zRP1uaGFHkDn/vUdqFklVwl/TZ9NDXeuma/OY3h6dk4WpMCypmx4cqy+XhBemQPI4N1Oec49jDVT32bGa1dnc0bxUnf8w35V6w7NOPNIfSarSdazip4d7ptCx1IU1dcfBxWM09cfaCm15r+6+P7Sgo9pzLAHrcVnrwZy33TP9kVRd3aYu0KxHaxf/ZrXJrmldFPEvd49koLq/HqtZXYvbryX9yRXUpTeebaGVXvl0rnoVdFD67vLrMkerR7TT8wX9+o0U9d9lGubuyM4/rAWP9y7s6PVrr1mfT1f3W4qmbJFfIw17e56izKl2zsQpst00Jbin7xqiDe/2Kwy+HIpRWHdzMMSc/shybHcN0YaV/dSwIOVKuta9EKEh8a5rabofLv8ey9HBhAQl7EzQzq+/0dHfTFbsU6a0Ph7XV+rw6qdaEubvHPy9f5heLOhkbaSo1Qs1zN3pa61Hj/RHl7tPa/1Y0mFd3KIJwzcr+75m6nD/vQoNbVRCuhrLeArWZ4sknTqgdV95+fJAkgLrq0Ooc+wFj7YY2FXzN0xSN1OTOPhWX3V2fx0S2EOxn0ephaz3VumeqQmTuyhyxWXe0760Y6Xou/U7lPDVTiV8tUNV+r1t2r6kDRNVf7jp2fvvWEXd417ow1gaxaY/slxjv0Yat3qZBhfcnye0bFCEJrjbXb1+2rBuiBpKyj60Q5u/2KHNO7/VzmOtNOtf/XR3wfU/rLndeyv6e9dk50naP7urKhRJoWdNR5ajddNGam32PWoZeq9a/iZUd/N/0wEAwFVC+iMAAHCTqK7bg6zzfHP08wTTW+iNFPVcYeeXJFXpMFxRps7ko3Gb9J1peaFmihrh7uyUpEB1eKqnGppKfJfk7sirrof/0KxwwecfaZPpDeuErQVdt9JdPdTLNXCqx7He8ZieMneCS1KDP2qwe9wFpWvtp8W8je7XXv+YagkoSNItVTw68zfHrdJ3ZwrfGm84YLqWTBquweHtTW++n9DmraYOyrv6K8rjuALVYUR/Z2ejJOmE3ltXzHF1fcHngIJ0WAnm1Cn1HtNz5s7BIvv1dNXq0qvquvWyOuiupC53KME9ZogkhQ8pDChIkl99DR7Vo7Bu87foP5u9fxFQ96nxlo5YSV/tLAwoSOr2tGUA6gaRGtfTsk4Bz2PrMDDSFFCQpEB1e9zZESpJ+jxBCRfNy91Kc4/5q2Foe/V9bqxmLVzh2bkvKTv9vOnLEunoKdcNmJ+oBPNb210HaLDpLfIi9ejhMvcpf8/BfL9fpwVbDxem5rmlvSYvnKRXnuuhbm1LCih4cVuVIuO1aM9yDRkxxvsvOsGVXsizLdZ4vI9HQEGSGkb0UMEIJekJ2uQKtFz+M/WAErZe4p6eMFyWIQqK5bUdq7ru7tpVg18cqyXvmgMWTufTzVfohI6eNk1eEcv9GTakMKAgSX611fe54er+l+Ga9c9l2vqvPgVBpQoNWqlb7yF65dW52vCuOaAgKTtd58yHfCylID1UBX9zozqg/7yboIMF95W/uo2dq1mThqhvVwIKAADg50dQAQAA3AAO6/sfrfN8c3CvqbM48F61LJIqpLpC25lSTBxPLiand23VrWmZ1aBRYVobixrhPUydYzu02p0CKX+H1rnf2JbU4s9dCzqXPI715Pvq1yVCD3j8BmvqV4VFTp8056oxufNetfCW779ee/UqeCtXOr8+WmHt2ql+8y564PExenHOKiV8n+7RMSod1remt7YrtGpWdGDlmq3U8c7CyeKOq2GzRsV01npzQt+7386VpAfv9ehcloru1+yq1aVXSTrqHoi7VK6gLo8c1k5TWpzQlo0LJ9xatVI302Rhp7anFvdYBuqVdPSIecCERmp5T9EBdkNDLYNgu1mObfO03pa6jtADo1ypaiRJJ/ST10Mr3T3mln1oh1Yvnq0XXximzl0i9MCDrdX48WJSWh0/4RE0vPt+L23SUo/elGqfkkLDwgs73vMPaNnTvdW4WWs17tBbkS/M1oL1B3Taa6DlEn44Uew+S+bZFk+/O6LoNXt8jinQVNgBf/nP1DOe9423e/qWxmpZzD1t5a0dF8rR6W8TtGzONL04fLAe6BKhe5u31r3jTGPZXE2+3J8tIjXrxUh1b9tIdW8LLNruLh5WQlyMpk6cqMjuEXqgQxfVbz5YC9wDvls92NXja6nv3h6pzq1aq/6DYeo8aKKmLt6i7055DywCAABcawQVAADA9fGrkGLeUL4Cd9Qu+lavpArlzB2oSTpYXCdOadzSQX/qWjiZsOZ/Oi3rgL+t1KtzYb55D/npOn38RJHf+SKDopZGbQ1eNNfzzWw534Y9/fUWvfdmtCK7d1Hj7rO9DhIsSXWDvR2vf2EedUk6cPgyOzqL1/BXngPMOln2W5yrUJd164WYpg7o2x9Mk5fpSuqyxm1e1vXzvK4HD3gZxNYnIWp4h3WeJF/qWpJSi9b16VPFNKgrkb5DU7u3U+M/DNPz0TF6L36HDh4/odOl2FXDel7GxrDUo4fL3GeFtmMVO8k0bolL9qnDSoiP0dQRffXAg2Hqv/JS16y26v7aNPn9/iKD/qppH+cYAq7f4OI+5zFLTyl6zY5f4qR0Zc/UK7qnS3IoTv07tNMDfx6pCW/G6b0NiaW+36+U1/uzWOlKeKW36rfqrcgxs7Vg5XolfO/DPXNLqF5ZOlYdrIG49BQdTFivBdFjFNahnR4YWnRgaAAAgGuNoAIAALg+GjRSS1Pn0sH/bvHauep2dHFf1W/a2vXrqwXe3iQ/fsLZsW+RnWd+mzNEDYu8eXs5/NU93BRVcKV8+e7ThMI3trv20J+Ky8t/R1dNNnUMev094eVt2EsJbKVxqz/V/v/O1ayoSHUPre+ZmkWSvo9RZFSc17o6etIy6LQkKacwlYskNapf9A38K+S9gzxD5y7R7yZdpbps0tjjjfl1603X0YvNY9xtsbXqN5umzdYCV1iXp894WTff863kho28ddr6wnsncPbFks64UIsBXurX4zfcNJD65UrRe8OHacH3hYMm1wgNdw5wu2SFvtkxXd0ta3jjNVh5Mb2YwcavbJ8Ne76mL3fEK/6fURrWs73urmlJ3ZOfos0Th2rq156zrVr+xjRoff56vbfB8jZ6zUbq1rW969dMDcubltWprttNk241wlyDGZfwe6qpda0re6Ze0T1dnPxETeg3TZsLBmoO1N2d+2ny69O15N+x+mb18KJfR1wDXu/PYpxe+ZIi3zbVRb1W6hU1SfNfn6sN//tU88PNpS0ahGvJ5k/15b9f0+RnwtXhvupFgjKnN09TRLRpIGgAAICfAUEFAABwnYSquzmH+77ZGrLYWyeUM9939FJTSo56oergetO6YRNTioz0b7SzSGdpihI+NW33jlpeO90uS7s/qm/BKWxRws4TSvi0sBOzW7dQjxQYDRuZjvV8oO4p6Bgs5ndPad6GtbjjXnUfMFyzFq7QN7u3a/+nr6mvueNv6045s6PU1z2mlEnZOxKLBndO7dAmU6qiGsFX3GMsqbbuNKdB2flN0bEuTn2jBG/Bo2tRl3d0VS/TG9/ZcVM1enMxvZ+HYhQdb5ruHOrKTX8FdVmvvkeQLWHn/sIJtx07tM40Wbem79fB+iVGQmLRtCk7d+60znK6o75HHviAXzUrWr8ev1Zq6C09V2kcX69lprEROrwary8XjtXg8Pbq9mB9VVG298DAHbU9gkMHv0osGhxKTPQYX6LA5e7TrFygGob2UNSk6Yrf/LEOJ36q+BdbmZ4DKdq800ugw6RGu/YeY4msmzpVxTVFfbtSc03H3CLUva/6usc1loskna/a2Mt18vzd7Xoj/vKfqZ771OYEJVjfoD+yQ+uKuad9kvChlhWk1qqtYe9+rPjZQ9S3a3t1uKe2qmSf1znPNa4OX+7PXfMVOXyaolds0eZvU1zt7oT+s3JHYZnOk/TNurl6ZUBX531SVcq+ZFosf1W5M1R9nxurJe/Ga3/idu2PHa5Q05/P8597edYAAABcQwQVAADAdRP69HMKNXXUfBfdVxHR5sEoc3T621UaEj5Sq0052kMHFg7uWvfBUNOb3gcUPWeLR8ff+c2zFb2rcLpueMdL5nD3mV8r/al7Yc/Ops0xStjnmgjsob6dPdOs1A01HWv6Ks35wNJTmH9A0X8OKxz/4FDRjt+SnN4arbAuYc5c7u1me3ToVbgtVH0jvL3ZXlsd2ppSxOxbougN5uNK1+bXl6iwCmurV7eScp37qr5CHzT1ih1fqtHmoFJ+utZ57NfT1a/L6uo7sodpQNoUrR7eW0NWHNBpd690fo4Obp2tiMdm67uCuq2uvk+2d3XkXkldtlJo54IFUtx8zT1kms4/rAUzVxV2kPu11586lJDGx+r+loWD8kra/IpnR3X290s1dWUxPdd+rdTRdGwJi5Zrl6Wn/nz8RD3QxTV+QNwBr2+3l0q+TMGA+mrZxDIg7+bNXr8OkV8zhRYM0C1pw2zP4FD2Yc0116PZ5e5TB7RsUG898Nt2qt+snR5faXqL3c9fdz/R45JjOHio2UPjnzAFwc6sV//wkVrwubuj2pnS7OD6aWr7+NLCzmS/9vpLuHu92urQobAtZr+7XO+lFkw6fTtfYR0iFDZ8mqJX7Ch47l7+M9Vzn0pfpSHjtui8+15JTVR01GwdLCxRennmK9dM9zQxTUr6bsNHV972vLrU/XlCy+YsVcKGOM2dPEb9o1YWXpe8wmIN72nsMei10jfrP94blb5bPkydu3RR/aat1XjgKo/zqnBXpPq2M80AAAD4mRFUAAAA10/NcL0ypplpRo52LXYNRtm0teo3bacH/hytde5UF5J0z3C90tPU4XbXAE02TWfHj9G93cfoxYnT9OLwvnpg+PrCDjG/9orqdzU6xAu1CH+sIOf46ZWrCjodK4S19wiYSJLu6qNxYYUdlZvHhanzmBitXr9F61bMVkTnvpr7bYpr/IM4feeRt/zSatSorPPHU5zpddJXKbL7RC2I26J167do9ZyRenyOqdO+a4eCTuaGA6NMA4Kma/XwMHUePk0vTpym/n+OUP84Uydp56f1lPlt5CvQ4on+nuNqRPdW4z+P0YsTJyoyLExDzPu1uhZ12WK4ZvU2ta38FK2b3FcPNHenOWqnzk/HeHSoV+k5TuNMr5Vffl36q/uI4aYvAg4ounuYIl6Y5qqPvppqGni37sAB6l6arwFu66bB4aZO8jPr1b9dhCJfcN4n90bMNwVKrPzV/bkhhdfqSIwiug3T1BVbtG79ei0Y01v3vrBep487xw+ITjjj2XF6OW6rburYPqzoMbO17tsTOn3msDbPGalOY4obkLe6/tS3q8eXAauHhumBQRP14sQxCmvXW9GmevRw2fusr1sDD+t0qjNwtWtyX0W8skrr1m/RuvWr9GLEBK0uKFtb3UK9jPNg0eLFeRpn+upFpxI0tX+YGrtTbjXvos4j4nTUPHjwhBc82kTDfsNVEPPM36IXO/bW84vXa936LVr2yjA98PhSfXfqhL7bEKe5/z6gCu51r+CZ2rDf0+pgeu6djxuje+/v4hyU+LeDNffH2qpryQpVKjVqmcZ4WK/RUTFK+D5Fp48f0HuTeyvsrZK/Arl8l7o/e2uC6YuRwsD3bbq9TuH8g3MmaML6Azp6JkUHt85X//CJ2lzMfdfwtso66B73Yle0Oj0+W8vWO5/nyyb31hDT11J1O7TymkYNAADgWiGoAAAArqu6fRZog5cBTr2p0nasNrwbaek88VeHCZYOuO+36L2VcXpvw4HC/PV+9dV34bjCTrar5Z6O6uVOK1TQOVRbgyNMedELBKrbhJfVt4F7OkcH42br+RFjNGRyjHYVBE/81eLFyRrsJU95ie4aoiVRpqDJofWaOmaMhowYo+ffTNBp9/Hd1lVLJrvfrncPCGruMMvRwQ1xem9lnDZ/a3rLu0EPxUzteuUdxm71IjXffLySsr/dovdWrlfCkRxV6Tlcw4oNYFyLuvRXhwkrFPMXb190FFX3ibn6bJJniqsrqst6kXp3tmlefop2xccV1IdblbZjteS50gbH/NVh3CR1N2dMyj6hhHjXfaJGGhdlGiPEqkE/zZ8UWnhsp3ZoweQxGjJioqbGmYJVNcM1f5ylTi7HLR3U1xw8/DZGQ/4coQfa9Vb/NxN0uklXdTenzzKp0CFK8wve2Jfzi6eE9Xpv5RZ9ly7d/eJw72MjXPY+/dV98mumuk3RrrejNWTEGA0ZEa33CsZokO6Oek1RxbZpE7/6GrxogYa18CEYpuoKnbRCMeZjl6TA9vrH7B6q626L2Ye1OnqihowYowlv7yh8HlRopnHR5ufqFTxTA7tq1r/6qYW5AeSnuwYlrq7u0yepr7dBwn11T7ieMh3X+fWzFdk9TA906asXVxxWlfCu6mAufzX5en+Gv6b5BdfCX916hpvWOaBlI/qqbbswdX56qTafaaTuYd6fNxW6jtMSUzs+/3WMJoxwPs8nrDDdc/cM15JnS/s8AAAAuDIEFQAAwHXXsOdr+vLTBZoc3qjIIJSSVKFBew37Z6y+/Ge4GnpZLr/6Gvzux4qNaq8aRXoz/VUjNFLz45dpsjndzlXTSL3+bOnQqfd7/cncIWcW2EqTVxd3rFKFe7pq8r/iFetjx7ZVwwELtfX1SIXW89IZWSFQd/eerq0fT1IHa1U0iFT8pws0rrOXt6gr1FboX6Zr6/tRHnm8r4aGA5bpy9k9dLfHdv3VsPd0bZzQXreaZ1tdk7oMVOiLK7R/3XQN9vpGub+q3NdDr8R+rK1jW3kPsFxBXVbpMElfrpuuXvd4WRjYSN0nLNBnbxRzH1xKYKhmxXs5rpqhGveveRpsHnbBi4Y9Xyv+2NzntW5s0bZ1WZwBniV/KfpMqNFhuGIXPa17iq2DQHWYvqJou/Crrg5RC/Ruse3hCvYZGKpZq0t+ho3718eKH1Dcvr0IbKaof21w3s8NvFSqX6Dqdu6nJes+UExP79ut8mCUthbXFv0CdXd4lGI3LdDgguCce9nlP1Or3DdEsf9boSVR4Qq9s7Zq3FFbDUMj9UrsCs3qcImxTS6ptga/s0KTi5yP65lhDdRdZT7dn9NNwTdJFdqO1Wf/jLQ84wrvu6gmXp7VkrMdT12h2Aldi64rSYH11S1qgb55N/LyngcAAABXwJaZlW24JwzDKPhJksPhcE47HHIYhhwOh6pXq2peHwAA4KrLTk0pyMNdIbC6qhTp1CrZla7/c7qmx3oxXacvut6g9QtUjarFdV5Z5OfofGq6K3+7v6rcFnjlb577wF0Xl1sP16Yuc3T+jKkuqgZ67TQu1pXUZXa6TqdfxvXzhXvbl7vda3lsVqY6rHBLdVUpTdqngutXymt3VfbpdNXaornOS9uWdGVt8erdWye0ICJCU91jz4S/psPTzaN9lIKpPq7smC6T+XpUCFSNwEvfAwX1eBn3THZ6is4XNiqf9gcAAHA5Us6mym63y26zyWa3y2azyW53fptgs9mcP4IKAAAAAIArlp2ug18laPOaD/Ufv0i9O8HzrX0dWqrOf5hfMFhz6KT4ommbAAAAcF0RVAAAAAAA/CyyN0/UvUPXF3yloTu7atzADqpbQfrpwDotW7xFB90L/dprVsL0qz/ODQAAAK4IQQUAAAAAwM8kXZsn9lb/lSnWBZ786qvvwgVex2QAAADA9eVLUIGBmgEAAAAAV0GgOkyK1zf/ilL3+7wEDCq4Bof+dAUBBQAAgJsYXyoAAAAAAK6BwkGrSz/gNQAAAK4HvlQAAAAAAFwn/qpyW3XVuI2AAgAAQFlCUAEAAAAAAAAAAPiEoAIAAAAAAAAAAPAJQQUAAAAAAAAAAOATggoAAAAAAAAAAMAnBBUAAAAAAAAAAIBPCCoAAAAAAAAAAACfEFQAAAAAAAAAAAA+IagAAAAAAAAAAAB8QlABAAAAAAAAAAD4hKACAAAAAAAAAADwCUEFAAAAAAAAAADgE4IKAAAAAAAAAADAJwQVAAAAAAAAAACATwgqAAAAAAAAAAAAnxBUAAAAAAAAAAAAPiGoAAAAAAAAAAAAfEJQAQAAAAAAAAAA+ISgAgAAAAAAAAAA8AlBBQAAAAAAAAAA4BOCCgAAAAAAAAAAwCcEFQAAAAAAAAAAgE8IKgAAAAAAAAAAAJ8QVAAAAAAAAAAAAD4hqAAAAAAAAAAAAHxCUAEAAAAAAAAAAPiEoAIAAAAAAAAAAPAJQQUAAAAAAAAAAOATggoAAAAAAAAAAMAnBBUAAAAAAAAAAIBPCCoAAAAAAAAAAACfEFQAAAAAAAAAAAA+IagAAAAAAAAAAAB8QlABAAAAAAAAAAD4hKACAAAAAAAAAADwCUEFAAAAAAAAAADgE4IKAAAAAAAAAADAJwQVAAAAAAAAAACATwgqAAAAAAAAAAAAnxBUAAAAAAAAAAAAPiGoAAAAAAAAAAAAfEJQAQAAAAAAAAAA+ISgAgAAAAAAAAAA8AlBBQAAAAAAAAAA4BOCCgAAAAAAAAAAwCcEFQAAAAAAAAAAgE8IKgBXU+Yx7di0VTuScq1LAAAAAAAAAOCmR1ChNPJzlZNvnQkUOrB8qoZNidGO/PLWRT+7nBzrHNyMuI64Js4mKWHTViWetC4AAAAAAAAomS0zK9twTxiGUfCTJIfD4Zx2OOQwDDkcDlWvVtW8/o3n7C4tXbhdahupfm2CrEuvwH7NfvQlxWS21vQPRqt9Revy6+xskuJiY/Thxz8oRZVVu2lr/b73IwpvfDXr4EokKW7GWn1718MaGx5iXXgdXcXjyk9U9KMTtapeP8XPDVd1SQfi3tCqfZZy1ero979/WK3qXbvAQ+KcJzX4g1x1nfiOJj107fYjSTq4VtNik3RPxLMKb2hdeCm5OvHZai1d+al2nMyQqv1a7TuFq094M1X3NxVz3dcnJFULjdSQ33lr18e0fk6cdmZKqtZaTw9qoeruRTmnlPDe+4rZuEMnMqXqIW3UtXdP9bjf23Z+Jj7U2+VdxzQlLIzRFlnq4DI523CIeox+WI2sCy+Hl2dVj/491f4a3g++StkWo39uldoPilRoNetS3xXe9yHqMephNfKzlpByvlql6I9+kqQS28A1435ehQxW/KyHr7idAAAAAACAsiHlbKrsdrvsNptsdrtsNpvsdue3CTabzTltXemml3FIm9Zt0KaDGdYlV6iSatfzV2BwHdU2d3beANI/e11hvUZpWsxO7c+RlP+TdnyyStOeGaDe/5eodOsK18Up7Vy3QXHfnLIuuM6u4nF9tVXrM6RWndoVdNCd+WaD4tZZfjFLNaxfL4WNXqvD1+jLl+q16iiw4u0KqfEzdNSe3Ke4dRu0s7RvPOcfU8wzTypiQozi9vykbEnpSTsV88ZEhfWaqLgkU1nXfR23boOWvrFGB0yLCuzfoH9+4KrjbYeU7Z6fsV0Tez2jkUs2aL/rsXD4q7WKHjlAYTN26bp9COBDvV3edczQ4W2WOrgCzja8T2esCy5Dcc+qMf163RDPquyD2xW3brsOX+Gfj8L7foEWb/KWCi1Xm1fEFDwTSmoD14xfM4WH15QS47TyoHUhAAAAAABA8cpeUOGaqaMes1bo46WRXt86vW6OxGnopK1KqdxMUW++p08/WKzYVSu0fdUk9WsoHY6bqKkfe+vUwtWWuHWb0lVHoS2tb7+31WubYrXd/YufreldaiplxwINfXn7NelIrd3jZX0cP1v9mlqX3ChylTDjJc3en6P64aMVH79C8e8t1sfr3lPsqJaqfi5R08Yt1QFL0CWwciXp5FZt8tIJuuO/G3XCr44a1fOcn/B/M7T+XCV1nbhYH69arNj3FuvjuJka0lBKWbdAi71s60Zx41/HUvDlWbXugnWtm1glBVaWtmzZXjRwdXqtVn0hNQqpY13ys2rU9kHV1il9tNEcwQMAAAAAACjZLyCosEuzew1QxJxdSk+M08RnBiii1wANnhSnROvbqCd3KWbSKEX0GqCIXsM1bM5WnSjoDTqlVaMHKGL0Wp1wzTnxwURF9JqoVfv3K2bMcOe/jzuX5Rzfqvlj3NsapTELzdsqxtlErZrxknq79z8jTolnrYU87Vi5UgfyK6nHxEnq0dj0NnO1Zhry2rNq7ydt+e8GpZjWST+4QbOfH+48tn4vaXZ8ktKtb8znn9KOd2ZocC93fa1SwnFzcKKwPg4krtKYfp51k/5VYV33HrOqaF27pH8Vp2nuY3lmquZvOuXRAVdQx0dOacscV930e0mzP7F8WZCfpsRVb2hYP9c+n39Dq75K8yzj63H5uC1Pp5S454JUuZmaWTq1i6hYR+1fitb0hyopZdPbWm7u1Lbse/CYGG3xqHennOPbTW21aPsqqDdXe/Soxxmu9Z5ZoB0ZztRC8wuuwQzFHbTs7zLa5SUdWa35H1+Qmg3WvL+2NqU6Kq/aYeM0KaySdDJOy7d5rlarYzu10im9vzrRc0F+orZ8ckH6TTPdm2lecEyHkySphbo+ZAr2+Ieo3+SXNX18pDreairuxaXuF2tdO7meO6Z74nJYt+3z/WCVf0rrpwxXRK9Rmp9YtD0VOJuoVe521W+qYhKL6eT3eFaO0sR3tl/y+ZawbGnxz6qp/dRM0paVlvryaT8XdDh+gel+XaC4/V7u14z9Rc5tx5wBXq6dRc4pbVk41fUsLE37b6GuHStJ29Yo7rTnkpRPtilRNdWqWU3PBfLhfvtigSJ6DdDsL3J1ON79jB6liasSiz7HS/ybJqlxS4VWlk58sdPSTnOVfq6EdgIAAAAAAH7RfgFBhRylnE7Tif0r9dKYlTpx612q7XdRiZ8s1eCRcYUdKafXatiTUzR7W64atWylVk0rKSnudUUMc5fJVU5Kmk6kmDrZMlJ14vRRxUx6SfPdeVUk5Wx7XY8++bqWJrq2FZKrhBjztrw4Eqe+vSYqelOabmvq2v/HSzV44OtK8OgkNXN1pNbopPD7rcskVe6syasWK35iOwW6ZqV/9rp6P/WGYg5KjVq2UiO/JMXMHKXe5jfm848p5plnNGzJLqUE36VWTWsqZVuMRvYbo5iCF1pd9fFjnMaMXOXMY++S/tnr6j1yqdYnVVDtpq3UOGONho5cKeu7sO5y605XUrOWrdQoJ1FLpzyjR80paTJSdeJ0qrbMfElTv5Aah1RW+vH9ipkUpWnb3J1exxTzzAANfuNTnbj1LrVqeZduO75B0SOfM5Xx9bh821ZRx52d18E1fcxNXkntu7dToE5py9ZjrnkXlPDyc6Z9/1rZias0pt/TijbvO2mVBvWbodnbLqp201ZqFnzR1b5WFaZTctVbwcDirrYaN+Xvmn28ppoFV9CZ/Ws1bMrrmjhwhj5SHde87Zr2zAxtcV/Py2qXl5ayc6cOSOoa4T2Xe6tR72j7plhN+p1lQfXWat9USl+3QQmmDtScTXFalSG1bx+idI8O3JqqHSxJu7RqVZLnQOvBjdW+Y1s1qmGaZ+HT/WKta6nwuWN+XlwO67Z9uh+sLijh5ShN3JSqZs/+TUOaFZNKKWO7Jg6cqOhPjkvBd6lVSIaWvzBB8603btIq9X1yikf727xkhmf7KyJRCV9Iqvewenh7VtUI14JNsdq+qIdqu+f5tJ8LSpgyRL1nrtV+v1+rVctfy//gWk175jlN/Mz8rN6uiU++VOTcZn+V5uXameQfU8ywZzTmvURlhzjb/4lNSzU4cpRWHbEWLqpV2zYK1H7FrXPf45KUpJWx+6Xgtrq3uiUY5Mv9lpOhE6fTtGPhGPV945iqt2ylRhWPa/0bEz3b5SX/pklSM7VqKSlpvxJN93PinAHq8mgvjYz3EpwBAAAAAAC/eL+AoILL/sr643vvaMH00Zobs0iTfiPp4H8Ut9+5+MSmDdqRL3V9abamj35WYye+rBXTIxXZ9nbllNh5mqbspqMV/8Fixb43ST3uyNWZ/Lrq+lAPvfaea1vTZ2thryDp4AZ9ZO2gc0nPLK/Q33XW2Dff1NyJzv1/MKqldG6r1n9hLe1y9pgz93ezu4odQNX/1iBVr1ZJ/pKUuV3RM7Yq5dbOmvuB89imL3pHCx6tqZRN8xT9mbNT8kTMDM0+KLV6dpZiZ43W2IkvKzbmWbVXkmZPWeUZGDmdoWYTF+nj9xYrdsbDqq0kLX9jq1L8WmrSKue5TJq7WMva5Hrmwc9P1D9nbFVKw0gte+dlTRr9rKYvWuR8e3/dUkuH3TGdaPo3ffzOy5o0fbY+nhuu2rqguNWfOIMPZ3NV+TetFf5ctPN4R4/W3HeeVXtdUNxHO13b8PG4fNqWF/k5ys6XVO/2wk7RS6lRU7UkHT7u6nDc+bYmbrqgRv3d+x6nZe+NVteKaVq1cLWr3o8pZkqMDqixopa6zmPWm1rxbGMpaZViiu1YlqQ0qc04xc4arUmz3tS8R4OkL7YqKdy5v0mz3tQHzzaW8ndqs+tUL6td+uDEj8ck1VHjUo+NXVUd2jeW8rcqriBXfa42b9wp+bVUt99VtpQvr/YvjVZ4tQtKeGOU2oU9qcFjFihm036lFHnj3cLH++Xnd4n7wYMzUDVyU66aPf2yJpm/1rA4sOJtrT8ntR+9qOC+j3+zpTyjbt7bX/yoltLBGE2IMXeem7ifVQ0bqL51mVe+7Sfns7c0cdMFVQ+bpPhF45z3zAcvKzL4gtbPeKugI77g3EbNN51bG+kSgYGUD+Zp9sFK6jpxkZZNd7b/2Dd7qFFOkqKXbbcWL8L//rbqWlk6sPbTwufM/k/00Umpdsc2RZ7bpbnfDmQ008I4V7tc6np2bpqnf37lXO7r37T69epIOqVk87gOfsUEngAAAAAAAH5RQYWWD6pDQX9jJTW7u46kNCW73mq+rVo1SdKOuBglHLygnHwpsGUPDX+ytepXLNiKF3XUs0/rgi8BpPKq/bseGj4xUqGVJWVeUMrZJO1LypV0TEnFpNkIbPywhkx8VuEhknIuKOXsKX3zvfMt1qQjxXTUZebqvHVeSb7apvUZUqOIcLUypZtp1r2TGumC1m9NlNxvzvu1VeSjptQc1Tor/CFJSdu0xXwO9R5W/99VKpw+nqiEk5Ie6qSupv7d+r3D1b5wUvpig1ZlSK1+31qB59KUcjZNKWdz1axtC/nrmBJ2mt+QDdLv25t6nxvfpWaSdDrNOXhstRCFDxqtsY/WcabtOJumE3uSnJ3wR445/+vrcfmyLW/OpXqkmPJJxfKqYppM+GiD0tVY4Q9VdtVHmlJy7lKH3/hLSTu146yk47u0LknSQ93VI7hw3dqPvqztH6/Q2N+V1BlYR906FeZwb9a8mSQp5M7CedWDby/4ty63XfogPdPbG/zbNbFjhFqbfn3fKbqP6mGd1F6mtF6u/PR6qJPae7tXK7fW2PcWa9n4SIU3rqzDO9dq9pSXFBY2QBPXlZA2yKf75Xq4xP1QIEcHlkzQyI/T1Kh/tBb0Kil//ynt+OKU5NdW4V1M93NIT/X5jalYMe0vsFsndfWTDmzd5f0eKeZZdeKd4R7Xu3XH15Ug3/ezY+tWpauO+vRs5gycSpJ/Y/V4uI6UsVVbvpKkY9qxzXVu3UxBlZDu6tOycLKoU1r/0X7p1jbq2jS38J68tY06NpT0RaIu2QL8mik8LEg6uVZxrs7+Hf/dqBOqox6/LxpRK8391qj7w6bxfSqpfe9Oqq0L2rHbWc7Xv2n+5VTkb1OzZxdr+8exei2s+CAUAAAAAAD45frlBBUqVy7sdPLCv8tfNffROkrfvUojn3pS7br0VpdnZmhVcTnFTfytAzefTVTMmGfUpUuEWoc9qbAeoxT91SW2k+PMdd+lW4Rad3tSYT2e0cj4n6ylPN1xu0Ik6bRvHdo5GRclSSHWwUHr1XFu5+QppeiizmdIqldX9S3nVf9XdST9pBPm9DJ+/p71mpmhDEmNfmXZR8XKqmCadB/LjjeGK6zHgMLflK3KkXQ+wzzYQWVV8dZZXCBXJza9ocGP9lbrjr3UpccARYzbqMPmIj4el0/b8qZaVWcan4wML2+LF+Ncqs5Iql2jpjOdVIYk7Vd0P1N99BigMZtyJF1QRkYJ52Ftg1fL5bRLH9SvU0dSqk545KavqZbdOiu8W2eF/y7EFKizqPiQurWRlPip/nfWnZ++kno83NpaspBfkBp17KGxs97Ux+veU/zcfup6a5rWz/i75hczULNv98v1cKn7wSVplca8kySpkkLqVbUutSjuvi+vQPPHH8W2vzpqXK+EOinmWVWhYWvn9e7WWa1MwQPf9uO+Z0JU3zKOSe0QZ4f9iZNpknJ1PtOHcyvCVSfnNmik+RnVY5SzzWRk+DTIeqNOnVVbF7R+S2Lh2B9NO6urt7FXSnG/hdxhGY+hYmVVNn35dCV/06Rr+EwBAAAAAAA3vV9OUOGSKqnVc7P16bp3FDt3vKIim6l60nZFP/+SYi6RIsNTmlZNmKjZO6UOf31Zsave0acfx2pFn5LeEpZ2zInSmHU/qVmP0VqxarE+XherT8c/aC1mcZdaNnN2rm62DATqtF/z+w1w5iCX5F/xFklSdoYlbUtmhrIlqUZVVVd5Z4dlhrNTzyzjYoakqqrtfAHWO39/VZaUnJLqOd+Ss9x9LO1HLVb8qqK/eT1Kri8POxfoL1M26ESDcL321mLFx72n7ev+qg7mMj4el0/b8qqOQupJSjp26QCEy4GNW3VYUrO7QySVl39FSWqpSV7qI37Vy+pxR+F5ZFz8eVLvXF67vLTazZopUBe0fqP5Xe8QhY9+VmNHP6uxnWoqXVKVyt56fcurfURnBWq/PvokSf/bul8Kfljh3t46z3d+bZJibvN+5VW9abgm/bWtpFNK2Fb0awj5fL/cwPyCFD7qWXW99YLWT5lgGg/FG9d97yVA6THeQLHtL9fZAV9snXh/VlVvE+m83qNdX4NUruwMJvm0H/c9c1HplhR17oBQ9RpBvp9bEa716oVrQZH7cbHiVz2lVtZVvGn4iCKbSumbtisxcbvWZ0jtu3sfS6Q091uRdpmfoxxJgZXdX5qU5m9apUsEWAAAAAAAAAoRVHDJOZ6oLfGJOuFfSbWbtlCPQeO04Llmko5pf5EOmJLsU+IeSQ/9RWPDGqt2tUry95NS0qxd9GbHdGDPBSmku6IGtVb9akEK9JfSz11qkMwgdftDS0n79c+ZG5Ri6SA7/M5bWnokTbq/pTOPeeNfq5mkLVs+8XjDNv2Tz7VFUrO77pJUR42aVpJOf65NrvEmJEn5Sdr0SZpU+S41usM03+qOOgrxk9K/2KkD5oF0t21zpjVxcx3Lzn1HVb1aUOEv55T2n8wu1VuyJ/bsc6ZAeT5SoQ2DVL1y+aJvEft4XD5ty6s6atRY0uld2uFDe0n/aqmmvHdKCg5XnzbOeY3vauxsP0mm+qgWJB0/pJRM15vDdzTWvZWlE5984nEe2h+jYc/P0KpEayfslbjcdumD+zvrsWApPX6BZlvfnM5J0tJl2yU1VvvfFZN+paUzV/2ObUu1JdF7fnpJUs4nmtpjgMKeX1lkEOGUk843wL0HLny9XyT5l5d0TN/sN9X96Z+8pwH6OdV7RP3COmvSaz3UKD9Js6fEFKmDQnVUP0RSxi79z3zfZ24vGF9DKqn9faKPTkuBTRsXM6ZIyc+q9E0xWn5ECnyotTOVk4/7cd4zO7X5E3MbuqDNW3ZKaqxmjSWpjpo1qyRlfKpV5nIZG7TuM9NqRbiehUf2a3+++Z4sr/T9R5Vu/UqrWEHq0KmxlJGoJTHblO7XUt28pikr3f1mbZcnPtuuw5Ja3u1sl77+TTt8zDm+SSOPLydylX7uaj5LAAAAAABAWUJQweXMpgUaM3OiRr68QQeOp+nEng2asyJR8muslo2tpUtSU7WCJX2yUvN3nlLK2VM6sGqqxsR57xhyqqnawZKSVmt2fJJSzqbp8GcLNHTOJTN2y7/LX/Vax0pK/+INhfV6SRMXxmnLqhiNGdhbvZckSQ0j9Vp/V+7uGg+rf5dK0hdvaPDLcdpxMEk7Vr2uwTN3Sre2VX9X/uxWPXuqkd8pLR0zUfM37dfhPVs1f/QELT0pNeoTrlYldfj7tVafHjWlk3EaMTpG67ftUsKqN9T3/3Z5lnMdS3r8VPWe4azzwztXaeKwlzTy+f/T5nOexUtyW3BNSce0/J8bdPhsmlIObtfskQuVYD5OH4/Lp20VI7RtW0nHtPkL67U+oJgZb2jajDc0bcYMDXuyt7qMjNMBvxANn9qvIC969bCeCr/1glaNG67o+P06cTZJO2JmqO/IKeo741NnB6JfM0X2CSk4jy17knRgU4xGjlmlHXtS5R/srbPycl1uu0xTwsI3NG3mhhK+2gjRkKmRauR3TDHPD1TvMQsUE79BMXOmqnf4KM1Pkhr1H6oeNazruTVTeHhNaUeiEtRYkd2L5qeXnKmSwrtUkpJWqe/AGYqJ36otmzYoZtJwPfrGfunWtoo059k38/F+qd2ypWpL2jJzlKJXbdWW+BiNfH6tUoo9dk+JH7jbhukXV+JnBaUTEqnJ/UOkpFUa+vL2YgNkoT3DVVuu+z5+lxK2xSn6mbc8g4HFtr84nfALUf+eznE6vCnuWTVx2AB1mbJd6be21aSnXev7uB/nPSNtmRmlaasSdfhgola9HKWJX0jVu/RUuOsaNOvzF4X6X9D6KQPVd8wbmjZjqnr3WqsT3lIQmTifhfsV/cxEzf8sSSnH92vLnAnqO26ihi7ZZy1erOrdHlF7v2NK2JGmwG7h3sf+KOX9Vn1/jAa/HKeEbbu0fuFEDV5yTLr1YfXp6HwG+PY3LUnffCWpRmPdZfoCLXHOAHV5tJdGxlufZQAAAAAAAAQVCtSOnKzXHq2jlE1vqO+TAxQx7A3Fna2jyOnjCzqmfBOiIVMHK/TWJC194RmF9XhGg/57uyvVSnHKq/1LkxRZL1dbZo5SWI8B6v1/x9TjpR7e3772UEmh4+drwbOt1Shzv9bHLNWYN1ZpyxGpUbcRip3bw5RHvLxCR89xnedSDXtqlIa9sVUp9Tpr+psjFOru6KoXroVv9lP7ivu1dMpL6j3sdS39rrLa939Z80oc7NWp0aCX9Zorl/fEcVM0cuE+hb70F4V6lCqv0NHRmt7tdqV87Kzz3i/EaLN/Sw1/rXR1XpA7fNsb6t1jgMKeeUuHH/6rhlg6DH05Ll+35VWbzupxq5QYu0YHPBac0o51GxS3boPi1m3XNxm3q9Wjz2pZzExFmvvCK7bQ2DdHq8cdP2nVzJcU0WOUhi3cpQotI7VgamG6lNq9JmtB/5aq8N0qjRk2Sn2nrNKOiqWvt0u73HZ5SFve26C40yrmrXWXkB5a9s5oRTarqhNfrNXsmW9o9gc7daJiiHpMfFPLniy5rTXq/rDzrfZm7dSh2PN2tfnIxrrt5HbNnvm6xkx5Q7M/OaYKIZZ2X4SP90vDSL32XEvV1jGteuN1jZmzXfVH/VU9ivkAwurEbnfbMP2+KWEA6ctQ/8nJmv5QJaVsmqGpxXUUN+6nt6c+rPqZiVo6c4pGjovRjpYj9Jx5oGZJtXtN14pnvbW/yYos8T7x/qxav/+i6v8mUgveGeEc3N7Fp/1UbKGxi8Yrsl6q4t6YqN5PTVT0plQ16jZay0a3KPySoEZnvRYzSVG/u0MZSTu0Y48UPn2yhhQTiypQL1zzXotUe//9WjphlMKefElj4o6rfrfRWvZc8QGUIiq2VY9ulSRVUtdOxa1Xuvut1V8nK/xIjEaOm6KJMYlKD26rSW8OVjPX896nv2kHt+mj01Ltjg957sPvagYnAQAAAABAWWPLzMo23BOGYRT8JMnhcDinHQ45DEMOh0PVq11qwM+bXH6u0s9dUI5/JWfqmyuQcy5N6aqk6rf6vp2cjDSl55RXYLVKPqbW8OTz+q7zVMUgBRbbqVqK7XmTc0EpGVLgrc4UUMW6WnWec0EpGbnyr+xMG1IsX47L121ZpHzwksLmHFOPV99RlLcc/77KvKCUzEvtP1fpZ69CvfmgVO3geJz6PrlUVZ5brLmPFvMVgJWP7fHKuOpLukS9euHj8eVk5sq/4rW9Ftees54uda5X2v58b1M+7ifzglIyS7iv84sOPpwwJUIjNzXW2FUvK7yksWLMx1vc9q+iEuvms9fVesJWdZ0cq0m/c5VVCXVTwvN1x8wnNSy+svq99aaGNPRY5LW+AAAAAABA2ZdyNlV2u112m002u102m012u/PbBJvN5vwRVACuIh87n8u0rxaoy8hE9V86+xJvrgM/j/QvFmjwhE9V/7loTQ6rKX9JOftjNGjYKh2o0UPLYiK9fg1wQ7IEFS5b5laNCX9dOx8arfjxrYsGLwAAAAAAwC+SL0EF0h8BV5NfeQVW+wUHFCSlJB1Seo0WakVAATeIwJYPKzwkV1tmPqN2HSPUumOE2j2zSgcqN9PYqTdRQOFq8muhF95brNjRBBQAAAAAAEDp8KUCAOAXIedIohIOOseU8A9upFaNa17zVEZX3WWmZgMAAAAAAPCFL18qEFQAAAAAAAAAAAA+BRVIfwQAAAAAAAAAAHxCUAEAAAAAAAAAAPiEoAIAAAAAAAAAAPAJQQUAAAAAAAAAAOATggoAAAAAAAAAAMAnBBUAAAAAAAAAAIBPCCoAAAAAAAAAAACfEFQAAAAAAAAAAAA+IagAAAAAAAAAAAB8YsvMyjbcE4ZhFPwkyeFwOKcdDjkMQw6HQ9WrVTWvf1PJyc1VRsZFZWZmKScnV3n5+dYiAAAAAAAAAAD4rJyfn/z9y6tixQBVrnyL/MuXtxa5aaScTZXdbpfdZpPNbpfNZpPd7vw2wWazOX+/hKBCTm6uzp49p4uZmQqsXEm33FJRFfz9Va6cn7UoAAAAAAAAAAA+y8vLV3ZOji5ezFR6xgXdUrGiqlW79aYMLhBUkHTufIZ+Op2i6tWCVK3qrdbFAAAAAAAAAABcNWdTzynlbJpur1Fdt1apbF18Q/MlqFCmx1Q4m3pOaefOq16dWgQUAAAAAAAAAADXXLWqt6penVpKO3deZ1PPWRff9MpsUOHc+QylZ1zQHbVqqkIFf+tiAAAAAAAAAACuiQoV/HVHrZpKz7igc+czrItvamUyqJCTm6ufTqco+PbbGDcBAAAAAAAAAPCzK1fOT8G336afTqcoJzfXuvimVSaDCmfPnlP1akF8oQAAAAAAAAAAuG4qVPBX9WpBOnu27KRBKnNBhZzcXF3MzGQMBQAAAAAAAADAdVet6q26mJlZZr5WKHNBhYyMiwqsXMk6GwAAAAAAAACA6yKwciVlZFy0zr4plbmgQmZmlm65paJ1NgAAAAAAAAAA18Utt1RUZmaWdfZNqcwFFXJyclXBn7EUAAAAAAAAAAA3hgr+/srJIf3RDSkvP1/lyvlZZwMAAAAAAAAAcF2UK+envPx86+ybUpkLKgAAAAAAAAAAgGuDoAIAAAAAAAAAAPAJQQUAAAAAAAAAAOATggoAAAAAAAAAAMAnBBUAAAAAAAAAAIBPCCoAAAAAAAAAAACfEFQAAAAAAAAAAAA+IahQgrTP5mlQx6aqVbeWmnYcpHmfpVmLSJJOfjyzoFyL8PFa9JX3clZZB2M1PrxF8ds/uUZTnxqkQUV+i7Tbs6SPx5qlpJXjFfZALeex9p2pNQezLGVOas0/rPtz/hZ9ZSmalaTYCWFqUbeWajXppKgle+VtrzqzTfNGDtKgp6ZqzUnPRb7VneW4w8cr9kqO+8w2zXuqk5q6jnvQnG1Ky7OUsZZ7IEzjVybJutcix+a1Tl3l1nqea9FzuDrM7arWA300c6234y7Ksz1GadG35mtRfP0OemqQBi0wtci8NO1e4q6Tpur01DxtO2PalFux7cJZp0W2a1p26W3v1iJT2yz2GueladucQerUpJZq1W2hsAmxSipSWSUcj4/7yTq4RjNLaEu7F3ipU/fvH2tUWD2+tjdPe9+J8n4vfLWo6P6K7BMAAAAAAAAoRFChGHtfbaGqbYcpofIjihobpdDceA1rG6I+H3p2eu99tYVq/T6qoFyL1EUa1LxoOaustYMUcudjmnm0lsIeDlPz3HgNa1tVoXOSCgsdXKMpC5ZrV8mb8vFY07RmQIga/HmqkmqFKezhMNX6Mkphd4Zo0Fpzp2SS1kxbpOVfpprmeZG3VzPbNtBjLyepVv8oRbXN1PIBTRXSd41HYCFtbZSa1grVsDmLtGjBcu3NKFzmW92laU3fWmrw50VKvXOgxo8dqFrfT9Vjd4Zq5j5TMV+Pe99MtagRqmFbA/TI8PGKapup+OGhChngedw6OE+htUI1bK3U/OEwhdVK0tQ/N1DIU2tMncG+1qm099VQNXgkSgmVI0znEKKozzyKXbG0D53taur3znYVVmu3oh6xHrcX+2Yq1LXewOFRCs1drkHNrNfCmyRtWrBIi7Ylu6adddJiwCKlNo/S+OGhyvxwmEJrddKiY4VrFdsusvZq3iPOOl20YJEWbXVvV5KytOapEDX480wl1wpT2MPNXdsO1byDpmJpa9TnzhYatCBVLUzXuOojiywd5Uma17aqQkfGS83DFPZwLSW9/JgahAzSGl+Ox9f97Jup0DvDFLU1QBFjx2uguy2N3GYu5UWqdr2zSIvi9ipTKlV787Bvqh7rO1OLFizSpqOei05+GaNFCzbJ9NQBAAAAAAAASpaZlW24fxczs4wLFzONjAsXjYwLF43z6RnGufPpRlraOeNsappxJuWscaM7cPCwdVbpJS80OkrGIzGpppmpxvuPBxgKHmfscs/KjTciJSPkpYI5hmEYxsZnLOWschOMoUEyQl5IMDJNs3e9FGJIkUZ8rmtGbKRz2lSmCF+PNXGcESIZzWfs8SgX/2SQofrjjIK5ue8bkZIRGWcq5sWev4UY0iPGctNuU+MijSAFGEM3uWasGWhIMtr8LcFIjYs0pCZG9PeuZb7W3dahRoBCjHFfmgrl7jGm3CNDf1xeWH8+HXeysbCDcz2P2oqNNAIUbNqHu9xCI9V9LQzDSI15xPMcfK1T1zVqMzvZo9zyP8pQh4WGee6V2WOMqy9DraKNPebjjos0ghRijEs0lzVzredRL67zCBhqbDRtq4hNluuzdagRYG4DhmEYubuMcfVlBDyX4Jwutl0cMqJbyVBwhLH86B4j+h4ZetLU+rcONYIUYozaZrprXNs2l0t4LqDocX85zghRgDF0a+Gs5Lc6GtIjxsLTpnKpy41HJKPJjEOXPB7f9uNqS63nelxnZ1vqaCws6eIfnWu0Md/bvrY3D85zCHoy0njEy/2xZ1oTQ/dEG4c8ZwMAAAAAAOAauCp919fYmZSzxtnUNCMt7Zxx7ny6cT49oyBecOFipnExM8vgSwVvgh7T8uRUvd8zyDxTzZuHSCeTVPCu8rG92iupTZvmpnJSSIilnNXW5VqU9oimTGijANPs5hN2KTl5njq6ppMO7paCQ1TLVKYIH481aW2skhSpKSOaeJR7ZGyUmhxepOU7XLMOJ2m3ghVS4k53a/mCJAU8N16Rpt0G/XGmprTO0rwla5wzqrZR9LZUJUxuI/PRSaWou/unKCl5l8a3MhUq10TNm0tKSi4s59NxB+mxmGSlxkR6HE9QsxYK0UkluTd27H0t2hyscRMGKqicqVzP95WavEkD6zinfa7TMxXVZPAUje8Z7FGuTdsm0u69V+8t8YNrFHtYipwwSk3Mx/3H8Yq6K0mLYqyphFx2LNeiwwEaOtpcL0F6ZNoUtcmap0VrPUqbnNS8sfOU9ccpinJdn7TMWuozeK4GdjAVK9dcoW2lrH17nF+DlNAuQiLfV/LR9xVZx3xnOG2KWaS0P07RlNamZeWaa/zuZCW/5r5r0pRZq48Gzh6ojqY6UKtQtVGW9n7v/vLipN5fvEnBL03RwNtM5YIi9f7pZG0a7GxIxR+Pr/tJVcW7BmrKhMfkcfUf6Kgm2qW9h00zLTZNi9K2+uM0xXVv+9zeTE4uGKSobyO1aHafInUtSUl790ohtUp+xgAAAAAAAAAmBBW8CQhScHCQAsydhXl7FfvvvVKHjmrhnlf/ET1SX4p9N7YwdU5ektas3St1MZWz2Lt9k7JadVSbAGfu+UFPDVLUq7HaneG5371790p1Kip17UxFPTVIg0bO1Jp9ljQnvh6rJAVUVVVzuQIntft713a/36u9qqWKqWs0c+QgDXoqSjPX7lWWOU/8yV3adlKK6NDGNFOSghXaIbiwo7z1QI1q7a0rsxR1V9l1fgUrOtPOLP9QCuoQqhD3PF+OWwEKCg5WUGXzPGnvB8u1Vx3V0R3f+DJB2xSm0FbOcRCinhqkQRPmadNhOdc3H4wvdXpPpOa+NU6PmHuVlaZtW/dKzZsUnsNVEaCqVa3znE5+u9drCqSTu7fppCLUsbVlQZ1QdQyWdu/zHvbI+nCUoraHaNyEwmBEUJdxWvjWQHmEivJ2K2GrFHBXU2e5YttFiCJGRCjYa33u1bbNWWreoY0CzuzWogmua7xyt7IqByv4NvdFCVLHlxZq4WDPYJV2JGibAtTkTtd+8xKUsF0Ka9vcOd7ByEEa9NR4zducJN0WrOCggEscj4/7URNFvrFQ4x72uPhK+3KT9qqFmtT3mF3o4EwNezNLj0yLUnPz/n1pb27HFqnPU5v0yOJ5ivBW3UrS3r2SgjK11/UcGjRhkXaf9NZKAAAAAAAAACeCCpfgHEA1TC0Cm2p83ihtjB1oeuO4iaasXahHtj6mqnU7qc9TYWpRo6miUkdp47/N5Twl7d0r3Zml2DZV1WLkGiVnJCl2wmNqUaOBhm12d7FnKe2MpB3j1SkyWpsOJilhSZTCmlRU6Ot7LVt0KulYQ1p1VEDWIs39wDNH/u5li7RXUtIx52v6WWnJknZr/CN9FL01SUlbFynqkaaq2Ham9ro76DPSlKxghdT12JQkKahqVenbXfJ+hGalrTvXQMGRnVSrRpg2dViohNcKgxo+HbeZa4DasOYV1XSCNGrT+4VfIBzcLd0TpL19a6lBxDztzkjWrjnD1OnOWuq0oPDMfK1Tb9I+HKqhHwZp6GRv51q8k2unFhlUd+paVwb/+s3VMSBLi94wBWrk+hJhn+XLDpPMtGQpOEQhRTqrg1T1NmlvorermaR5Y2M8vlIozt7XB2rq4Y6aO9oahCqNJO3ZJzXJilWLGi0UtTZZmQdjNf7PLVS1yTBtKmnoh7y9mvnMVCV1mKvxv3PNO5yk3WqioG/7qNadj2neV5lK3j1Pwzo2UK3fL/LeZi7F2368SVujoc+uUdBzUzTQ68XP0prJ47XX9JWCSt3e0hTz7CBt6rBQix73GlGQlKbUY5LeGaTQsbFKOrhL8a8OUotaIRp0ybE0AAAAAAAA8EtFUMEXGVnKCpCyDm/Smm2enW17t8Yq4ZgUcFuAKipIVStnKevbNVqz+xKdcu+O15Qm8UpN3aX4mI06lJ6suR2SNC9ivLblSVKAIhYnK/l0pozUZO3atFF7UlOV8EITbRv5mGaaB6Y1K+5YO4zSlFZZioloocdejVHsyhjN/HMDtXgz1SMtSsAflys5OVWZmalK/nKjNu5NVeq2UWqyPUqPvW5+Y72qqhbXV+mjy6q7jFSpnJSWuEabTF9t+H7cZpnKygqQ8pK06cMEpZk7kr+dqai947Un/ZA2xsRrV2qqNj5TVZueGlY44LCPdVrEvpnqGB6jkBkJmltS53NpleuoUdOaK+vdx9TizzMVszJWMa8+pgYPzFNqiQck6baqJR+zRdaH4zX+W8+vFLxJ+7CPQkcnKTKuMGhzJWLGTlGTuFSlfhmv5ZsOKfPoXHU8OE+PTShu0OM0rRkQqqiDkYr3CAhK0l7NHL1X4/dm6tCm5Yr/MlWpm4aq6seDNGyJ55DOl1bSfkzy9mpmlzDFNIz2CIp5ODhPUe94+UqhFO0t7YOhGvhhc0W/VcKxqImidicrOTVTmcl7tHHTLiWnJ2vhH9O06M9DCwerBgAAAAAAAMwYqNlXmcaeac2dg6sedc1KdA7KGvlv87C/XspZxD8p5yDH6ZYFX44zgj0GDPbCNSBx89dKGlq1mGPITTbeH9HRCAmQIQUYIY9GGwmpzgGTrQO4Wr3/uHMA4EOGYRjfRxtNilnn0Iwm3geptg7UfJl1ZxiGYeSmGu8/GWQoaKiRUNIgwtbjLkZm4hSjuWR0fMs5au6hGU0MebsO6c5BfB+JMQ8UXMo63RttNJeMoCfjPQaLvpqSY0cZHRsGGJKMgIYRRvS2VGebMw96bOI8X28Dgh8you+REWwZTNs93zrgtZVzgGjrwMIW1nZRwLWPgmN21qnH4Nwuu14K9t7m3IMYq7kRvdeyyNWGi55bpnMA7SL7sR6PWQn7Mcvd4xz4OSjSiC+24jKN+CcDDNUfZ+zy1rZ9aW/p8cbAIOszooQ2abV3itFEMgausS4AAAAAAADAlbh2fddXDwM1X1UBavJclB7RJsW40s04B06NUB+PQZKLlrOqVSdYCghRiCW3v4Kqqqp5wGBvyoUoJFiWsQKsijmGcsGKeG2jDmUaMoxMHYodpTZn9mq3mqiFeexXL0LqB6sgIX/DJgqVt1z7Wc5xAppcYnDpK6g7SVK5IEUMH6rgtEVavt260JPHcRcj4J5RivqjtOndeJ2UVKtOiKSmCrG+WV85SEHWNDOlqdMzserTJkpJT76vpMWPFHm7/GoJfjRaG7/PlGEYyvz+fY1qnaq9u6UmzawH5BRyT6ik3dpr/folY5s2fSs1tYx+7ctXClnfTnV+jTFtjxJe8L7f0qmlkGApoH6I5/ga7pRbRQZGz9Lelzsq7J0QTUlM0Ki7PBZKwbUUoqLnJgUoKKj4VFFFXWI/bnlpinV9yfD+98v1SHEVV9xXCm4+tLekBeO1KC1YAYnmVFkztU3StjmDNOipRSpmyG6nOiEKkZRZ4jMGAAAAAAAAv1QEFbxIer2FbLYwLbJm4TmZrCRJwbe5EoqUC5CUpjRrmpC0VKVKCqjsveeweZfHFJC1RvE7POefXPu+c8DgByRpm4ZVtKnWWEv338FNij0pNanj7Az1+Vg/7CObrYHGf+tZbPfiedpbP0KPNHRObxteUbZa4y2djkna9OFJ6c5armBBR3V8VNr7xiLtNnc8psVq+YdSm0fDSki54uJj3a0ZYJOtVpQrJZRJcpJOKkS1bnNO+nTch2eqhc2msCXWykpWcpKk4KoKlhTQ9hG10SbFFoxv4bJ5jWIVoI5tXEMr+1inkjOPfp87H1PMXdFKWByhIG8dxlcqb4362GxqMMEyBsKORZr3bYgiHi5mSOi2HRWhvZq32LP20j5crjVqowiPQYZ9GEth30yFNhuv5P7x2vRSkyJBgMvTXB0fDVDWh/GebU4ntSa26KDke18NVdOxyRoYt0nj7vFyBJU76pHW0qYPN3mOP5G3SWtWSgHmQcBLcMn9SK7USCF67N0mit62XBGuNluU97EUCvjY3ire9ZgGDg5T00u1sZOL1MlmU9i7nlG3rM3x2qQQhfhSAQAAAAAAAPjlIf2RF0cXGh0lQw0HGgu/PGQkJycbh76ca0QEyzPljrtc61FGfGKyq9xCY2BDGQoaaMS70hslvBDsTI1SkOIl2VjYQYaCOhrRmw4ZycmHjF1vRBjBkhHUP74g7cqul0IMKdiIeGOXcch8DK2ijT3WY7jUseYmGEODnOXeT0w2kpP3GPF/62gEKcgYuMaU6OXLcUaIZAT3nGvsSko2kpN2GXN7uo7fnNrFlcYnuOdCY09yspGcGG8MbeV53h6saW58rDtj61AjSDKCuowrKLdnzSijTTkZ6rDQcCYs8vW4XfWuEGPgYmedFpYLMoZudZczjITngpzl/r3Hc5/mVEq+1mlqgjGulQyV62iMi3nfeP/f5t9GY09Bfe0yFg4eaIz6d0nJmkpW9LjHGR2DPNuVsW2UEWxJobVnRnNnW1vsXm+oM02TeT3DMDLjIo0AhRjjEk0zzY4uNyJcdbLQ4zzfN97/967C6+VmbRcFvKQbcrWZoC7RxkaPa+xZ38kxEUaQZIT0X2jZ//vG+1+ajsDVtkL6v1/Qhke1luVedSt6PL7tJ9VIeKm5Icno+LflRcpt3GuqXVdKpghzei0zX9ubV97SH6U6Uz2Va2OMWuPZzq9lei4AAAAAAIBfqqvSd32N+ZL+iKBCcY6+bwy835mX3v0LfjTaSDjtWSzz+6LlAu4fZcSbyjk7eoOMUdvMK+4x5j4abFovwGg+It5INedRz0014kc0NwLMx/BwtJFg7e3z8ViNo+8bA+8qLKNyTYyBsUW6eY3UNaOM5gGmcsGPGNHbrDs1jNRNlnJ3DTTeL24sBC+dx77UnWEYRuq2aCOijmk/CjCaD37fOGTpR/XpuHOTjfcHe9ap6kQY0Vut5bzU/aNzjT3Wvltf6jQu0uMcPX+mOilhrAqf5SYb7w9u4rGPJoPfN5LN7codqBmRYJqZamy0nG+R9XJ3GePqy9Cj1vEGCjnHZ7Ceo/vnZdwGL+3CqWgnvmEYRmbiXM+2ENDcGLXGfO1c6xXZt+tn2V6RNlMnwpib6O3srMfj635cY0EU82sywx3YcXXw1x9nlDAChW/tzStvQQVvzyEv1x0AAAAAAABXxVXru76GfAkq2DKzsg33VwuGYRT8JMnhcDinHQ45DEMOh0PVq1U1f+hww/n+hx91569/ZZ19+bLSdDItSwFBwQoqLruJSlHOKitNJ9OkoNuCFFBsupIspZ1Mky61bV+PISNNJ7MCFHxbSYWkrLSTSlOQgkvcmJR15qTSyl26XLFKc9wZl6orX4/bWadZAZcol5eltDM+1L2PdVqitYNkeyRZy9PjFWkdb6O08rKUdiZLAZeoqyJ8Pd/rLCvtpNLygq6svk2uuA3/3K5GezO73PYCAAAAAAAAn131vutrIOVsqux2u+w2m2x2u2w2m+x25ygKNpvN+SOoANwYkl5voQYfDlXypoGXHpMCAAAAAAAAwE3lZui79iWowEDNwA0iKTlNHR/tSEABAAAAAAAAwA2LoAJwg+g445A2PhdinQ0AAAAAAAAANwyCCgAAAAAAAAAAwCcEFQAAAAAAAAAAgE8IKgAAAAAAAAAAAJ8QVAAAAAAAAAAAAD4pc0GFcn5+ysvLt84GAAAAAAAAAOC6yMvLVzk/P+vsm1KZCyr4+5dXdk6OdTYAAAAAAAAAANdFdk6O/P3LW2fflMpcUKFixQBdvJhpnQ0AAAAAAAAAwHVx8WKmKlYMsM6+KZW5oELlyrcoPeOCdTYAAAAAAAAAANdFesYFVa58i3X2TanMBRX8y5fXLRUr6mzqOesiAAAAAAAAAAB+VmdTz+mWihXlX570RzesatVuVcrZNGVnM7YCAAAAAAAAAOD6yM7OUcrZNFWrdqt10U2rTAYV/MuX1+01quvkT2eUl5dvXQwAAAAAAAAAwDWVl5evkz+d0e01qpeZrxRUVoMKknRrlcoKrFxJx5NP8cUCAAAAAAAAAOBnk52do+PJpxRYuZJurVLZuvimVmaDCpJUreqtCrq1io4cS2aMBQAAAAAAAADANXc29ZyOHEtW0K1VVK1q2Ul75GbLzMo23BOGYRT8JMnhcDinHQ45DEMOh0PVq1U1r39TyMnN1dmz53QxM1OBlSvpllsqqoK/v8qV87MWBQAAAAAAAADAZ3l5+crOydHFi5lKz7igWypWVLVqt96UKY9SzqbKbrfLbrPJZrfLZrPJbnd+m2Cz2Zy/X0JQwS0nN1cZGReVmZmlnJxc5eUz3gIAAAAAAAAA4PKV8/OTv395VawYoMqVb7kpgwluBBUAAAAAAAAAAIBPfAkqlOkxFQAAAAAAAAAAwNVDUAEAAAAAAAAAAPiEoAIAAAAAAAAAAPAJQQUAAAAAAAAAAOATggoAAAAAAAAAAMAnBBUAAAAAAAAAAIBPCCoAAAAAAAAAAACf2DKzsg33hGEYBT9JcjgczmmHQw7DkMPhUPVqVc3r31SOnnXo0335+vrHfCWddijtgiFHwdnjRmC3SUGVbAqpYdd9v/JTu7v8VLcasS8AAAAAAAAAuNZSzqbKbrfLbrPJZrfLZrPJbnf2z9psNufvlxBUOHrWoXe25mrjd3nWRbgJdLq7nJ5sW57gAgAAAAAAAABcQwQVJMV/laf/W5vNFwk3ObtN+uvDFRR2fznrIgAAAAAAAADAVeBLUKFMv/q9PCFXr60hoFAWOAzptTXZWp6Qa10EAAAAAAAAAPiZlNmgQvxXeVq8Jcc6Gze5xVtyFP8VaawAAAAAAAAA4Hook0GFo2cd+r+12dbZKCP+b222jp51WGcDAAAAAAAAAK6xMhlUeGdrLimPyjCH4bzGAAAAAAAAAICfV5kLKhw969DG70iPU9Zt/C6PrxUAAAAAAAAA4GdW5oIKn+7Lt85CGcW1BgAAAAAAAICfV5kLKnz9Ix3NvxRcawAAAAAAAAD4eZW5oELSaVLi/FJwrQEAAAAAAADg51XmggppFxih+ZeCaw0AAAAAAAAAP68yF1Rw0M/8i8G1BgAAAAAAAICfV5kLKgAAAAAAAAAAgGuDoAIAAAAAAAAAAPAJQQUAAAAAAAAAAOATggoAAAAAAAAAAMAnBBUAAAAAAAAAAIBPCCpcNru6PxKgJc/dorVRlbT2r7fon30qqHstazkAAAAAAAAAAMoGggqXo2p5RT9fUcPv91O9QJtzXoBNDX9VTsOfvEXTWrvm3YS697xFa6Nu0bRW1iUAAAAAAAAAgF86ggql5qeoHv5qXknKOJWn6CUX9HD0BT08PVOz9xvKKWfTg78LUB/rajcJf3/Xj5YBAAAAAAAAALCwZWZlG+4JwzAKfpLkcDic0w6HHIYhh8Oh6tWqmte/4XSadsE66+q6N0Ar/+CnahfyFT0rS2s9Fto04C+3qM8d0sEvLujpDa7ZVctr+CPl1KmWXf6SctLztXVnjqJ3OFwFymvaUH81V74WbzPU+bd+qlfBppxshz7/X5am7TKk3wRoZTs/+Z/O1dNv5+hkwT7L6e/PVNCDlRza+G6moo9LqlVeYzuX14M1bfKXoYxzDm1MyNb871yXultFrb3HriN7cvTjHeXV9labjnybo5Rf+6t5oCugkCflXMjX/HlZWi0ftil//TOqvOql5Gn+GbsGNLbLPyVXDy/JKTjSa2Hj2ErWWQAAAAAAAACAy5ByNlV2u112m002u102m012u/MNdJvN5py2roSSdWpsVzVJyUdyLQEFSTK0+KMsTYvL1r++d6VAqlpe0X/xV/df2eWf7dDJdEP+Vf308O8DFG1Kk+RfQfKvYNefO5dTsAyl5EmVA+3q1DlAUSGSvsjXSUmVa/npz+a4zj3ldHdVyf+CQxuPu/bXy1+d6tqkTIdOpkuVq/up5x8ratpvXOuUc36NUK+pvzpVdx+DobPnHUrJck5lpDt08ryhDPm4TdmcXzhUL6chzZzBEwAAAAAAAABA2UJQoZTurGKTZOjk8XzrIqfkfG38Nk9bf3S+wd/zkfJqfot09occ9Z+Tqf7/vKj+H+YpWTY1D62gnuZ1A2w6uf2ius/J1BP/d1HLj0sqZ9f99/tJytWao4Zkt6v5bwuDEQ/f7QxyHPwhR7slPfx75/6OfJOl7vNc+9uSrwy7TQ82r6Bg0+788/I1/5/O9E1Pr8tT9DuZWn3akGTo+52Z6v9OtjaWcpvyN/TdpovOlFDX+CsFAAAAAAAAAMDPi6BCKVUuVY2V14M1bJIc+vyj3IKURSe/y9FXKZIC7HrQPCByjkO7P3WnEzK0OMWZHinwFudO137n0FlJ9er6q7kkqZzaBtskh0PffWlIKq9OtWxSnkPfHbap0z3l1Omecro7w6HvL0qqatefCnYmJf+QrZWpphlelW6bSs1X9PaCjFoAAAAAAAAAgDKkVF3kkH68aEiyKbCKdYl3FcpJyjL0o0fnvaEfM1zbCTLNdhhKN00W8W2udqdKquqnh0Mk3VtOd1aSco7nabZr+xXKOb9ueDi8gsYW/JxfGsguVTZtLtc1dsallGabcsg03gMAAAAAAAAAoCwhqFBKK085O+Ib/srfM+2PS6dHb9HaqEpa8gdn1WY7JNltCrSUCyznTKOUft6yoET5WnzUIcmmpvf6qWczV+qjpNyCEtkOSVkOrYzL1rQivxz9x2N7vrkW2wQAAAAAAAAA3HwIKpTWhjztyZFUs5wmdfTzXHZnBT1xp03+/oa+/84hKU9Hzknyt6t5u8JxEFTVX81rOL9MOPK9eQOXdvJ/+TrokGoFl1fz22zShXyt+cy91LW/AJvq2fO08Vv3z1BwPbuC8+UceLlUrsU2AQAAAAAAAAA3I4IKpZarqZ/lK0M2NWwdoNVDKyr60QqKHnyL1j5WTvXKSUe+yda0JEkyNDsxXxmSmrauqDl/9Fef9hU054nyauovZfxYmLbIZ6k5+jzZmQLpwUrS2RN5Wluw0L0/mx7sdovmPFJenVr5a2z/Chpwf3k9EWoJgniR45Akm+68u4LGdiuv5ldhmwAAAAAAAACAsoGgwmU4uT1LT6/L08F0qfKtdjVvUk7Na9jkn2do9xfZeum/+YWFv8jSqE/zleywqWmz8hoQWk5NK0nJP+Zq2ruFaYtKY/EPDuXYJcnQ7h15ngu/yNK07a793e+vsb93DrSccTpP82NzLjnewertedp9Qapcq5w6tSiv7iFXvk0AAAAAAAAAQNlgy8zKLhit1zCMgp8kORwO57TDIYdhyOFwqHq1qub1bzidpl2wzrq2qvqp7R02KT1fW38seeDjhneW068qGPrx23wdtC68Bpz7k84ez3MO8FwatfzUPCu/yHpXtM1rYOPYStZZAAAAAAAAAIDLkHI2VXa7XXabTTa7XTabTXa789sEm83m/BFUwM2MoAIAAAAAAAAAXB2+BBVIfwQAAAAAAAAAAHxCUAEAAAAAAAAAAPiEoAIAAAAAAAAAAPAJQQUAAAAAAAAAAOCTMhdUsNusc1BWca0BAAAAAAAA4OdV5oIKQZXoaf6l4FoDAAAAAAAAwM+rzAUVQmqUuVNCMbjWAAAAAAAAAPDzKnO9svf9ys86C2UU1xoAAAAAAAAAfl5lLqjQ7i46mn8puNYAAAAAAAAA8PMqc0GFutXs6nR3OetslDGd7i6nutXKXPMFAAAAAAAAgBtameyVfbJtedkZw7fMstuc1xgAAAAAAAAA8PMqk0GFutXs+uvDFayzUUb89eEKfKUAAAAAAAAAANdBme2ZDbu/nAa097fOxk1uQHt/hd1PeisAAAAAAAAAuB7KbFBBkvqEltfIRyqQCqkMsNukkY9UUJ9Q0h4BAAAAAAAAwPViy8zKNtwThmEU/CTJ4XA4px0OOQxDDodD1atVNa9/Uzh61qF3tuZq43d51kW4CXS6u5yebFuelEcAAAAAAAAAcA2lnE2V3W6X3WaTzW6XzWaT3e7sl7XZbM7fLyGo4Hb0rEOf7svX1z/mK+m0Q2kXDDkKzh43ArtNCqpkU0gNu+77lZ/a3eVHMAEAAAAAAAAAfgYEFQAAAAAAAAAAgE98CSrwCjgAAAAAAAAAAPAJQQUAAAAAAAAAAOATggoAAAAAAAAAAMAnBBUAAAAAAAAAAIBPCCoAAAAAAAAAAACfEFQAAAAAAAAAAAA+IagAAAAAAAAAAAB8QlABAAAAAAAAAAD4hKACAAAAAAAAAADwCUEFAAAAAAAAAADgE4IKAAAAAAAAAADAJwQVAAAAAAAAAACATwgqAAAAAAAAAAAAnxBUAAAAAAAAAAAAPiGoAAAAAAAAAAAAfEJQAQAAAAAAAAAA+ISgAgAAAAAAAAAA8AlBBQAAAAAAAAAA4BOCCgAAAAAAAAAAwCcEFQAAAAAAAAAAgE8IKgAAAAAAAAAAAJ8QVAAAAAAAAAAAAD4hqAAAAAAAAAAAAHxiy8zKNtwThmEU/CTJ4XA4px0OOQxDDodD1atVNa9/U3E4HMrNy1d+fr7yXecGAAAAAAAAAMDlstls8rPb5efnp/Ll/GS337zv8qecTZXdbpfdZpPNbpfNZis4H5vN5py2rlQWORwOZWZlK+NiprJzcpSXn09AAQAAAAAAAABwxQzDUF5+vrJzcpRxMVOZWdlyOBzWYmVGmQ8q5OTmKeNipnLz8qyLAAAAAAAAAAC4qnLznH3SOblls0+6TAcVsnNylZWdbZ0NAAAAAAAAAMA1lZWdreycXOvsm16ZDSrk5OYpOyfHOhsAAAAAAAAAgJ9Fdk5OmftioUwGFRwOB18oAAAAAAAAAACuu6zssjXGQpkMKpTFT0oAAAAAAAAAADenstRnXeaCCg6Hg0GZAQAAAAAAAAA3jNy8vDLztUKZCyrk5uVbZwEAAAAAAAAAcF2Vlb7rMhdUyM8vGxcGAAAAAAAAAFB2lJW+67IXVCgjn5AAAAAAAAAAAMqOstJ3XeaCCoZhWGcBAAAAAAAAAHBdlZW+6zIXVAAAAAAAAAAAANcGQQUAAAAAAAAAAOATggoAAAAAAAAAAMAnBBUAAAAAAAAAAIBPCCoAAAAAAAAAAACfEFQAAAAAAAAAAAA+IagAAAAAAAAAAAB8QlABAAAAAAAAAAD4hKACAAAAAAAAAADwCUEFAAAAAAAAAADgE4IKAAAAAAAAAADAJwQVAAAAAAAAAACATwgqAAAAAAAAAAAAnxBUAAAAAAAAAAAAPiGoAAAAAAAAAAAAfEJQAQAAAAAAAAAA+MSWmZVtuCcMwyj4SZLD4XBOOxxyGIYcDoeqV6tqXv+Gcz7jgnXWz842eI7KHUuRkZcvm5+fjGqBcswcIEetG7vuAAAAAAAAAADXTpXKlayzbigpZ1Nlt9tlt9lks9tls9lktzu/TbDZbM5p60q4fMaps7rw8ET5Hf5JRl6+JMlW/Vb53VpF5Z5+S35fH7GuUralHtKXXxzSBWdV3BByzqcq9UKOcyLrglLPu/4NAAAAAAAAALgkggpXUcqzb0jZuQXTtsqVVeHVQfIf3UPlmjZQucnve5T31ddv9dPA/v309/+esi66YZz67980sH8/DXxrp2vOPi0aNkJ//8cIPb1on6X09XEqdoQe7dNPT/TuoyGzVmrRi5F64rVPRFgBAAAAAAAAAHxDUOEqyjh7zmPabrdLCQdk23ZQ9oAKkmGo3PtfeJTxRc65VJ08k6qzGYUBixtOhvMYT55zd9HX1b33V5JUSfc1q2spfD2k6utvUnVX71f07zef030/xivh/L0a2L+L/K1FrzdHnk4dPa7MXEm5mTp/Ic9a4uZ35qB27D/rOS/3lL7+77/17tIP9PVZSReOa89Xx5XpWQoAAAAAAADAdURQ4SrKsecrzzDkHqTCLru0fre05WvphxOS8mX75peSAqmSHnghRvEfxuiFNjdCnrCq+v3fl2pmn7tUqU47PfPaUi1a8g9F/Mpa7mo7pY+mRGn4X6fpv8ety6RT/52m4X9dpK9N8479Z6peeztGMyZM0oxXpmnRZ+dNSy/P1wujNHzKOpX8rYvzWKdd7S9icjN1Pi1ThSGxPO14b76Wvblc29yn5tirlRNe1aJtx3XxwkVdtEvH1i/U/KXz9d/9BSteO7sWFbkOAAAAAAAAAIryGz/+b3+3znRzD9gsV0e5YRi6pWJFa7EbSnbO9Xub/2jMh7olz1/lbTaVt9lksxmyyS7lOZSfk628jHTZat0uR8em1lVLdCJhhbb8KFW7N0wP31PFuthTfo6Ofh6rVYsWat7b6/Xtj2eUdVtd/bqal+uWk6ofNryvRQve0uLYT3TgRJr8a9+pOwL9PMvlp+qHj9/XO/9aogXFbPPCt2u0OvG89Kvfqc9v60pK1ZfLFmnVli90/vbf6NdVJR1ao1nL1uvzz7/w+isoJ0nK0altsXovZpneWrRaCfuP6pxfXf26bmVZjk45Z/Zp46qFWjR/oVZu3adTKX66o1FdVbYWTD2kj1Yu14q339Db67/R4VM5qlHv1ypSNb7WYeo3+u87/9GBik3UqEZx3ztc0A+fJuhAVqZ+OOhQi7YNVdm89MBWbT1UWS26tVCwa17Fei3V7qEO6tz5d2px32/V+p4qRc65tE7t+ki7MxqoXTvP/XtyHuuJ4N+qbaPiS5Xa18v0wqxE1S04R7tq39VYv76vje6vWcFZ5uROrd6SptC/jlbvTveqboBUpWET/br+b9SmSdFrftUl79bar+VxHQAAAAAAAICrrYJ/cf2IN4bMzKyCAZnNPzFQ87WRXj5b6fZcZTgcyjEM5WfnKDf9nHLPpykv/byUny/j3mv4anz+McW+0EdDpv1LsTsP6eSZQ0rYsFKzRvTT8CX7dMFc9sI2zRrUT8PnrtSWPUd18tg+bfnwX/r7U/306jZTyQvbNKu/s9xH1m2uOGbeosUFHf3iY3204WN97X7x/dRefbTBOc/br6Bc/jHFjuyjAdP+pdjP9unomaP6+rM1WjTtKQ14dZvHeVzYNlMDBr2oWSu36etjqTq6Z5til0/XgP4z9aXHaczUE/1HaNbKj5XwfapOfr9TH62cq+H9Ryj2R9MGS1GHXy75m978cI3eHDtfX5rmexP84G/V9PQGvb320l8BlK9UUTq5Vzu+3KWk05mSw1rCmSIp5ftE7fj8Cx04av4KoHRyj+/Vjs+/0J7vzxa/jezjOvD5F9rx+V6dyrYuS9f583mS8nT++0Tt+DxRSWdN6Zqy03U+I1dSri6muctKqlBNwa4gTe75dJ0/70xylJeRbvqqoYqC7ygaRMu94Dqerw4qxXo8cn4Zcey7L5zHcqaY1FG5Z5X0VTHn5ObLdgAAAAAAAIBfGL5UuIpOr9+ii9mZKp9bTjJc0Zv8fNny82U4HMr3ryjHtN7W1S7J1y8V9v1ziKZ/niVVaannZ8zUmMGPqcPth/W/L5J1Yu82nWv4R7W+w09Sqj76W5Rijkpq8CdNi/6Hhj3ZRfflf6eNe3/S4YTDCvnTQ6pbTvph+T80d/cFqcGfNHPWK3p+wOP6U70T2vC/H3Ui8ZBqPNxFv67o7UuF89q7Zo12n5Pqt31cv60rqeZ9euQPf1TEo39y/bqo5uEN2nEyX2rwhMYMuFu32qULn/yf/h5/TPlVWur5ObM14akn1LN1vnZ8vEcnDu9W5j2P6YGaks6s0d9fjNXhfOnXEf/QnMnP6slu90rfbtZ3J3/UliN3qOdDv5Kf9mnFpEXake4s98+X/6p+vbsp5MTH2nr4J+0+fKse6XKnKpaqDqVyyV9o9VepUkhH9X34rmK+AHC9/V+vtyIb/qD4j79T5Qfa6Feu26jIlwoXdmvZpNe1LGGfkpIOKfHLjfrwk2TVbn2/gt1BzDP/06Jpc/XeFweUlHRA2z/9SBu+cuj+0Iaq7Gx2RRT9UiFTXy+erOkffKE9SUe0b8dGbfjxFlXPOKSzpi8VTm2ao+lvrtP2Q0f0w/4d2rDmE/3g31i/CXG2w1PrZmrS6mPKT3xfS7fu1w97d+mTjZuUaDTRb++sopRP39LM9UeVnZemH3bt0PYDfrrvwfpKXzdTk1ZnqkW7QH39zzlalnBYKbkXdGzvLn3x+Vnd0eFu1SjyhUOmkmL/T9OWbNDOpCP64dsv9NH6T3S6RhvdV6u8s8SutzXptRXauueIfvghUQkb12nr8Rpq07yWnCUkHV+nGVPf1keJh5SUlKhP1u6UrVpFHUgq/FLBp+0AAAAAAAAApcSXCvBw/6vj5LjVTydvydAZe7bO5ucrJT9fZ/LydM7wkzH1SesqV0/+Nn243vkefeigMfp9g0ry96+kul0n6IWulSRd0EdrPlGOJB3boP/ukaSa6vV8f913u7/8A2rqvv6j9MIfu6hX/zDVzXdu9tf931L8f1bqg1f76y5XaqJKbUJ1nyTpqH446tq/L/wrqWrVqgW/nM0z9ebuHKlKO/19Wk/VdeW4qdRhgj74cKU+WDRBv6/lvMn8G7TXb2vJ+QXEkVRJ0qkNa/R1vqSaPfV8/3tVNcBf/rffq74vjFJE5556pmsd1xvvd6nvwtWKX7lS0f3vVSU/SX5VFdrmXucOfzzqHGugNHUoqWbE6/pgRYw+mPUn1XTNK87FzCzV7Bqp31c7rpXv/q+YwYfzlLR+iw5Ue0ijp/1DUyZP1JSXR+j3FRO1co37c4pT+mj+BzpQ+1FNfOUfmjL5H5r5jz66L22DXnt3r2V7xcvd9rYWfVtFv//rdM2cOlFTXvmHhgTu0tYzpkLJ67Qo7ic16jXRWWbqdE3pVV9H497WR8mmcmf26Wyr0c4yL0/RiDYVdezjDdojqXrH5zSl552S7lTk5ImaMvwhVTetKtVU2+ETNWVYewWrmroOm6gpk/8sbwnCcnfFaP6nuWo99B8F+xrdvop2/GuhtqVJyj6ojRsPqnr75zT95YnOuhn1kG75Jk7rD7m38qP+u2CDUhr/WVPc9Tc2VIf+Z6o7n7YDAAAAAAAA/DIRVLiKyt1eXa1XzFWdrr9VVo1ySq6YofRAP9nb3K3KG/4u2/11ratcPcnHdDRfku7SA/d7Rrvuu9/deX5MRyXp6BH9IEmVWuo3Dcwl66j9U8PUt3tL1TWPrZz7k/ZuXqlFs+bq1ReH6Yne07VFknRBGR45lUrhx5WauuyQpEr6/fPP6QHrWM45F3T0m/9o2ay5mvX3ERrYZ4SWubItZbh2euSoM6JRqeW9+rV53TrtNPD5J/SH3zSQebM5Z/YpYcU/NWvWdI19pp/+HL3NueBChtJVyjp08a9USb7EFs+fOyvZ79AfIn+r6t9/qJjPvYUVyikkYoSmjPqj6rhfh7ffobo1XOtL0qEEfXqmmjpF/FbV3XdvpeZ6/A8NlbkzQV97S5VURLq2JxyUmnbWH+qXc82rqJDwhzw684999rlO1u2sPz0YWDCvSpvOalPlrL76ypTGqUoLdSwoU04hv2uhYMdxHTMHHq5YpnZs26vMex5WzzvdX0uVU50/jNArLz+nNkGSKjTUH174h0aE/6rwa4JaNVVT6Tqf5pre+5m2plVTp7DfqIq7/m77rf7QqvAcfdoOAAAAAAAA8AtFUOEauOP5J3R3zHQlde+igDeGq8q0J6xFrqGqqmzNkOTn6ho9c1aurmmnqpU8Ot29ubBtpp7oPVRj5/5LsZs/0dc/SfV+19KzE9/Ml07tC9v06th/6Yd86dd9Zuj531i65X/8j0Y93k/D/7FE7234RP/7MVVBd7bWfbd5FnOrVqWadZbFBX35Wj89+szf9OryNfros306pZr6bcvigjylqMPSavCoHn+gvL6OjdHX3gIyjnQd+/QDLZo5TeMn/E2j/hqlReYPENLO6rxqqmYt0zxJ5RvUV7DjlE5desgGSReVmSkFB9f2nF2xoRqY6jjlXLp0coNmTJik8QW/pdqWKR07fqKwoH9Fz5RA9muRIOi80lO9HLO9nCq6xnqWJJ3/UdtiF+n1yZM0/qUxGj7y3/ratFiZWcr0Un91fl3Hc8altgMAAAAAAAD8QhFUuIYCbq0of/9r0cHqRaVKrlz5+3QwyXPRqR9dMxr8WvUkqVJlZzDh2CH9kGUumaMLP6Xqgju/j77RslmfKjVf+nXv1/XBf1bqX0vmatrzXVRcd7yOHnOmEjJzpVJy/vuYYsdO15bzUtV2Y/Ryb0tnrlL10RtLtC/Hufzf/1mpf/8/e3ceHkWV6P//U50FYyCXBMYAwpXNsMwIjhsCIuigQQfvCD7oKMjo4CheIQ4oA6LswsAgcgVmRK5cNQYX8hNwQCHIKIIkgoAsyhJZh4BEIeGb0DRJJ9W/P6q70ykSqIQQEni/nqceUqdOLX269Y/zqXPOW29rxviHdJMtAalX1yo49MPO4JREkqTTucrNdZeUbUvR9C9ypbCWGvhaqj5JfVvzX5+mZ3u2CD2rYm14HhIefkTdXDv13hL7dEUebf3fyfrb8j2K6dhTA//0F42bPFWDfmWrVhazKtYSKVKhPRRq2Ut/GT681Pbii+P08sPX2SrWAJ4Nmj9ptpb8UE8dEx/U4JEvatr0/rrJXq8soc13PtcBAAAAAAAALnGEChdQWFiYVM7CuVUutrO6tJHVKb84Q8GX4At3adkqa8KeRjd2sOb+/2Vn3REtSZu0aIl/TiFJcn+p/3nyMT34wCN6fZtCpjdqpq63tSyZ5mfPLu0qOeucDmUF7lGob177i+bvkxRzu579785ljJQomVKpY+fO1voHkuTeqZ0hjypJbTt3sc7f8qmWBZYckOT+arYGDHxEfX7/hvWc7pNWezS+UV1aloyK2Ltrd8lJqmAbSlLuNi2b94aW7ShryMFZuNrp/oeuk75ZqLSfQhc+36WtO4vU8f4R6tfzFiU0q6eYaK9OFYRUaXy1GukH7fg+pExS3nd7dLTONWpuewO/bPGKbyQd3bOn9NoOOTv1Q8gwjEaN4qTsn5RXv55iQraoiCjFRAemTaou/mfeuV15ocXmYe1Yv0d5Xkk7t2urt50eGfGg7uzUTk3r11NU0SmdCq3f+Go1UpYyfwgtlDJ3hxQ4uQ4AAAAAAABwmSJUuJB89oLzs3fBM/rtfb+zbUO0KEuSYtV74L2KlZS7ZqoeHzJRr702UUn9R2pRttWJP/hB/wIKYR30+wFtg9cc8PxUvTZtpAYNnKP0YkntB+j3HSSprTq2l6RDSp48Rskff6ZFr43UgJGfqeDMNOCcCjfM1mtf+DvgC7dr7pDHNOjxkm3+Jklqqva/tC6++vVheu2Dz7QseaIGD3xLO+33vL6/nmgvqXif5j/7mEZPm6PpI5/UgNc2SZI6DnhQbSXp2nbqGCYpK1WTx6ZoWVqqXnv+MT2/6qQt1KhAG0r65q0xen3pp3p99Fx9U+o65xZx/YN6pJ1HG787HFIap7j6Uub2DVYnuVmk7DXvaEloB3jj7rrj2iJlpMzXxpwiSUXK+36x5qYdVtMePZUQUvVsOnb9taIOrND8tIPympIKrAWMs0L+jxB/R3e1z1un+Qu+1fGCwPPM1UsvTlCqfZDF2dSPU4yylLmzSF5vkf2oYx3v7KoGh1do7j8Dz3xYGW/M1dwl65RVJCkuTg10QFvX51gDDwoOK+PtFdoRepHGt6hbs3ytXbBAWwPtlzFf728PqePkOgAAAAAAAMBlilDhAioqrnwHaqV0eEpvTBugm2Ml98FNWrlqk/aelmLb9NP4Oc/p5itKqsb2nqaUkXepWaSUuztDK7/apaOFkWrW8zn93ySrY12K1d3PDVGP+Ejpx2368M05mr8mV12fH6u+5axvcDa5+/YrN7BzOldHj5XecvzzFbUdOFYPtY+U8vZp5YI5en3RdsX1/5v++/qQi0nW802Zpxd7NlNkca62fvWZVu/IVmFkM/UeMU/je1ufQg3v1Yght6tRpHTo21S9PidFq0/cpNEv9lEj+yUr0Ib/2dwfMFxTmSmRotRxwH2lFkaWrlHvP/VUg90L9dKI55U0fJRmb2mnbu1C60Sp85NDdX/jA0qeOEpJfx6ll+avV8RtgzX0nuAYinNr11/D/+tqHV81W88Nf15JL7ypAzf31R2hy1NEd9WgpF6K3/2hJoy0nmfy0my1+K/B6lfqmc6hZS/161CktW+M0nOTlso24MS5ln007LFbVLTW/8wjZ+r/+/Fq9RvyB7WPktS8jwYnxmjrh1P03J+fV9ILc7WpzS3qWOoiceo2eJC61dmu+f72m/Cvenr4vmtLqji6DgAAAAAAAHB5MjynC4Lv0/t8vuAmSaZpWvumKdPnk2maahDn76itofICc+dcZKZp6p8pK3T7PZ0V94vqb7NCt7U2QmRUrKJDOsLLUpiXK3dxpKJjohUZmG7Ixkmdqhb8DNGxirat5XyG4lwtG/2YNnaZpxG940umTSpVp1DuPLcKw6IVG3OuCzprw0K3W4qOLpkaqkoUyXPCI++5phnyepTnLlJUTD1FVDYeNIvkyfNI0fUUdZblP7zufHm84Yqqb1uUuSK8HnkUddb7OOXNy5cnrJz28bdLhJPPVBylmJgyriHn1wEAAAAAAACcivGvE1tTHc/JlcvlksswZLhcMgxDLpfV+WgYhrURKlwYPp9PH7+7XLff21VxDf/DfhhVLlffJC/Q6i3pWn3yXs2aN0Ct7FUAAAAAAAAA4CK6FEKFyr7fjHMwDEP3D7yXQKG6nHYrsnkH3dwyTspzW3PhAwAAAAAAAACqFKECLg2ebO36dpu2RnbX+JmPWws0AwAAAAAAAACqFNMfAQAAAAAAAABQDZj+CAAAAAAAAAAAXDYIFQAAAAAAAAAAgCOECgAAAAAAAAAAwBFCBQAAAAAAAAAA4AihAgAAAAAAAAAAcIRQAQAAAAAAAAAAOEKoAAAAAAAAAAAAHCFUAAAAAAAAAAAAjhAqAAAAAAAAAAAARwgVAAAAAAAAAACAI4QKAAAAAAAAAADAEUIFAAAAAAAAAADgCKECAAAAAAAAAABwhFABAAAAAAAAAAA4QqgAAAAAAAAAAAAcIVQAAAAAAAAAAACOECoAAAAAAAAAAABHCBUAAAAAAAAAAIAjhAoAAAAAAAAAAMARQgUAAAAAAAAAAOAIoQIAAAAAAAAAAHCEUAEAAAAAAAAAADhCqAAAAAAAAAAAABwhVAAAAAAAAAAAAI4QKgAAAAAAAAAAAEcMz+kCX2DH5/MFN0kyTdPaN02ZPp9M01SDuNjQ82ucvJNue9EFVZi1TSs/X6OtWzZqX26sWl7fVu1u+a1639JUkWH22jXYvk/12tJ9kuqry8ABurlmf81nqu3PDwAAAAAAAOCSF1M32l5UoxzPyZXL5ZLLMGS4XDIMQy6XNTbBMAxr334SHCrcp2VjH1Ofp8fo9dTPlP5Dro4e26f0VZ9q/pRn1OfxMVq2r9B+Vs2VvVMrV32mlau+1qHqzWWqRm1/fgAAAAAAAACoBQgVKqM4S4tGDNPr3+Za+5Hx6njbXbq7Z2d1bBxpleVu0+vDR2rRwVJnAgAAAAAAAABQaxEqVEJ26lTN32f9HXvLEKUsnKcpI4fo2WdHacq8VC0cc5caSVLxPs3/x6fyRw8AAAAAAAAAANRqrKlQUcXb9Hr/MVrmlhR/v2a98bhalbF2wq55j+m5pbmS2urZ5Gm6O6TZ3Ps+U/Kct7TyB7cKJSksUs3a9NTA555Sl6tCLhLw0yYl/+MNLduSLXexJEUq+tobNfCJoerdPmQOrqxUJT2dor2Seox+T3dvH6nJnx6Su/h2jV/6nG6WNW3Typmv6s2MQ9a1rmim3s+O0dNhKfrtlDWSmmnQ63PUt2nJZfVThubPeEtpu/33L+95S93/Yz1RPEfjXvtMe09b57Tq/KRGDLtLzfyDOQLc25boH28vVHqgPcr7fKrE8xfnateyN/S/CzdpV55/OqrIaLW95UH9acj9amu//I9rNH/63JLvRlL0NZ018Mmn1LtDzf7tAwAAAAAAAKjZLoU1FcJeemnMePuJAYFwQT6ffP79K6Oi7NVqlIJCr72oan23RNNX/CCvpI4DRqlf27Lbo+F1d+ne3vepb5/b1CI6Krhosztjhp56MVXbcrwqDlT2FSvv5x+09pMNiurcS+3qh1zoYKqSnpmttYfd8gbjn2J5c7K0cdUKHWnRS10DvfR5O7T8k23KlfQf/+8Hvbf2B/8516jHI110dXGWFj2fpNe35pVcqyhPmes+V96V/6HMvT9K+g/d0PtetYvxHz+YqqRn/qH0n0LuX97zhty/SfgRJad8oSNFJefk/nuDlu1tqPt7tFIgV3BnzNBTEz7WLn97RF4RqeKiwuDnO9b6Pt16tb/xKvz8bn0zY7BGL96nYwXFVlhxRbG8BV4d+/cWrVx5RAm/7aKrw/3X2vaG/vB8srYd86pYkYpuGKPIgtNy52Zp4+eflW7r09uU/OchGv/WGrkTuuuGRrakBAAAAAAAAABs6kTW7H5Ej+d0MDwI3cRCzZWX++99ssZCNFPH687y5npktGJjYxUbG6vowO/k2KeaPG2NNR1S43s1/q1UfbL0Yy2e+bhujvFPlzT6De0KpA3F2/T66BTtLZYU00FPz/TXf2uUejeWJLdWT5uolceCdw3aum2XmvUcolnz3lbKvD+qvaS9CyYGp21qdu8opaR+rE8+eltT+sVrZdom+yVK37/l/ZqR/LE+WfqxPkmepIda+p93kjUywS79i01qN2SmUpLfVsprQ9QlEFJs+lhpWf6/C7cp+XWrPaLbP665H32sxamp+uSDSeodL0lurVzwqbL91Sv6/IVb3tJra9ySotXx8ZlavDRVC1M/1sJJ/ump8tbo3U8DV8/VygWfKrdYUvxdmvJBqha+9bYWfjRPT7eXFVAs/7JkKqtvP9OHBwtVePqQFi3dFBzVAAAAAAAAAACXMkKFCioMmV4pooxpj84me9Wn2losSfF6aNRTurmhlTZEtr5fo4fcrmhJyvtUSzf4T9jwmZblWX92eWKMerf212/YWU+PHaBWklS8S8tWBXrpS0QnjtHcZ+9Sq8axim0cq2jt07ov/B3o8f004unOir1CUmSsOg58Wc/eaL9C6P3b6ukxj6ttIEOJ7aCBz/azOuazP9XKbaXOkiQ1um+sXkxsaQUrLe/SiyPusj6fDmnvIX+lyA56OvljLf7gbb016f6SaZGiO+iOW/zDgPbt1b+tPyr8/JHXD1HK0lQtTP5fje/bMjg6Ivr6nsGQY+9ef0oht4Jfbf2m+s/AKKSwePWelKrFSz7Wwon3KhgjXdtBN0dKUqTadii5NgAAAAAAAABcyggVqtHeg/7e9Iad1bVl6WORt3Sx1jyQtGuX1dF9aN9+f8mN6trZ1m3dtLO6+tcN2Ltr5xlvyt98fYfSBaf36pB/REOjrl2sQCIoWh1valuqRKH3vyJS7h1rlL4mZMvyypr1yK2dewJv+5do2952vYbxVghRhsjoWEWcztbeDWuUnpaq+dNGanqabW2MSjy/JVLRMRHy/rhL36xZo9UfvKHpI18NhjUlmqp9B3+SsPst/fGJkZo+L1Wrt+xTrlfB6auCGt6l8e+/p5QPFmjG70IXoAAAAAAAAACASxehQgXFNw10IB/SoSO2g2eVpaOBN/Sj66qu7ahCOq2PHrM66Y8eCZ6g6CtKjgcER0ocO1EyLU+AvRP82IngNELRUWe+Vx/b4MwVooP3P71NydNnaHKpbYl2BSqWtY6F/f7lcO9I1fiBv1Of/k8qadIMTZ6TokVf7VKOvWIlnl9ya9cHYzTggX568MmRGj99hqYv+FSrd+eW+XxtB/1Nz94Yr0hJhdm7tHppiqaPGaYBv++nB4fMUfpPthMioxUbnNsKAAAAAAAAAC59hAoV9csO6uj/c92GMub98Sv8aoYGPf6YBj0+RB/ulqSrFNfQf7C44IyRBaGi/SuAxzUMTLbjlTe4qnMZoqPPPf1Ow/qK9/9ZWMa1Ct22kQGh94+5S+OT37bWRyhj++v9lXxT/9inmjw6Rd/kSoptq75PPKcpr72thakfa26/ZqXrVuL5c5dN1HMLtim3WIptc6+eHjFJc5Pf0+KPZurRsh45rKnuHj9Pi1PnadaYx/VQzxvVNsZqWffBzzR5dNnrRwAAAAAAAADA5YJQoaJiu+tu//z97rR5+nBfGfFAcZYWf7BGR4/l6qinrdq2lqRINbvG30mftV1b7Ysrb9mkb/x/drzWmsqnWbPAHEnbtHV7sKbl2EatO2j92aht25K5/stzRbzi/LP7HPp2o21kQ6E2Zpy50HHw/nmHlF1sLTpdskUrOsq/EHUZoygc2bXNv8ZEWz396jQN+t3t6tjSut5Jz8nSdSvx/Du/94+laPO4Zr/ylHrf3kHNYqMVGVZYsn5CKYVy52YrtzherW65XwOfHasZCxZoxr3+1s3+WlvPXL4CAAAAAAAAAC4bhAoVFq0ejw9QqzBJOqTk4U9qfHKGDuXmKjc3V4cyUjX96WeU7O/w7zigvzr6p9ppdddv/WsB7FLy9CU6FMgjcrcp+a3P5JaksBt1x23+BZlvu0s9oiXJrWVz5lhv9EtSYbZWvr7QP/1QvLp3ty3QUKYOuuPOkjUDxi3Y5x8tUajcNbP1j8Di0CEib+uhLmGStEsfvP6ZskPyk9y0qRrQ73fq0z8wEqMSwiL8f+Qq50RI+U9LNP9j+4ROFX/+iMCv+0SuckJGN+R+/IY+tIc6hRmafn8/PTjwSQ39R4b1XfjlewIfPGS0yeltSh7ST336DdH8LWUmFAAAAAAAAABwyTE8pwt8gR2fzxfcJMk0TWvfNGX6fDJNUw3izvlO/EWVV/Yr6FXOnTFDT01bo9wypuIJaHbvJM14uoP8XeGSpEMfDNPgBdZCzAqLVGxshNzH3P4O8mj1GP2/GtG55Ax3xgw9NWWN/838SEU3jJZyc+X237dV/79r1u/9c/lkpSrpaWuKnh6jP9aIzsHLWNwZmv7kVK0OLFIcFqnosEK5C6PV47ZWWv3VNknNNOj1Oerrv2Sp+4dFKjY2WnUK3TqaZz1x7O2j9MaIztZnPNv9yzp2eo0m/36G0outa7e6vruaebbpm93ZioyOVm6eW9LtGr/0OWsR6wo+f+EXE9XnVf8IhiuaqcttTeX+fpO2/hSh2CvcynVLun2UPvE/6N7kJ5WU6l+54YpYNaorKfSz3jtJKU/7F8DOmKHfTllj/X3Lc1o85vZzT0EFAAAAAAAA4LIW45/6vqY6npMrl8sll2HIcLlkGIZcLuvtbcMwrH37SXAmuvNzSpk3Vg/dGK9o26K/0Y1v1KDJb2uuLVCQpGa/n6b/G3GXWl0hqbhQuf5AITL+Rg2a/PdSgYL893lj8gB1iY+0puc55g8Urmim3iPm6ZVAoOBEdGeNmDlKva/xd38XF8pdHKubn3hZz95e315bst+/uFC5x3KtTvbIeHXpP0lvDPcHCpVxxe3685R+6uhvi72bPtPqHbmKu3eSXrovzl67ws8fecdzmtGvrfX9nD6k9FUZ2no8Xn3Hj1XfwIiDEK0GztSM/jeqUaSk07nW9FV5hdIVzdTjiWl6IxAoSNK1HXRzpCRFqm2HlgQKAAAAAAAAAC4LjFSoEoVy5/rDgehYRTvsYS7M8wcEkdGKdXBSoTtX7kJJYdGK9S8gXGmn3cr1FFbseQP3V6SiYx0sDl0BgbZw/DwVef7iQrnz3CqswHMHv5uztXWhW7neCEffHQAAAAAAAABcCiMVCBUAAAAAAAAAAKgGl0KowPRHAAAAAAAAAADAEUIFAAAAAAAAAADgCKECAAAAAAAAAABwhFABAAAAAAAAAAA4QqgAAAAAAAAAAAAcIVQAAAAAAAAAAACOECoAAAAAAAAAAABHCBUAAAAAAAAAAIAjhAoAAAAAAAAAAMARQgUAAAAAAAAAAOAIoQIAAAAAAAAAAHCEUAEAAAAAAAAAADhCqAAAAAAAAAAAABwhVAAAAAAAAAAAAI4QKgAAAAAAAAAAAEcIFQAAAAAAAAAAgCOECgAAAAAAAAAAwBFCBQAAAAAAAAAA4AihAgAAAAAAAAAAcIRQAQAAAAAAAAAAOEKoAAAAAAAAAAAAHCFUAAAAAAAAAAAAjhAqAAAAAAAAAAAARwgVAAAAAAAAAACAI4QKAAAAAAAAAADAEUIFAAAAAAAAAADgCKECAAAAAAAAAABwhFABAAAAAAAAAAA4QqgAAAAAAAAAAAAcIVQAAAAAAAAAAACOECoAAAAAAAAAAABHCBUAAAAAAAAAAIAjhAoAAAAAAAAAAMARQgUAAAAAAAAAAOAIoUItcHz3Bu0/Zi8FAAAAAAAAAKB6GZ7TBb7Ajs/nC26SZJqmtW+aMn0+maapBnGxoefXOHkn3faiqvXjCk2ZtkpHQ8tc4Wpw9Q367YC+uik+PPTI+SvYoLkjF2pH8/s07c/dFWU/XlU2z1dSsjTofwapo/0YAAAAAAAAAOC8xdSNthfVKMdzcuVyueQyDBkulwzDkMtljU0wDMPat58EZ9r3HaeXx1vbuKfvU3tzu5KnTVDyZo+96vmpc4se+fMg/eWPFzBQAAAAAAAAAADAAUKFSrqybj3F1Le2Btd2Vb8RozWovbQxdZEyTVvlgsPKXL9BG9fvVHaB7Zif1+2vs2WPjtvqRMU1VYM6gb0ieU7ky+OVvDl7tGP9Bu04kB88dvz7Ddq4foMyDxeVXCDA61HW9xu0cf127T9WxnEAAAAAAAAAAM6C6Y8qyj/9UdOBr2jgDbZjOas0c+IKNQg5lv35bM1edlCeqHqKkkd57ggl/NdgDbnzav9JHu1fNEdz1mRL0fUUZXqUVxChmwaM1sAboiRla+XL07Xx+hEa3Tte0rdK/vMCnepwnbJ/2COvy6s8d5Ha9x2khIx39ElelHUNj5Rw/180pEecdZfN72hyynZ56tRTVESRPCc9ivpVf734x19bIyDs0x/tXKgJyTuV8NBf9PD1jJEAAAAAAAAAgPPF9EcoLa6dro2Tso5kW/s/rtD8f/6khIfGacbkcXp58lS9/FBzHfrnO1r5o1XFu/k9zV3j1a3PTLLq/PVl/aVHjDamvKmME6WuXsoOT2sNmzxJL0+eqmn9WmvHkvna2G5o8BrDOkcp8/MvlSVJBXv0r3/tUYMeQzX1r+P08sRJmvFcd1257Z9K22e/ssWbl688T76On2BEAwAAAAAAAADAQqhQpcIVGdKiWV+t19FmPXV/p3rBspjOPdU5JkdbtmRL8mhjxk55fnWP+l0bGA0Qrqa9h2naX4eqc/3gaWfoeFNXxfjvFdWyuRqZcbr+5sDoh3C1uLaplJej45JUp7V6j5ikYf91jSICF2gcr3jlK6+c4CKi0yDN+J9XNKRHybMDAAAAAAAAAC5vhApVqkiFIespHP9/+dLRVfrb2Al6Kbi9rQyPlHX4iKQ85edKjRo1Cb2I5ApXVHANhbJFBNMBh/IOKmPRfM2cOEEvvTBKScMXaqu9DgAAAAAAAAAAZ0GoUJVyduqHnHBd2yq+pKxlL/1l+PBS24svjtPLD18XeuaF5dmg+ZNma8kP9dQx8UENHvmipk3vr5vs9QAAAAAAAAAAOAtChapi5mvroi+1v34ndW5jFTVqFCdl/6S8+vUUE7JFRUQpJjpcUrziG0lHd25XXqlrHdaO9XuU5w0tPA87t2urt50eGfGg7uzUTk3r11NU0SmdstcDAAAAAAAAAOAsCBUq6dTJfOWdyFfeicPKXLNC86dM1vwdMer9pz5q6m/V+Du6q33eOs1f8K2OF0gyi5S9Zq5eenGCUndadTre2VUNDq/Q3H8elNeUVHBYGW/M1dwl65RVVWskx8WpgQ5o6/oceeW/x9srtMNeL9TOhZrwwgS9v8VjPwIAAAAAAAAAuEwRKlTSjkUT9NL4CXpp/EzN+WSdjjfqqSHjR+juwFrJkhTdVYOSeil+94eaMPJ5JQ0fpclLs9XivwarXzt/nZZ9NOyxW1S0draeG/68kkbO1P/349XqN+QPah9Yu/l8Ne+jwYkx2vrhFD335+eV9MJcbWpzizra64Xw5uUrz5Ov4yeqKtkAAAAAAAAAANR2hud0gS+w4/P5gpskmaZp7ZumTJ9PpmmqQVxs6Pk1Tt5Jt72oRvC68+XxhiuqfpTKW2PZm5cvT1hgaqQLwOtRnrtIEdH1FFXeQwAAAAAAAAAALoiYutH2ohrleE6uXC6XXIYhw+WSYRhyuayxCYZhWPv2k3BhRETXU8xZAgVJioipd+ECBUmKiPKv6WA/AAAAAAAAAADAuREqAAAAAAAAAAAARwgVAAAAAAAAAACAI4QKAAAAAAAAAADAEUIFAAAAAAAAAADgCKECAAAAAAAAAABwxPCcLvAFdnw+X3CTJNM0rX3TlOnzyTRNNYiLDT2/xsk76bYXXVCmaaq42NoC7QYAAAAAAAAAqJkMw1BYmEthYS65XNX73n1M3Wh7UY1yPCdXLpdLLsOQ4XLJMIxgGxmGYe3bT4JzXm+RCgq8KioqJlAAAAAAAAAAgFrA5/OpqKhYBQVeeb1F9sM4B0KFSgqECQAAAAAAAACA2ikQLsA5QoVK8HqLZJqmvRgAAAAAAAAAUMuYpsmIhQogVKgg0zQZoQAAAAAAAAAAl5CiomJeJHeIUKGCiov5YQEAAAAAAADApYa+X2cIFSqIHxYAAAAAAAAAXHro+3WGUKGCfD6fvQgAAAAAAAAAUMvR9+sMoQIAAAAAAAAAAHCEUAEAAAAAAAAAADhCqAAAAAAAAAAAABwhVAAAAAAAAAAAAI4YntMFwdUnfD5fcJMk0zStfdOU6fPJNE01iIsNPb/GyTvpthdVKY+nwF4EAAAAAAAAADWDES6FRVr/GmH2o5cGX7HkK5KKC61/q1BUVB17UZWKqRttL6pRjufkyuVyyWUYMlwuGYYhl8sam2AYhrVvPwkAAAAAAAAAUAuFXylF1JNcdS7dQEGyPpurjvVZw6+0H8UFRqgAAAAAAAAAALVdeF2ro/1y46pjfXZUG0IFAAAAAAAAAKjNwq+UXBH20suHK4IRC9WIUAEAAAAAAAAAaisj/PIcoWDnqmO1BS44QgUAAAAAAAAAqK3CIu0lly/aoloQKgAAAAAAAABAbcXb+SVoi2pBqAAAAAAAAAAAtZURZi+5fNEW1YJQAQAAAAAAAAAAOEKoAAAAAAAAAAAAHCFUAAAAAAAAAAAAjhie0wW+wI7P5wtukmSaprVvmjJ9PpmmqQZxsaHn1zh5J932oirl8RTYiyoma4EGPjBLmYH9hCQtere/moRUOZIyUH1n7w7uJwxdrOQBoTXOLX18Jw1f7t+5Z6a+Ht/F+tt+f9vxUudJSnxlvSZ0K9mX0jWu0zCl+ffsz2Z/dpV5jQun9P0T9er6ifJ/cmfWjtWtzwc+XRslfZSsR5pK0hG992gfzSrVcOeoE9ruIaw2Dj3Pz/bdVGe7AQAAAAAAoJaKrNn9tdWuMNdeUiFRUXXsRVUqpm60vahGOZ6TK5fLJZdhyHC5ZBiGXC5rbIJhGNZGqFAx5x0q2KSP76ThCul8XjtWt85rUxI0ZC3QwAfS1MveAV0uf8d2q7I7tJW1QANfkKbagowynXFv69orEgNBghUwKKTz+0jKQI3S1AqHIFVi7Vjd+ryCQcKRlIHqm5Z4RmhTLtvntQKK5uUHE2Xcr+SzW22zv1To4m+voUnaP9v+nR7Re4+Okv7qL1s7Vrc+f+DM4AEAAAAAAAAIVcNCha8+/ElJmeGaNSZOt9kPVgdChfPiJFRg+qOLrHnrNqX2jxw8ILVqUdIJ3rSFWpSqcQ5r55YfKFSU/d5r52pWZqIGBzvJu+ipoW2U9q/00FoXyRG9Ny9NCUMHBwOAJgMGKzEzTauzbFXLkf7mLGXeMzjYid9kwGAlKk1pa+01Len/st8vOSRA6KLEe6TMPQdK6o+fqzYfrdeEHsGiEE30yLshAUK3XkrUbu3eb6sGAAAAAAAAVIWfTuiBST/phsD29xM6bK8DlIFQ4aI6otVpu5X4m5IAoEmPRCUsH6aBKUckSenjhyktIVE9HL6tnv6vNCW03q9xnTrpVv82rpxO8XNau+LMeye0UfOQ3SbXNJf27pf1tBdfi2tCxyQ0V5sEpx3zR3Rgr0K+iyN671Frmqf9B8v4dFkLNHd5aMBybl3GM+oAAAAAAAAANcB3ObrhjUK17XOVNo/xb8/U19X2epVw20NXafPFGqWAakGocDGsHevv8O+jWUrSU6Hz5jftr+T1i9UrrY9u7eSfGsnp9D3+jvHM2buVuH69vl6/Xl+/kqi05wfqvdC39TNnqW8wdBir0uMMjui9R/3Hnk9T4pMh9+7WS4mZs/RGMKRI17jg+gMlMmdbz35rp066dXx1jWJooh6JbZQ2b0Ew4DiSMqqMNRDOLX289d2sSFysRUPblBptEKzz5iwpZJTCGdaOtdZNeKLcGmdlhUm23wYAAAAAAABQBb76vkgtutbV5F/Zj1i++jBkBMOkHH3lLz/8+c964PN8vfv3wLGf9e5P/oOhIx/OGPWQrxdDR0WEXFM6pXf//rPe/e5s56MmIVS4GLpNtDr816/X10/uVt/Qjv2sBRrYqY92P7leX69frKS9w8ro+D+7xFdC1gDoNlhJoW/rN+2v5MC916/XoqEHNLzU9ZvokXcDxxerzbxOwVETUhdNeCVRac8HAokVSnwlsdR0TU0GJJd8tsDzV2WwEAxk/NujJSFCkwFTlaSSwGSUBispoY3aVGD+qLTnO2lu68X6ev16JQ9oogN7diuhdejYjMAohTbq1aOcqCdrgQY+n6bEVyo3MuFIykANX56oVx2HSQAAAAAAAIBTp7T/mNT2qivtB6TAmgiKCo5gWNq1WEkhnfz713m0q3vgmDTzi3zrwFX19dGYq7S5T3jo5fzqaXJgRIT/mjM/PxVy3KeZX0qzxlylzWPqapgK9Y/vQg6jRiFUuNi69VKiDuiAfySBNa//TP/Cx030yLuLlZSQprnBjv2zaaLmrcqZrqccTXokKsFeGGS9/V/qTf3QQGT9RDU/eODMTvcg6/wqVer+622jOEIDkfVKHiDtzmyu5o469q220z0zQ9ZFsEZ+lJ5S6cy1F0rJWqCBD8yShi4OLl5dEdbi0FLSR+UsDg0AAAAAAACcl2LtyrGXBZzS/mOGht1RL1hy9a8i1CLHVHCG8YSo4AiHq38VoRbHih2MKjgVMrrhJ923zqf9PxeXqnFP98D0S1fq0WeuKncUBS4+QoWL7EjK3DPXLQhdoyDrC63ItHdsB6Yosk1rJKnLbxKVOXtuycgD/+LKiWV2cB/Rey/MUuY9vcrpwE7XG7NLr/kQ6kjKQPVNS9TU8tYVyFqgUWWdHxhtUJUjGM6QrnGdhkmhozYCR8aXvdZEl98kSsuHlZSX1Xb+UQplTmsUEiiUBBPOlQQKlRvhAAAAAAAAAJxbmNrGSbt+Ch0pcGEd/tytmYrU0uBIBcNeBbUIoUJ1s03f0zctUYtC3rbvMn5xqSl8bn1gllq8st75W+/dJvqnNAqsiyC9ur6kY/1IysCQ+1vrBnw9PnRx4pCphToNk0rdu/TxvnsG20YK2M5/IE29Pirj2bv1UqJs4UlVKNW2c9WmrHufTbeJ/jUoym67khCm7FEK6W/OUqZ9TYmQ4CfY9g/MUqZ2a9YDocetAEfBcv8WMr0TAAAAAAAAcP6u1KPdw7V/nbtkPYSQYy0a+kqmNJL01ReF2p8QUebCy199USi1izznAs/7f/ZJDcP89fL1j3U+exXUIobndEHwG/T5fMFNkkzTtPZNU6bPJ9M01SAuNvT8GifvpNteVKU8ngJ7ESrsiN57tI9mtZoZEmgAAAAAAAAAqLDISvbXfpejGxYXlezHRWrpM/V1tU7p3b+f1MzAFEnBcmuh5vtCA4GEKG1+yD9Vkv16Cjn3pxN64I1C/xRKhoZ1DdPMnyP851r329W9iqY8Ksy1l1RIVFQde1GViqkbbS+qUY7n5MrlcsllGDJcLhmGIZfLGptgGIa1ESpUDKHC+bGm+Nkt3UOgAAAAAAAAAJy3yoYKlXD48591389XlAQJNRGhwnlxEiow/RGqVZMBydZCygQKAAAAAAAAAFDrECoAAAAAAAAAAABHCBUAAAAAAAAAAOd09Z2/qNlTH6FaECoAAAAAAAAAQG3lK7aXXL5oi2pBqAAAAAAAAAAAtZWvyF5y+aItqgWhAgAAAAAAAADUVsWF9pLLF21RLQgVAAAAAAAAAKC28hVJZoG99PJjFjBSoZoQKgAAAAAAAABAbVZ0SjK99tLLh+m12gDVglABAAAAAAAAAGq7opOX54gFs8D67Kg2hAoAAAAAAAAAcCkoOiV58/1TARXbj146fMXWZ/TmM0LhIjA8pwt8gR2fzxfcJMk0TWvfNGX6fDJNUw3iYkPPr3HyTrrtRVXK47kM0z4AAAAAAAAAuAxERdWxF1WpmLrR9qIa5XhOrlwul1yGIcPlkmEYcrmssQmGYVj79pMAAAAAAAAAAADKQqgAAAAAAAAAAAAcIVQAAAAAAAAAAACOECoAAAAAAAAAAABHCBUqyDAMexEAAAAAAAAAoJaj79cZQoUKCgujyQAAAAAAAADgUkPfrzO0UgXxwwIAAAAAAACASw99v87QShXkcrkUHh5mLwYAAAAAAAAA1FLh4WFyuegud4JWqoSIiHB+YAAAAAAAAABwCXC5XIqICLcXoxz0jFdSnToRjFgAAAAAAAAAgFosPDxMdepE2ItxFoQK5yEiIjwYLrAyOAAAAAAAAADUfIZhBMMERihUnOE5XeAL7Ph8vuAmSaZpWvumKdPnk2maahAXG3p+jZN30m0vAgAAAAAAAADgooupG20vqlGO5+TK5XLJZRgyXC4ZhhFcCsAwDGvffhIAAAAAAAAAAEBZCBUAAAAAAAAAAIAjhAoAAAAAAAAAAMARQgUAAAAAAAAAAOAIoQIAAAAAAAAAAHCEUAEAAAAAAAAAADhCqAAAAAAAAAAAABwhVAAAAAAAAAAAAI4QKgAAAAAAAAAAAEcIFQAAAAAAAAAAgCOECgAAAAAAAAAAwBFCBQAAAAAAAAAA4AihAgAAAAAAAAAAcIRQAQAAAAAAAAAAOEKoAAAAAAAAAAAAHCFUAAAAAAAAAAAAjhAqAAAAAAAAAAAARwgVAAAAAAAAAACAI4QKAAAAAAAAAADAEUKF8+TNy1feiXx5vPYjVaTAf/0C+wEAAAAAAAAAAKqX4Tld4Avs+Hy+4CZJpmla+6Yp0+eTaZpqEBcben6Nk3fSbS+6IPK2LNSc9zfoaLCzP1wNru2hgY/1UovoQFm2Vr48XcuOSe0fmqTBnaOC5weZO/X+C/OVURCn3iNH6+7G/vJjG/T+3EXKOFYUrBoRf4sGPfOg2scEiwAAAAAAAAAAtURM3WDncY10PCdXLpdLLsOQ4XLJMAy5XNbYBMMwrH37STg3z+b5mvz2Bnnb9NGwFyZpxrRxGvenHmpwZJVmvvyOdnhsJ7ikHV+tU56tWJK8679Uhn0UgrlTqTMWakvdHhry0lTN+p+pmvbCIHXTBs19dbGyTH+9nQs14YUJen+L/YYAAAAAAAAAAFQ9QoWK8nyr1A936squQzXuj13VIj5KEXXqqcEve2nI6D5qX7BdqcsPljql0bWt1eDwOq05UKpYUr6+Tt+jmGtbq1Fo8bYNWutprfuf6qWEhuGSwhUV3073P9ZLCeYB7ThsVfPm5SvPk6/jJ0pGMwAAAAAAAAAAcKEQKlTUzs3aWNBad/e+xn5Eiu6qfk89qN+2uUKlllhodoNurJ+vTZtLhw3KWa+Nh+rp1hualy6vE64oZSv7x9LFatxTQyYO093NrN2IToM0439e0ZAe9WwVAQAAAAAAAACoeoQKFZR9JFtq2Fwty1geQZIatLlFN/0yXhGlSq/RzTfF6fj6r5QZmLpIUtbqddpfv4Out2UKatdTiY09+nzOGM18f5V2/JAjb8h5AAAAAAAAAABcDIQKFXT0aI69SDrwpd5/+52Sbcn2M9ZPiO9yi1oUfKvP1wfWPziojVvy1aJzdzW11ZXidefIlzWu33XS7lWa+/cpeu75UZry5irtr551qAEAAAAAAAAAOAOhQgU1ahQnmaUmNyrl1I87lfHdYZ2xdHJcV3VrI+3Yst2aGun7r5RxsrW63R5nr+kXrgadH9Sw8VM1a9o4/WVAJ8XsX1H2QtAAAAAAAAAAAFQDQoUKim8SL+Xs0fehAxaad9fDj/1BDz/2ByW2LmdeJEXpptt/rajd6/T1CWlrxrfyXHuDOpZXPVSdemp6Qx8NGd1HCZ7t2rjTX75zoSa8MEHvbyFlAAAAAAAAAABceIQKFXV9F3WLOqy0Rd+eORrBvUFpG/PVoH07xduPSdIvb1PnmMPauP5Lbd0Rrs6332Jbe8Gyf8l0vTRtqbLsB2y8efnK8+Tr+Iki+yEAAAAAAAAAAKocoUJFudqpd7920ncLNHnWYm09lK+8E/nK2rxYc6Ys1FZXO92feI39LL9rdNP19bT/8+X6PqaTuv3SftzSokNrRfz4peb/3wZl5RVJKpLn0LdKnbVYmVHX6aZ2Vr2IToM0439e0ZAe9eyXAAAAAAAAAACgyhme0wW+wI7P5wtukmSaprVvmjJ9PpmmqQZxsaHn1zh5J6tnJWPPDyv0zrurtSMvMEogXA2u7aGHH+2lhJhArWytfHm6Nl4/QqN7+8cu5KzSzIkr5OkZUvbjCk2Ztlk3jRytuxtbRXlbFmt+6rpSCzNHxF+ngX/6gzo2LCkDAAAAAAAAANQOMXWj7UU1yvGcXLlcLrkMQ4bLJcMw5HJZYxMMw7A2QoXzVJCvPI8UFVNPERdg3IfXnS+PV4qIqqeoOvajAAAAAAAAAIDa4lIIFS5AN/hlpk49xdS/MIGCJEVEW9cnUAAAAAAAAAAAXGwXqCscAAAAAAAAAABcaggVAAAAAAAAAACAI4QKAAAAAAAAAADAEUIFAAAAAAAAAADgCKECAAAAAAAAAABwxPCcLvAFdnw+X3CTJNM0rX3TlOnzyTRNNYiLDT2/xsk76bYXXVCmaaq42NoC7QYAAAAAAAAAqJkMw1BYmEthYS65XNX73n1M3Wh7UY1yPCdXLpdLLsOQ4XLJMIxgGxmGYe3bT4JzXm+RCgq8KioqJlAAAAAAAAAAgFrA5/OpqKhYBQVeeb1F9sM4B0KFSgqECQAAAAAAAACA2ikQLsA5QoVK8HqLZJqmvRgAAAAAAAAAUMuYpsmIhQogVKgg0zQZoQAAAAAAAAAAl5CiomJeJHeIUKGCiov5YQEAAAAAAADApYa+X2cIFSqIHxYAAAAAAAAAXHro+3WGUKGCfD6fvQgAAAAAAAAAUMvR9+sMoQIAAAAAAAAAAHCEUAEAAAAAAAAAADhCqAAAAAAAAAAAABwhVAAAAAAAAAAAAI4YntMFwdUnfD5fcJMk0zStfdOU6fPJNE01iIsNPb/GyTvpthdVKY+nwF4EAAAAAAAAADWDES6FRVr/GmH2o5cGX7HkK5KKC61/q1BUVB17UZWKqRttL6pRjufkyuVyyWUYMlwuGYYhl8sam2AYhrVvPwkAAAAAAAAAUAuFXylF1JNcdS7dQEGyPpurjvVZw6+0H8UFRqgAAAAAAAAAALVdeF2ro/1y46pjfXZUG0IFAAAAAAAAAKjNwq+UXBH20suHK4IRC9WIUAEAAAAAAAAAaisj/PIcoWDnqmO1BS44QgUAAAAAAAAAqK3CIu0lly/aoloQKgAAAAAAAABAbcXb+SVoi2pBqAAAAAAAAAAAtZURZi+5fNEW1YJQAQAAAAAAAAAAOEKoAAAAAAAAAAAAHCFUqI3WjtWtnTpZ26MLdMR+vDr4n2HcWvuBmi19fCfd2mms0iUpa4EGduqkgSnV2ILV8d3x3QAAAAAAAAC4QAgVqpu/s/RsHctHUgaWHD+jYzVd454/oKSP1uvr9YuVpFl6oyKdx6Gd2p066dbx6bYK6RpX7r1LpP8rTVKiErvZjzgQaIMz7h0i8Jxnq1MGq2O6vLZNV9pySff0UhdJR1anKVNt1KtHk5BzB+q9rED9I3rv0Yp1zp/r/uf13QUE2u+M61su2Hdj++1WpF0CSv22Sz3/Wb6btWPL/qxrx5b9nAAAAAAAALhovvrwJ90wKUdf2Q/gkkGoUN2a9lfy+vX62r+92mqW+oZ2jK4dq75piVoUqPNRkjR7VElHd9Z+7U9IVI+mktREPRLbaP/BM7pby9dtYvDeX69frKS9w0KCgyN679Fh2j90sf/4TLWY3aeMzmOrAzhh6GB1sR86hyMpA3XrC1Kve+xHQlmd74n3tLEfOLu1YzVcM0s+m+xtu0JpaqOkJ7pIOqLVabulewbrkaYlVRISpBWrK9CeIY6kDNTwvUnB7+6M7/Z8vzvJ+o5emKUW9yTaD/hdqO8mXeMemKUWr5T8Lvc/HxrAnFv6+E6lf9vv9pcV5zj4bjJ360DJpQAAAAAAAHC+fjqhByb9pBsC299P6LC9DlAGQoWLrHnr0h3nRw4ekFq1KOlsbdpCLUIrNG2hFplpWp2lYOdri2uCtSuoiZq3CtldO1ezMhM1eEDgel301NA2SvuX7W3wtSuUptB6DmUt0Kg9g/X1u/3V3H4sRPr4YUq7Z7Ceam0/cg7dJurr8YGudKvTXnv3B99wT/9XWklHddYXWpEZ6MQOkZioFrPnWlPwVEi63pi9W4lPlnSUd3kiSQnLV5Rcqwq+uyMpozRLSXrqN/YjfhfouzmSMldpCUl6KjD6oWl/Db5nt/MAJmuB5u5N0qLQICHEWb+bFm2UYD8h8N8KAAAAAAAAKu67HN3wRqHa9rlKm8f4t2fq62p7vUq47aGrtHlMnG6zH8Alg1DhorI6lhN/U9Kx3aRHohKWl4weSB8/TGnBt9slqYsmvNJcsx7opFs79dGsVjM1oTLT3Ej+t9pLpv+RJCW0KdWp3OSa5qU65uXvAK7Mm/Bq2l/JwU7/cqwdq+HLE/XquepV2BEd2FvSUX1kdZoybaMULHfoqaEHlHbG6Awn2qhNaALUtIVa6IAOBN/mP8/vLmuBRs2Wkv5adse8LvR3Exp2+QOxzD3OOvaPrE5TZitp9aNlTa3l9Ls5c8qjhNZlRSAAAAAAAAA4m6++L1KLrnU1+Vf2IxZrCqPAVjKV0eHPf9YDn+fr3b8Hjv2sd3/yHwwd+XDGqId8vRg6KqLU9Ein9O7ff9a7353tfNQkhAoXQ3Bdgz7WW+ehHctN+yt5/WL1SuujWzt1sqbzsb/dHTqF0bk6gstQMq+9NSIg2HnbrZcSM0Pn+U/XuOfTSk706zJ+vZIr+ia8I0f03rw0Jb4yseKd4nZZCzSq1MiBJnrk3eTgZ20yILnctmvSI1H755Uxh/9ZdVHiPbs1682SDu/08cN0Ruudx3eX/uYsaejUsjvb/S7Ud2OFXXNDpuGy2tepA3t2S8vTpL+GTusVmFrrHN9NSDiT/q80KXT0BwAAAAAAACrolPYfk9pedaX9gOQPFJIUFRzBsLRrsZJCOvn3r/NoV/fAMWnmF/nWgavq66MxV2lzn/DQy/nV0+TAiAj/NWd+firkuE8zv5RmjblKm8fU1TAV6h/fhRxGjUKocDGEdiw/uVt9O40t6STNWqCBnfpo95Mlax7cGnq8CjQZkBy8/6LWc0MWwe2iCa8kKu35wNvkK5T4SuIZb6hfKEdSRlX87f0yWfP/a+jiyl2raX8NbhWYpsi5LuNnKnH5sOCb+Gm/malENVfzs4QAjq0dq+F7kzT1AgQGjjTtr6lD5R9l0Um3viANHtqmQiMFEkIDkab9NfgeVXBNiSM6oCS96h9JcmBPxaePAgAAAAAAQLF25djLAk5p/zFDw+6oFyy5+lcRapFjan+gICEqOMLh6l9FqMWxYgejCk6FjG74Sfet82n/z8WlatzTPTD90pV69Jmryh1FgYuPUOFi69ZLiSFT5KS/OUuZ9wQ61pvokXcXKykhTXODU8VUrSY9EpUQughuqYWcJ6r5wQMV6jiuPP/ivCGd8n1nB/YrsiBwusZ1Gqa0e2ae1xv7XX7TXLPe/MJefA5dNCHYdus1ocV+7bdNJ1VZ6f9KkzJnqa+/bW59vmT/zIW0L4zQMOrrd/tLFejUr8hUSWdqrjYJkvZ/od2t71CXHonab1/nAwAAAAAAAA6FqW2ctOun0JECF9bhz92aqUgtDY5UMOxVUIsQKlxk1gK4oWsmqPQaBllfaEWmHHfeVpQVYvQqc7qhIykD1TctsZrejm+iR94t6ZD/ev16LRraRrpnpr5eXzI1jhQyfVTI3PqWkkCholMLnaHbYCXtTdMKe7lTWQs08IE09TrL+gcV0WV86bb5+pVEKSFJi9avr9xojPOUPt6amst+7/TxVuhhDzrKmj5prn09j7ParRXz0qRrmljTIS1fcebUUgAAAAAAAHDgSj3aPVz717lL1kMIOdaioa9kSiNJX31RqP0JEWUuvPzVF4VSu8hzLvC8/2ef1DDMXy9f/1jns1dBLUKoUN2C6yn438ZPS9SikDUTuoxfrCSFvJH+wCy1eKXqOo5L1lOwtuEK7YA/ovdCFtLtu2fwmes5nJd0jQvcd7lKRiWcEQ5UzpGUuVZHc8hoh7I6uJ1poh6JUmamvbx8pdr2gd0abA9DarRzfTclx2/t1ElzWy+uWHDTtL+Sg4tUd9KtD6Sp10cVa5/MzOZK7Cb/+hVpSltuWxgbAAAAAAAAzvwqTpv7hGnmGyGLJ/vXTbjtoboadswTLE86FqmlD5VMh6TMkGOK0kd3+tdm+C7HKl9cJOUU6r7Qa94RqRbB806rbdey1l1AbWF4ThcEYyGfzxfcJMk0TWvfNGX6fDJNUw3iYkPPr3HyTrrtRVXK4ymwFwEAAAAAAADAxRFZff21hz//Wff9fIU2h4YMNU1hrr2kQqKi6tiLqlRM3Wh7UY1yPCdXLpdLLsOQ4XLJMAy5XNbYBMMwrH37SQAAAAAAAAAAAGUhVAAAAAAAAAAAAI4QKgAAAAAAAAAAzunqO39Rs6c+QrUgVAAAAAAAAAAAAI4QKgAAAAAAAABAbeUrtpdcvmiLakGoAAAAAAAAAAC1la/IXnL5oi2qBaECAAAAAAAAANRWxYX2kssXbVEtCBUAAAAAAAAAoLbyFUlmgb308mMWMFKhmhAqAAAAAAAAAEBtVnRKMr320suH6bXaANWCUAEAAAAAAAAAaruik5fniAWzwPrsqDaECgAAAAAAAABwKSg6JXnz/VMBFduPXjp8xdZn9OYzQuEiMDynC3yBHZ/PF9wkyTRNa980Zfp8Mk1TDeJiQ8+vcfJOuu1FVcrjuQzTPgAAAAAAAAC4DERF1bEXVamYutH2ohrleE6uXC6XXIYhw+WSYRhyuayxCYZhWPv2kwAAAAAAAAAAAMpCqAAAAAAAAAAAABwhVAAAAAAAAAAAAI4QKgAAAAAAAAAAAEcIFSrIMAx7EQAAAAAAAACglqPv1xlChQoKC6PJAAAAAAAAAOBSQ9+vM7RSBfHDAgAAAAAAAIBLD32/ztBKFeRyuRQeHmYvBgAAAAAAAADUUuHhYXK56C53glaqhIiIcH5gAAAAAAAAAHAJcLlciogItxejHPSMV1KdOhGMWAAAAAAAAACAWiw8PEx16kTYi3EWhArnISIiPBgusDI4AAAAAAAAANR8hmEEwwRGKFSc4Tld4Avs+Hy+4CZJpmla+6Yp0+eTaZpqEBcben6Nk3fSbS8CAAAAAAAAAOCii6kbbS+qUY7n5MrlcsllGDJcLhmGEVwKwDAMa99+EgAAAAAAAAAAQFkIFQAAAAAAAAAAgCOECgAAAAAAAAAAwBFCBQAAAAAAAAAA4AihAgAAAAAAAAAAcIRQAQAAAAAAAAAAOEKoAAAAAAAAAAAAHCFUAAAAAAAAAAAAjhAqAAAAAAAAAAAARwgVAAAAAAAAAACAI4QKAAAAAAAAAADAEUIFAAAAAAAAAADgCKECAAAAAAAAAABwhFABAAAAAAAAAAA4QqgAAAAAAAAAAAAcIVQAAAAAAAAAAACOECoAAAAAAAAAAABHCBUAAAAAAAAAAIAjhAoAAAAAAAAAAMARQoXz5M3LV96JfHm89iOXuWN7tHF3jr0UAAAAAAAAAFCLGZ7TBb7Ajs/nC26SZJqmtW+aMn0+maapBnGxoefXOHkn3faiCyJvy0LNeX+DjhYESsLV4NoeGvhYL7WILl23VvtxhaZMW6WjrtYaOHmwboqyV5D0/QKN/N9v5WnYUy++1EvxKtLGv49S8g/X6OGJQ9U5xn5C5Xnd+fIoSjHR4fZDAAAAAAAAAFCjxdSt2Z3Hx3Ny5XK55DIMGS6XDMOQy2WNTTAMw9q3n4Rz82yer8lvb5C3TR8Ne2GSZkwbp3F/6qEGR1Zp5svvaIfHfsalYI/Wrilr5IFHG9d8q9IfOVw3PTpUQ/78WJUGCpK04/0Jeun97fZiAAAAAAAAAEA1IFSoKM+3Sv1wp67sOlTj/thVLeKjFFGnnhr8speGjO6j9gXblbr8oL9ykTz+qZG8OXu0Y/12ZYf0vnuP7dGO9Ru08fvDZ0yf5M3Llyc4CsKvIF95eUW2shzt37JBG9dv1/4c27HyFBxW5voN2rh+p7Lt9yhTnNpfW0/7M75Ulv3QiQ1au7ue2l8bV7q8TpwaxZUMawh+Hq//ebfsUV4FP7M3L1+nvJK8p6wpp0LrmkU6/sN2bVy/QZmHPCprNiqvu6KfGwAAAAAAAAAQKuyll8aMtxcGBKZBks8nn3//yqiy5r+pOQoKy+pOrkLbP9X8zfV1/3/3VLMI27HI/1SL5vX1i7iG+sVVdRWmrXp/1Gx9/eMhLUldpa37f1JMh85qEX1Yn/9timat2KzMgwe0a8s6ffLZt6rzy65qESNJ2frX9CladKqjuiXUDV4+e8UMTfjYoxtub626kjyb39GEmR8pPfPf2rtnu9JXrtJWXzt1vbb84QHZn8/W1NdX6Ot9/9be3Ru16tMvtTeyjW6xbnymk3u0dt2P+mXPX+n4pm1yte2hhPolh/O+XKxFx9ronvbHtPVoY93uf7bSz+r/PFluff/RQn25+4C2b07Xyn9trcBnrqetb8zWPw8Wqij3oDZuXK8fwtrplhZ1pWPrNH/KHH24IVP792fq6zUrtWqLqeu7tFZdw3+d5dM1Yd5qbf33Af2wa6NWrfhSP/+iszo2jpCUo4xZUzTnK1MdurRUyd0BAAAAAAAAoOrUiYy0F9UoHs/p4DRHoZuY/qjyso9kSw2bq2U52UqDNrfopl/GKzRvyPz5Kg2dPlXTJg/TnY2l4xkrtNbTToPGT9XLE8fp5b+O06DWx7Vkyboy37Av20GlLdmuiM5DNWPyOL08cZJefridPN9t0P7y3sL/cYXm//MnJTw0zjpn8lS9/FBzHfrnO1r5o72yTfMu6twwX2vX7AwpPKg1GYfVoMMNahZSWp6jO3PUeaT1madNGaxu0dlakuZ0KqN4dUsap0faSGrTVy9PHKchd8ZLytbKuYuV2aSPxk2bpJcnTtKMSf3V8cQqvfq+/1k967Q4LVvX9hunaROtz/3inXHa/81mHZck5ev4CY88x3J0qvRNAQAAAAAAAAAhCBUq6OjRMtYVOPCl3n/7nZJtyXblhRzueOd9ahqSMjToOkjjxv9BHYODA6LUqHGMlJuvMq5+Vl53jvJM6++oTn/QuBF91KKOvZYl66v1Otqsp+7vVC9YFtO5pzrH5GjLluxSdc8Ur1tvvlqeLV9qY2AKp32b9fWJq9WtxzW2umWLuaFnyWeOaK3bb4iTjhzWue58VvvSteZYnH7Tt6saBH7N0b/Ww71by7MpXVv9bSNJnty8YGgT33uYxj3VVQ0kSdeo99hXNOuvD6pFSXUAAAAAAAAAgA2hQgU1ahQnmeWPJzj1405lfHe41MLFEfZpklSk45tXKPXv0/XS2DF6bvjzmvx5ReOEa5R4/3XStgV6aeQYTZkxX8vWnLlOQajj/y9fOrpKfxs7QS8Ft7eV4ZGyDh+xVz9DzO1d1V57tHGL9ekyv1qvvDZd1c22nEJ5roy6onRBVfz6TuQoT/GKb1y6OKJlczUys5WdLSmqq/okxitr1XQ9N3KM/vb3hVq5+bC8IYEDAAAAAAAAAODcqqJb97IS3yReytmj70MzgObd9fBjf9DDj/1Bia3LmRcpRNaSv2lCynrlXdNFjzw6ROPGT9WLPR32zIeIuuEPennaJP3lsV66qYlX25bO1UvjFyrzbJ3lLXvpL8OHl9pefHGcXn74OnvNM0XdojuvD9eO9A3KM7/V11uK1P7660pN9VRj2IKf+HtGaMa00Rr2cHe1Dz+sNSkzNWrWl6VGlAAAAAAAAAAAzo5QoaKu76JuUYeVtujbUqMRJEnuDUrbmK8G7dsp3n4sKFs7vstRox5PaFDvrmp/bbxiYsLl9ZTuBA8Pk055Tpcqs0+95M3LUV5RlJr+sqvufniwRv+5uxq5N2vr7lLVgho1ipOyf1Je/XqKCdmiIqIUEx1ur16mhNs6KebQZm1cvVkbI36tOzudO0RxyslnPkPjq9VIP2jH96WL877bo6N1rlHzxpJUJE92jjx14tTi+p7q/dQwvfxQO3kPbNbWE6XPAwAAAAAAAACUj1Cholzt1LtfO+m7BZo8a7G2HspX3ol8ZW1erDlTFmqrq53uTzzbGgMximsgHf1+s7IKJKlIed8v1nsZ+SF14pXQpp7yMhZqyfc58rjzlbVmrpb8ENLx79mg+eOnaO6yndaaCmaRsjbt0lHX1WpqmwooIP6O7mqft07zF3yr4wXWOdlr5uqlFycoNXT95bNpeYNurX9YaWk/qEGn25RQZb8gB59ZUoP/qCdl/aDMgiJ5vZIad9cd1xYpI2W+NuYUBdtzbtphNe3RUwmSdGCp/vbXmXpnTba1poI3Rxu3H5CirlbT+pKUo4xZYzRyxqrzW98BAAAAAAAAAC5xYS+9NGa8vTDA5/MF/pDPv39lVNW9mX4hFBSeZVGBKhLR+Abd1srU/q/XaeXqL/T56i+1buuPUvM7NeiZB/XL4DrIR7V1xXap493qGOzoj1CT9r/Qz/9aqtRPV2r5ilVa++/G6tHBo105jXX77a1VV1JMm2tV5/vVWv7Fl1r1+ZfaXtBVD3T4Sd9m++tEXK1fNj2h9E+W6Z/LV2p52iqtO1JX3R4frMT/LGdCosj/VMc2LmWuWqr/75MVWp62Smv3eJXQ+0n94ZbgqtGlndyjtet+VJPbuqlVPUmqr0YF32vlrjD95vf3+cskd+ZarT1a8vyl993auyZdRxp1VbeEusFL288552eWFNP8P/Tzlyu05NNV+vpUG935y4Zq9us2qrPrc324ZIWWr1ilz7f8qAa3Paln/us/ramZ6rdTu8jvteqfn2rp8pVa/tla7TjdXA/8d2Cx7J+0NW2ddufF6aaev1Rs8AkBAAAAAAAAoOrUiYy0F9UoHs9pGYZxxiapZN9zusCfHFihQWCTJNM0rX3TlOnzyTRNNYir2V2ueSfd9qILqyBfeR4pKqaeIir41r43L18eRSkm5ixTD3mL5A0LP+u1HV3HxuvOl8cbrqj6UTVvTQQnn9ntkaJtz+71KM9ddJbvokieEx55KzDdEwAAAAAAAABUlZi60faiGuV4Tq5cLpdchiHD5ZJhGHK5rM5WQgUAAAAAAAAAAKrRpRAqlPk+NwAAAAAAAAAAgB2hAgAAAAAAAAAAcIRQAQAAAAAAAAAAOEKoAAAAAAAAAAAAHCFUAAAAAAAAAAAAjhie0wW+wI7P5wtukmSaprVvmjJ9PpmmqQZxsaHn1zh5J932ogvKNE0VF1tboN0AAAAAAAAAADWTYRgKC3MpLMwll6t637uPqRttL6pRjufkyuVyyWUYMlwuGYYRbCPDMKx9+0lwzustUkGBV0VFxQQKAAAAAAAAAFAL+Hw+FRUVq6DAK6+3yH4Y50CoUEmBMAEAAAAAAAAAUDsFwgU4R6hQCV5vkUzTtBcDAAAAAAAAAGoZ0zQZsVABhAoVZJomIxQAAAAAAAAA4BJSVFTMi+QOESpUUHExPywAAAAAAAAAuNTQ9+sMoUIF8cMCAAAAAAAAgEsPfb/OECpUkM/nsxcBAAAAAAAAAGo5+n6dIVQAAAAAAAAAAACOECoAAAAAAAAAAABHCBUAAAAAAAAAAIAjhAoAAAAAAAAAAMARw3O6ILj6hM/nC26SZJqmtW+aMn0+maapBnGxoefXOHkn3faiKuXxFNiLAAAAAAAAAKBmMMKlsEjrXyPMfvTS4CuWfEVScaH1bxWKiqpjL6pSMXWj7UU1yvGcXLlcLrkMQ4bLJcMw5HJZYxMMw7D27ScBAAAAAAAAAGqh8CuliHqSq86lGyhI1mdz1bE+a/iV9qO4wAgVAAAAAAAAAKC2C69rdbRfblx1rM+OakOoAAAAAAAAAAC1WfiVkivCXnr5cEUwYqEaESoAAAAAAAAAQG1lhF+eIxTsXHWstsAFR6gAAAAAAAAAALVVWKS95PJFW1QLQgUAAAAAAAAAqK14O78EbVEtCBUAAAAAAAAAoLYywuwlly/aoloQKgAAAAAAAAAAAEcIFQAAAAAAAAAAgCOECrXR2rG6tVMna3t0gY7Yj18GjqQM1K2dBuq9LPuRC+wyaPuL1rYAAAAAAAAAajxCheqWtUADA53S5XRMW526JXUGpoTWSNe45w8o6aP1+nr9YiVplt5YG3L4XEI7xTt10q3j020V0jWu3Hs7YPt840o92xG992jIve0d1/ZnK/cZj2h12m4pIVE9mpaUpo+3X9O6X+lnOLvSbT9Wpe98nm0fFGiHinXcW5+vvLY9R9ufV9uW145H9N6jFfsMAAAAAAAAuLR99eFPumFSjr6yH8Alg1ChujXtr+T16/W1f3u11Sz1De3YXTtWfdMStShQ56Mkafaoko7brP3aH+zwbaIeiW20/2AFOv67TQze++v1i5W0d1hIcHBE7z06TPuHLvYfn6kWs/uU0ZlcniN674U09frIf/1XEpX2fGincxM98m7JZ//6leaa9UBIx32pZ/M/X4KU0Lp58A6SpKwvtCJTSnyyv5qUPqKEBGnF6gq0R6i1Y9V3dnO96r//oqEHNDw09Dnftvc7kjJKs1olKtF+4By6jA9pm4+StL9U256j7augbSvzWQEAAAAAAFBD/XRCD0z6STcEtr+f0GF7HaAMhAoXWfPWbUrtHzl4QGrVoqRDt2kLtQit0LSFWmSmaXWWgm+Vt7jG3v3rVBM1bxWyu3auZmUmavCAwPW66KmhbZT2L/vb7OVpokfeTdYjgTfcu/VSonZr935btYAWbZRgLwuV9YVWlHoey5HVacpMSNJT3UoVWxIT1WL2XNsIAyeO6L15aUoYOlhd/CVNBgxWYrCtq6jtsxZo1Gwp6Yle9iMVY/9dVLTtK9S2tt9J0AHtzrSXAQAAAAAAoMb7Lkc3vFGotn2u0uYx/u2Z+rraXq8SbnvoKm0eE6fb7AdwySBUuKisjunE3wS6saUmPRKVsLxk9ED6+GFKKzUVTRdNeKW5Zj3QSbd26qNZrWZqQlmd646kK215G/XqEdKxnNBGoe+uN7mmubR3/xlTNFWFI6vTlHlPr2Anvl36m7OkkE5+i7/NyniT3nKHnhp6QGmOR1eUVjokaK42CaEd8+fb9kf03guzpKFTSzr/K2vtCtvvomIq17YqY8qj5mpeyWcAAAAAAADAxfHV90Vq0bWuJv/KfsRiTWEU2EqmMjr8+c964PN8vfv3wLGf9e5P/oOhIx/OGPWQrxdDR0WUmh7plN79+89697uznY+ahFDhYgjOb99Hs2R7K7xpfyWvX6xeaX10a6dOGq6Z+vpdWydv6FQ248vrki9fyboBw5R2z+DSb7dnhq4TkK5xz6eVnFhBViBif+u9ZM2GvrOlpCfKef6sBZq7/Mw36QNTKJ2tM79Jj0Ttn3fmWhVnZ01nlBZy3pGUUZplfxP/fNp+7VzNUpKmnvGZnApZk+L5tLN2/pfd9n6VaNvmrdsoc88B/wiH3ZWfYgoAAAAAAAAX2SntPya1vepK+wHJHygkKSo4gmFp12IlhXTy71/n0a7ugWPSzC/yrQNX1ddHY67S5j7hoZfzq6fJgRER/mvO/PxUyHGfZn4pzRpzlTaPqathKtQ/vgs5jBqFUOFiCO2YfnK3+oYuCJy1QAM79dHuJ/3z3u8dVsaCweenyYDk4P0XtZ4bslh0F014JVFpzwcW8l2hxFcSS0/H5NCRlIEavjxRr9oDEXXRhOC8/oO1+4GyFgC23qQ/2yiGs2raX4NbhUxb5FCTAVOVpFnq6w89RmmwkhLaqE3peYYqyb/I81/t7VERoWtSLFabeWUvpF1+21vOq23371aLV2aqRdoXOpK1X/ttI1sAAAAAAABQ0xVrV469LOCU9h8zNOyOesGSq38VoRY5poKTeSREBUc4XP2rCLU4VuxgVMGpkNENP+m+dT7t/7m4VI17ugemX7pSjz5zVbmjKHDxESpcbN16KVEHdMDfAW51+Aam1WmiR95drKSENM0to/O4KjTpkaiEzN06ECgotaDvRDU/eODMxXzP4UjKQGsUwkcTz9Fx3UWJ95SxAHDWAs1d3qb8UQwOdPlNc8168wt78TmUXkg6eYC0O7OKpvdZu0Jp2u2fOsk/SiSwH7pQt2PWyIrMPcFvTnLS9pVs2ybXWL+B9H9Jid26KLFVmlaXt14DAAAAAAAAarAwtY2Tdv0UOlLgwjr8uVszFamlwZEKhr0KahFChYvsSMrcM+fGD13DIOsLrci0z/Vfdc721vqRlIHqm5Z45nQ9WQs0sFOnkBEOJUo6tUMWDS6Pv4O71JoOwWcKmZapMroNVtLeNK2wlzuWrnGdhkmvlNM5X1Glwpr1+nr9TCWqjZI+sk2jdJa2LS1db8wuvR6Hk7Y/r7bdO1dz91ojE5q3llb8a7e9BgAAAAAAAGq8K/Vo93DtX+cuWQ8h5FiLhr6SKY0kffVFofYnRJS58PJXXxRK7SLPucDz/p99UsMwf718/WOdz14FtQihQnULrqfgX1cgLVGLQqap6TJ+cakpeG59YJZavFL2PPeVUbKegrUN18yQTu2QOfs7dVLfPYPPXM/hrKyObpV6Iz+0g7xkPQXrs6Wpl70DfO1YDa/Em/RnaqIeiVKmfU2Esyn13cxVm4+qrt3PX+nv5tZOw6RSv4tztX0VtG3mbinxDjXxj3DR8jRlVmJqLAAAAAAAAFxkv4rT5j5hmvlGyOLJ/nUTbnuoroYd8wTLk45FaulDJdMhKTPkmKL00Z3+tRm+y7HKFxdJOYW6L/Sad0SqRfC802rbtax1F1BbGJ7TBcFYyOfzBTdJMk3T2jdNmT6fTNNUg7jY0PNrnLyTbntRlfJ4CuxFAAAAAAAAAHBxRFZff+3hz3/WfT9foc2hIUNNU5hrL6mQqKg69qIqFVM32l5UoxzPyZXL5ZLLMGS4XDIMQy6XNTbBMAxr334SAAAAAAAAAABAWQgVAAAAAAAAAACAI4QKAAAAAAAAAIBzuvrOX9TsqY9QLQgVAAAAAAAAAACAI4QKAAAAAAAAAFBb+YrtJZcv2qJaECoAAAAAAAAAQG3lK7KXXL5oi2pBqAAAAAAAAAAAtVVxob3k8kVbVAtCBQAAAAAAAACorXxFkllgL738mAWMVKgmhAoAAAAAAAAAUJsVnZJMr7308mF6rTZAtSBUAAAAAAAAAIDarujk5TliwSywPjuqDaECAAAAAAAAAFwKik5J3nz/VEDF9qOXDl+x9Rm9+YxQuAgMz+kCX2DH5/MFN0kyTdPaN02ZPp9M01SDuNjQ82ucvJNue1GV8nguw7QPAAAAAAAAAC4DUVF17EVVKqZutL2oRjmekyuXyyWXYchwuWQYhlwua2yCYRjWvv0kAAAAAAAAAACAshAqAAAAAAAAAAAARwgVAAAAAAAAAACAI4QKAAAAAAAAAADAEUKFCjIMw14EAAAAAAAAAKjl6Pt1hlChgsLCaDIAAAAAAAAAuNTQ9+sMrVRB/LAAAAAAAAAA4NJD368ztFIFuVwuhYeH2YsBAAAAAAAAALVUeHiYXC66y52glSohIiKcHxgAAAAAAAAAXAJcLpciIsLtxSgHPeOVVKdOBCMWAAAAAAAAAKAWCw8PU506EfZinAWhwnmIiAgPhgusDA4AAAAAAAAANZ9hGMEwgREKFWd4Thf4Ajs+ny+4SZJpmta+acr0+WSaphrExYaeX+PknXTbiwAAAAAAAAAAuOhi6kbbi2qU4zm5crlcchmGDJdLhmEElwIwDMPat58EAAAAAAAAAABQFkIFAAAAAAAAAADgCKECAAAAAAAAAABwhFABAAAAAAAAAAA4QqgAAAAAAAAAAAAcIVQAAAAAAAAAAACOECoAAAAAAAAAAABHCBUAAAAAAAAAAIAjhAoAAAAAAAAAAMARQgUAAAAAAAAAAOAIoQIAAAAAAAAAAHCEUAEAAAAAAAAAADhCqAAAAAAAAAAAABwhVAAAAAAAAAAAAI4QKgAAAAAAAAAAAEcIFQAAAAAAAAAAgCOECgAAAAAAAAAAwBFCBQAAAAAAAAAA4AihAgAAAAAAAAAAcIRQAQAAAAAAAAAAOEKoAAAAAAAAAAAAHCFUuNCKC+XOdauw2H4AAAAAAAAAAIDaxfCcLvAFdnw+X3CTJNM0rX3TlOnzyTRNNYiLDT2/xsk76bYXVbF9Wvnap9opqVHn/nrolrO1R5YWPfuM5u+T1P4ppUy7V2erXa59n+q1pfsk1VeXgQN0c6UuchnJ3aQPkzN0NLDf5HY93a+DIkvXCtq7bI6W7S3Zb3ffEN3dMrQGAAAAAAAAAJy/mLrR9qIa5XhOrlwul1yGIcPlkmEYcrmssQmGYVj79pNwLtnauuozrVz1mdbtO1eAkaPsbP+fWYcU+LPCsndq5arPtHLV1zp0rltCcu/TOv93tHLVZ1qZvEArj9kr+RVnaNGbIXVXfaatlf6iAAAAAAAAAODSRqhwQXXQoJmjNKjfAE2Z+ZTa2g+jmuzSF+ty7YWSpMI1n2k1U1MBAAAAAAAAgCOEChdYZOPO6juwnzpeZT+C6tCooTVX1K6lnyhkhiO/QqV/uUmSFN2+rVrZDwMAAAAAAAAASiFUuKCytGjI7/Tb+36n307PCJZ+M91fNiRV2e5dWjT+SfW5zyrr88RIJW8o+636M7gzNL2//1oDZ+ibkKmR3NtSNfnJftax+36n397XT4NGvqH0HwtDr1AG2zP/lKHXh5Rc58EhU7VyXxnXKMxW+ryRGtwvcL/f6bf9ntToeRnKLTUSoPT13VveUJL/nGATFedq18dT9Vz/kOd/4BE9N22JdlVw+qe2t3RWtCRlr9G6fbaDuau00soUdPOvr7Md9KvAs1T2e3VvW6Lpwx8J1v3tff304PCpWrajjA9bmK3014bpwQdC23mIpn+8TW5GXAAAAAAAAAC4wAgVLqp/64PRIzV/U7YC3fSF2bv04aSRSt5jq2rn3qbXh03V6jxJMbdr/OvP6Wb/Gh+5aWM04MUUK0AIi1Rsw2hFqlBHd3yqyU+P1KKD9ouV4/QmvT5sqpYdLAkR3Acz9Npw2zWKs7RoxJOavHSXDp2WFBap6EhJp7O1delUDRi+pOz1JI59qunjP9Xe06GFbn3z6jN67s0M7corlBSp6CskFbq166u39NyTM/RNqfrncF1n3WGlClqWtq3Uodw1X2qrJIXdqK7XuEsWdg6q5LMU/1uLJpb1vT6j6RmlgwJ3xgw99eJbWv2DW4WSIq+IlFQo9w8Zen3kn/TahpAAp3ib5j/xpCav2id3oRQZE6vYKySdPqTVb47RU69mqOTqhdr15hA9+EA/Jc3bFlIOAAAAAAAAAJVHqHAxHVyjlbpfU+a9rZTkeZrSt6X/QLY+XFwysuEMxVlaNHqMlv0oKaylBk0pCRSkbfrgrW1WZ3b7x5XyUapS3npPiz+YpN7x/nM/K925Xq4Nn2llfD9NeStVnyxJ1dwRt6tZmKTifZo/KSU4nVDu8tmav0+S4tV7zNv6ZEmqFn70sVKe8K8ise8tfbAh5LoBO7Zpa+O79Owr85SSPE9PdJAKt7yl19a4JUWr4+MztXhpqhamfqyFk+5SI0nKW6N3Py0zoihbWAfddKP1p/vLNdoafJs/S198tsv68/rOukknz+h4r/SzZK3Rsh8769nXU/XJ0lSlTBqgm2Mkya3V02YoPRBEFG5T8utrlCspuv3jmvvRx1qcmqpPAt+V3Fq54NNgIJO7fIEW5cpq50nvafGCt5WSWtLOuRs+1brggtSbtPTjQ3IXFmrv0iXaWsbgEgAAAAAAAACoKEKFi6qDnp3yuDo2jlVsbLw6Pj5WT7fxHzqYVfbb/XLrm1f/YnXih8Wr9/iX1fea0sdP+nvHo5u1VGyYvzi6g56ek6rFS1OV8kSH0BPKF3ajnp00QB0bRkphkWp2+3Ma8bt461j2Kq3zj6aI7T3NChIWzNHTt1hrGEhSbM+eutn/9959WcHyoOi7NH7OEN3dJl6xsfGKjZYirx+ilKWpWpj8vxrft6UiA1Wv76kuMdbfe/fa5zE6u5tvu936w52u9O3+wn2r9Yl/tEWX27oH7xOq8s8Sr4fGjtLdTSMlRSr2+n4a8bg/2SjepC++8vfwR3bQ08kfa/EHb+utSferWfAGHXTHLf6UaN9e/dtfXBj4YhWrZk2DKZJifzdJi1M/1iepk3R3w0BpW3XsYF0w8toOalXWBwQAAAAAAACACiJUuJiatlG7kr5hSbGK9/fZly1HKyc/o/H+t+d7PD9TT19f6gL+zmTrL3faGD04ZKJeS16ib3Zny63IMjvPy9XmJnW0Xb5Vt87WW/rK1aEDIa+/h0Uq+gqvcvdtU/qaNVqWPEeTR87TNyU1zvTrG9UxEHqUEqnomAh5f9ylb9as0eoP3tD0ka9qWZ69nkO33KXe0ZLk1rLPrBEg2Ru+tqY7CrtRd9x2tlapxLNE36hbWtuKbuusLv6/9x0qHbBERscq4nS29m5Yo/S0VM2fNlLT0+zjJqT4DtfJv+y0Xn/qSY2e9oYWpW3ToVyvdIW9dqzunrxAC5Pf04ev3q+z/qwAAAAAAAAAwCFChYsprE7FOvnl1qGswGK/bm3dHpiAKFSs7h49SX2vsa7sPrhJK1Pf0vjnn9SD/fpp0PjUMxYYLlfDWH8ndogr6loLH0vKPvaT9UdxttJfG6I+DzyiAc+O0eTpM/R66mdK/1Fn/3xl/vrc2vXBGA14oJ8efHKkxk+foekLPtXq3blSmQGEA2EddEd3/1Nv2qZdytXWbw9Z+13vUpczOuQDKvksDePKbLdAWxw9VjIGxb0jVeMH/k59+j+ppEkzNHlOihZ9tUs5wRoh2j+lvz51oxpFWgs2b/3qU82fM0aDBz6iPv2G6PWv7GNbIhUdG3327wAAAAAAAAAAKqDMbl3UYDE36u4brQ7y3E+nnrHwr2RNnzNoTqoWfzBTU4YMUN/b2qrZFZJUqKObUvTcq2uCCwiflfvkmfVOl6w9EN/wKknSrnnDNHnVIRUqUs1uG6ARY6bp/5Lf0+KPhgffzncqd9lEPbdgm3KLpdg29+rpEZM0N/k9Lf5oph5taq/tXNvEe60RFu7t2rpjo77ZIUnR6n1XZ3vVoEo/i/ukTtrLTpe0ZaOG/nEDxz7V5NEp+iZXUmxb9X3iOU157W0tTP1Yc/s1Cz07qFnvsZq/MFUpr4zV0/3uUpdr/aHB6UNaNm2MksuajQkAAAAAAAAAqgihQq0Sq74vjtWzI4aqR2Dh3zlz9Y09VygulPvHbHmvaKmOif00aOQ0zf3gbT37a//xDd9oq+2UMm3J0MbAosJ+e9MzrGmDFK24qyIlZWnrNusBohPHaO7IfupxS1vFx0YrMqQj3amd3/sXT27zuGa/8pR6395BzWKjFRlWGFwrolJadlH3eEk6pK0fZVifP7qLulxnr1ii0s9yLEPrbJ37hRkZSvf/Hf8L/ziGXdv8C0e31dOvTtOg392uji1jFX2FdNJzRiwhSSp05yo716vYNjeq98AhevHV9/ThZH9gomxt3FDG2hUAAAAAAAAAUEUIFc5DoeekcnNzy9jcFe5Md6auYmMkRXfWiJH3WlPs5K3R+ImfKjApkg6maPD9/fTgk0/qhdTQDuZCnTzl/7NhnOJCjpSreJP+MTtD7mJrt3Bfil5b5J9iJ6a77vCv3RDhnwrIfSw7OIpBcmvrm6nBjnSnIgK/yBO5yvHfV5JyP35DHx4r2a+4lrrvvraSpK0bNsktqVHiveWs6WCp/LNk68PXUnQo8CPIzdBrb26y/g7roB5d/aFCWESggnJO+P+UpJ+WaP7HwW/Ur1DpU36nPr9/TH981hYknT6pfP+fgdEjUqF2vTlEDz7QT0nztoV8LwAAAAAAAABQeYQK5+HQopEaMPCxMra5zkYCnI8OT+mvv/dPkbPjDY37wB8gXNNHA2+xZtHfu+AZ9en/mAY9/pgG/P5Jzd9tVen4wP1qFbjO2fy6szpumqoH7++nB/v9Tn2eTdXeYlmLRA8ZIKuLvqk63uKfzmfTHA14YqSmvzZRz/V/TKMzTp65tsA5dLzpRuuP7CVK+v0QTX5tqkY/2U8D3jqkWPua1BUU27Wz/5klKV7du7csddyu0s/StLN6FKdq8AO/04P9+um3A6dqtX9h51a/f0p3Bxrl1zerS5isEOL5fkoaP0fTRz6pB598S/+Ott8gUl0e7KdmYf4gqX8/DXj8MQ16/BE9NGmNFRrE3KsH7gisoLBJSz8+JHdhofYuXaKtFyblAgAAAAAAAHCZIVSoxZr9fpQG+fvF9y6Yqg8PSlK0uoyeoxd7NlN0mFSYl6ujx3KVe1qKjG+rviPnaUpvh1399brrv8f2U8crCuUOTIN0RTP1HjlTIzqXdHq36j9JI26Pl7V+8C6tXrVJu8La6tkpQ9UxWMuZyDue04x+bRUdZq0TkL4qQ1uPx6vv+LHq29Beu4Ia3qv7/DmB4m9X17NnCpV/lrBW+v3YIeoRHyn3aX9vfmS8uvSfpr/+PmQxhitu15+n9FPHK6wpq/Zu+kyrd+Qq7t5Jeum+MsaStB6gGVMGqEt8pFRcqNxjuTp6zK3CsEi1uu1xzZj3lNoGR160VccOVsAQeW0HtWK1ZgAAAAAAAABVwPCcLvAFdnw+X3CTJNM0rX3TlOnzyTRNNYhz2CF9keSddbL7y02h3IGpmCKjFRvtpGc5S4uGPKP5ByXdPkqfjOhccp2waMXGnOUahW7lugulc9VzorhQ7jy3ChWp6Fj/YsQXi8Nn+Wb67zR+jaRrBuj/5vRTvKxQx1189vMUrCdFRsfK0dd02q1cT6GkSEXHRCuyzGmcCuXO9SriHPcGAAAAAAAAUD1i6tpnKKlZjufkyuVyyWUYMlwuGYYhl8sam2AYhrVvPwmXkkhFx8YqNjbWYaBQHv91zhUUREZb9zpXPSfCAs9eAzrEz+NZImOcnWfVcxgoSNIV/raOLS9QkP97O/e9AQAAAAAAAMApQgUAAAAAAAAAAOAIoQIAAAAAAAAAAHCENRUAAAAAAAAAAKgGrKkAAAAAAAAAAAAuG4QKAAAAAAAAAADAEUIFAAAAAAAAAADgCKECAAAAAAAAAABwhFABAAAAAAAAAAA4QqgAAAAAAAAAAAAcIVQAAAAAAAAAAACOECoAAAAAAAAAAABHCBUAAAAAAAAAAIAjhAoAAAAAAAAAAMARQgUAAAAAAAAAAOAIoQIAAAAAAAAAAHCEUAEAAAAAAAAAADhCqAAAAAAAAAAAABwhVAAAAAAAAAAAAI4QKgAAAAAAAAAAAEcIFQAAAAAAAAAAgCOECgAAAAAAAAAAwBFCBQAAAAAAAAAA4AihAgAAAAAAAAAAcIRQAQAAAAAAAAAAOEKoAAAAAAAAAAAAHCFUAAAAAAAAAAAAjhAqAAAAAAAAAAAARwgVAAAAAAAAAACAI4QKAAAAAAAAAADAEUIFAAAAAAAAAADgCKECAAAAAAAAAABwhFABAAAAAAAAAAA4QqgAAAAAAAAAAAAcIVQAAAAAAAAAAACOECqcJ29evvJO5MvjtR8BAAAAAAAAAODSYnhOF/gCOz6fL7hJkmma1r5pyvT5ZJqmGsTFhp5f4+SddNuLLoi8LQs15/0NOloQKAlXg2t7aOBjvdQiunTdarN5vpKSpUH/M0gd7cec2jxfSck7pfpd9ZfxfdTUflxSXtpMvbT8sPSr/pr1xK/thwEAAAAAAAAAZYipe7E6j505npMrl8sll2HIcLlkGIZcLmtsgmEY1r79JJybZ/N8TX57g7xt+mjYC5M0Y9o4jftTDzU4skozX35HOzz2M2qhvPVa+729UJIOak3GYXshAAAAAAAAAOAyQKhQUZ5vlfrhTl3ZdajG/bGrWsRHKaJOPTX4ZS8NGd1H7Qu2K3X5wdLnmEU6/sN2bVy/QZmHPCp7pqQieQ7t1Mb1G7Tjhxx5Tfvx0Ots1/6cIskskudEftl1g4qU57/3jh9yyrm3XWu1v7ZIGWs2nFl/51dae6K12l9rPyDJ61HW9xus5ztWdMaxvBPWZ/cetj5neW3hdR9W5voN2rh+p7KDI0EAAAAAAAAAABcb0x9V1Ob5Skr26uG/DlbnKPtB6fjuDdpfdI06/jJeEZJ0bJ3mz1ysrYVRiomSPCc9UnxP/WVEL8UHIh33Hi2b86ZWZksxdaPk9eTLE3mdBo3+gzoGRsO4v1XylAXa6AlXTN0IeU5KHe+8Tlmr9uimkaN1d+Mypj9y71TqzHe09v9FKCYq3Lpu9K81ZER/JZQ3ysZ/jYcf8ur9VGng5MG6KeRzZiaP0hx3Xz0csVDvq2T6I8/mdzQ5Zbs8deopKqJInpMeRf2qv178468VFXLdu3vmaOWXeVZb5HmkxqXbInv5dP0t7bjCY6IUUexRnidCNw0YrYE3REnKUcasmVri7a7hz/VUfMljAQAAAAAAAECNx/RHl6HsI9lSw+ZqWUagIEkN2tyimwKBgrK1cu5iZTbpo3HTJunliZM0Y1J/dTyxSq++v9N/hkdb339TK703aNikqXp54jhNmzZMvetu1/y5XyrPX2dj8gJtrNtdf5k21brOtCcUt2WDjobcuzSPtr7/jtaGddVfpkyyrjtlqO4O/1bz3/+2zBECoa7s1Ek3aY/WrskpKfRs0OdbitT++ut0ZWjlgj3617/2qEGPoZr613HW8z3XXVdu+6fS9oVW3Km1h7vr5UBbvNRH1+as0twl/pEdnnVanJata/uN07SJ4/Ty5Kl68c447f9ms45LkvJ1/IRHnmM5OhV6WQAAAAAAAABAtSBUqKCjR0M62QMOfKn3336nZFuy3QoD9qVrzbE4/aZvVzUItHT0r/Vw79bybErXVlOSZ7MyvivSTfc+WLLAs+tq3f1QV8UcWqevf5R0YoPW7pZuSrxPTa20Qoq4Rr3vbeffKYNnszK+k7rdX/qcxDtay7Njm36wVT+D69e69fpw7c/4Uln+Iu/mzdoR8Wvd2cmWqNRprd4jJmnYf13jD1MkNY5XvPKVdyK0Ypx+81+3KCbQFg27qvdN9XR8y+bgPSTJk5sXDD3iew/TuKe6qoEk6Rr1HvuKZv31QbUIqQ8AAAAAAAAAqB6EChXUqFGcZJb/nv+pH3cq47vD8kjSiRzlKV7xjUvXiWjZXI3MbGVnSzqRrxzFqZGtjlo2V4JydPRHSR6PPGXVaXy1GtmKgk7kK0dF+jplgl4aW7JN+PSAZB5W1o/2E86UcHsnNTixTVsOSFKO1qbvUYNOtymhrF9N3kFlLJqvmRMn6KUXRilp+EJttdcpoy2atmoq5eVYIxGiuqpPYryyVk3XcyPH6G9/X6iVmw+fY80IAAAAAAAAAEB1Kat7GGcR3yReytmj70MHLDTvrocf+4MefuwPSmxdzrxIoc4SSgSZ3jOmKCq0d657POeYBihO3QYO11+Gh2wjXtTL44fqDicLEjTvrm5X52vtup3Sjxv09eF6uvGGa+y1JM8GzZ80W0t+qKeOiQ9q8MgXNW16f91krydJ9s9g+5Dx94zQjGmjNezh7mofflhrUmZq1KzANFAAAAAAAAAAgIuJUKGiru+iblGHlbboW2s0Qij3BqVtzFeD9u2sRYQbX61G+kE7vi9dLe+7PTpa5xo1bywpPl5NXTn6fpttWqWdPyhTV6tFS0nx16hFnRxt23S4VJWsTdvK72z3X/doTrhi6tcr2aLDFRFdTxGOvvk4devSWp5tm7V202Ydvbqrbm9uryNp53Zt9bbTIyMe1J2d2qlp/XqKKjpVRuDxg3YElpLwy9z9g9QwMOKiSJ7sHHnqxKnF9T3V+6lhevmhdvIe2KytpaZRAgAAAAAAAABcDI66lhHC1U69+7WTvlugybMWa+uhfOWdyFfW5sWaM2Whtrra6f5E/9v8jbvrjmuLlJEyXxtziiQVKe/7xZqbdlhNe/RUgqy1C+7sXE/70+Zr2b4iSZL38DrNTflW6tBTt9a37nlnj3gd/Xyu5ixap43rNyhj0Wwl77lSMaUeLoT/ujv++aY+/8EjryRvzk4teWWMRlbgzf+IG25Qe+92LVubo/a3dS37fnFxaqAD2ro+xxp4UHBYGW+v0A57PRUpI3WBtgbaImO+5m8uUvs7ulshzIGl+ttfZ+qdNdnWdbw52rj9gBR1tZrWl6QcZcwao5EzVinbfmkAAAAAAAAAwAVneE4X+AI7Pp8vuEmSaZrWvmnK9PlkmqYaxMWGnl/j5J1024suCM8PK/TOu6u1I88KAqRwNbi2hx5+tJcSQnvevQf1+etvask+/7gGV7ha3PaEBvdtreBESWa+dnw4W/MDnfIKV4Nf3achfwxZ4FlFOp6xSMmf7dTxIinmP3vqD/fka/70zbpp5Gjd3VjS5vlKSpYG/c8gdQxed67mf5MdXJcgIv4WPZX0oBICi0Lb2a8hKTN5lOZsuVaDXhmkjv7n2frm85qv/pr1xK8lSdnLp+tvaf4wwBWlhN63KOqfXypi4CsaeEPJdR/+0xVaOf9bHTfLbovsz2dr9rKDygs8b0xr3f/UYHW7WpIOatnE2VrpuUXDWKwZAAAAAAAAQC0TU7e8jtma4XhOrlwul1yGIcPlkmEYcrmsTmHDMKyNUOE8FeQrzyNFxZxjSiGvR3nuorPXM4vkyfNI0fUUFWE/6F+PIPTcw0s1Zfr2klChPIHrRtVTVB37wSrk/4wRZT1/aFhxrs+pInlOeOSNiFJMdLj9IAAAAAAAAADUSpdCqFBe9zacqmOtVVBuUBAQEXXueq5wRdUvq6O9SDsWjNFLb6zT8cDCxt4cbVy+QUejWuvaswUKCrnuhQwUVPIZz3x+m3I/Z4B1nEABAAAAAAAAAGqWs3Vxo8YIV/sePdUoa7EmjHhez70wSkkjpih5/1XqN4RpgAAAAAAAAAAA1YPpj2oZb16+PKb8b/NHqdyX/Wsar0d5btWuZwYAAAAAAACAKsT0R6h2ETHWdEsxta1zPiKq9j0zAAAAAAAAAKAUQgUAAAAAAAAAAOAI0x+dJ9M0VVxsbYF2AwAAAAAAAADUTIZhKCzMpbAwV3Bqn+rC9EeXOa+3SAUFXhUVFRMoAAAAAAAAAEAt4PP5VFRUrIICr7zeIvthnAOhQiUFwgQAAAAAAAAAQO0UCBfgHKFCJXi9RTJN014MAAAAAAAAAKhlTNNkxEIFECpUkGmajFAAAAAAAAAAgEtIUVExL5I7RKhQQcXF/LAAAAAAAAAA4FJD368zhAoVxA8LAAAAAAAAAC499P06Q6hQQT6fz14EAAAAAAAAAKjl6Pt1hlABAAAAAAAAAAA4QqgAAAAAAAAAAAAcIVQAAAAAAAAAAACOECoAAAAAAAAAAABHDM/pguDqEz6fL7hJkmma1r5pyvT5ZJqmGsTFhp5f4+SddNuLqpTHU2AvAgAAAAAAAICawQiXwiKtf40w+9FLg69Y8hVJxYXWv1UoKqqOvahKxdSNthfVKMdzcuVyueQyDBkulwzDkMtljU0wDMPat58EAAAA/P/t/X90VfW97/u/1koCjQIbsUUa0mNSMBHU2rK9jWLZ4o+9F5xj9ygw9u6oaHrGba8yRje5hdKKuwoBf1RbCueGdp/YU7/3lF/9tvuA+1b3huWtio1GYtmo9QcmggltSEUlshNhGZKsdf+Yc64152fOtdZMgJAfz8cYa8D6fNaca87PnGui7/fnBwAAAIARqPACqWiiFB0/ehMKknVu0fHWuRZeYNbiHCOpAAAAAAAAAAAjXeEEK9A+1kTHW+eOIUNSAQAAAAAAAABGssILpGiRWTp2RIsYsTCESCoAAAAAAAAAwEgVKRybIxRM0fFWW+CcI6kAAAAAAAAAACNVwTizZOyiLYYESQUAAAAAAAAAGKnonZ9BWwwJkgoAAAAAAAAAMFJFCsySsYu2GBIkFQAAAAAAAAAAQCgkFQAAAAAAAAAAQCgkFQAAAAAAAAAAQCgkFYZawxpde8d2dZjlI1RjbZWqt2U/m3z1Y0r7dlVXVenaqipdW7VGjWb9iNKhHXdUaW2DWT5MjKjfWaPWVlVrR7tZno2/7Tu2VZ/z+6qxtkrXDug4w2rU2vTv4lzsHwAAAAAAAGcTSYXhqH27qnMFB4dLwLR9u+p3x7Ts9hKzxpKvfqwpXaotTU3at7NGFWbdSNNQrzrV6K55ZsVw0KEdP4srdudSjco7L6DtS27fon1NTdq1vE0rh2lgPltSorF2hVqXP24fv1T386xPvpHHk0isCnxuZxJC1mswSVirbe1Xrav9zO836j3bVQUlCd0JH/+xmcfu30fu7SXXMbqP26xzXu72y1Un+b7b95m821uytq1Z59veSv5l2/bMhWjbnHJs37DG224B55D73C3O/eG/ryz56rO3fbi2zb69MucfdOzGveE7vlz1Idou5/Zuzr5y3XdVVYHPVQAAAOB8e/5X72nO/Z163qzAqEFSAYPWsTcuLV+muWaFLV89Rq7Gp4dx0L79We0ZtgmPM5er7Utu36KNC5vPSWB+bm2T9jVt0W2lZk0+VvAuPjMomdahtsNS+aWusznc6g/yjVROItF+bZxRp8XuAGHDGi2Ox7TL+czOGmnz6gEECK3g6kptSn/HvlrjiVtRk9m/UW9d08x3t65yByc7tOOOTMJnX9MmlW9e5AuAVqTrrde69O/O2H5njWRs37GtWtfeIy1YmCnLaNTaJXEt2Ons+3HVqE6rneB3vraVJMW00X3uW12/m7zb527bjm3VWnk407bm9h3bVmtPLNN2sd0rBhH4zybctckuz7WZtz5zzk7bV0gVM8us+oY1rnaxrktQ261WTDFXaUa4+uxtn69tc29vBev3qHJ5pWsbR4d23OO67zbEFDd/F7nq87WdGrV2SZ3KN9j1vt+do1FrV7UptjDoGKWYs31T0yCfywAAAIDtvRNacv97muO8fnpCR83PAAFIKpwnba4enpn/GbZ7zi2pU4viWmn2QnN6t62KSy11Wpyuz4xq6NhWreptHZ6ebGagwexdatanj8MXoHFr1KObpQXzg0KbCqj3T9licaZ+OdN6szyYee5mL0Cz3vw+bw9B//f6exAOpAdpuN6XORm9JD3fbfbMNc67ett2u+fqGjVm6SEpZUagxDzBw2rt2JbZxmmHXD04fXW1jZ72N9st37VxNP68Tord6Au6594+X9sb9UbvVmeaL/d3mMeX+/sltbquT1DvWQW1vV/ZzEp/YP5M2v4Mp+1qrK1X5c4mrZtv1khSiebHKhX/2XZ1NKzR4s3NAQkTo+09x+d/LnRsqzauX44e2a7tM7/dzO+6Y1u171oElYVVNtMbIOw40ibNKHcFustV7vlEHg31qpuxyZ9IGAzzuxvqVdfiHmk2V3ctr1T86ZB3gLl96VItW6jM9u3btfrQMu3bulROuNWjvVWtKlNZOlhaorIZ3o+4mW07UL7tc7Ztox417tW536xRxe496d9Hye1btMXVdrGFUsuhNvv9GTLb9mxfG1P7s9rj/vy89a52sX7D7mdOx7bVar6zSVtuD76b89XnbvsQbZtz+0at/VmldjWtV+AjSSW6basrSD9vgWJqVnNr2HqD0XYd2+oVr3AlvUuXatnCZu3Z632iNNauUHzhMt0101MMAAAAnF2vd2rOo6d1+aKpOnCf/frWZE03PzcIX/rqVB24b4q+ZFZg1CCpcD601GnloWXpXm4tm+vtQMRcrbN7rlV4elja/wPr9KzcEDN6n673jAZo2bxI9TPtXnwbYoqvcgUC27dr9eYyT+/NTM/S8Dq21Su+cFnW3nH+eisg1HokWyjuTOtDaN+u1ZulGruH4caFdi9eJ/DQsEaL3W1j9EA0e6buWi7VLXG1bcMardztXDerd6IWbnIFP3JrrF1kBUKc7Q+bvS/zaFija1e1pc9vX1OT67uN3pEBvTtbNsdVufNx1VTEtfJnldq10xskczT+vC5gBEqz6uLONitUP/Nx7fIEuRq19ukFmZ6V5n0pSbtXaLHzuzB7bIe9b7NNuZVn+3xt37GtXvqBs63RY9rWsnlR+vh3LbcD5entq733lu/4m1W3qlnLnGvTUqdHzaRD1rb3ajvU7A1Un2nbn+G0XXNrc/eiLbl9mWItdVq8Stroaxfz2ti/29DC9eiOr6pKPzPdIz1K5sdU0RLXXlcv5b3xZlUEJK3ys7aN3Zy5eiXzY6pw/Q4ba1coXhHT/Bzt5db4dFwVM1s9SRPz3EJr2OP/7opKT8C/5NIyf8Iqi44jbdLCBel7tWNbtVbudo1EKV2qLYFBX1vpjVpQEddKJ4HTsEYrd1dmSWT723Zg/Nvnb9tKVbpj4qXlKleb2kImuM/Yubw2hjDPHbeS27f4fsdu+erzt31uubefq3XuESvnWGDbeZ7PVkLLmxSx/1si1+8DAAAAOAuef6NP5ddP0INXmjUWawoj55WZyujoM+9ryTPd2vpTp+59bX3PrnSPfPCNeujW992jIjzTI53S1p++r62v59oewwlJhfPBHciet0Cxsx2IcAeyA/cfVzzn/6DbyY2s/0PrD8B4BddneoK6ehe7eqOeaX0+HXvjanEFzebeHJNammX9r7w1D3+F+3/+563XxnQPQn/P1JLbH1ZNRaYtG5+OuwI1/t6buTUq7gkilOi2O2NqiT8bcnvn+B8ODOD6ekdqrtZtMPbvSgL5e4s7GhXPEtjLbBMQ1NdcrXPfT0H3pft3UXqjFlSYvT/z3bf2NXYFy7yybZ+/7UtuX+9JkM2PGUEgeY/fCkY795Z972zwJv+8KlWz06m3et76E2jZ217K9LT3B6PORttnFzQ6J2gUT7BGra1aodaFMVU4x+ReU8ZOEg06uGZPhfVwvh7drmfm3JtjnsC3pxexr9dxwMgnMwCaHiWyyLcWhpWweVwL4ousa6dN3il6crKmjmrZ3KyYJ2FktH2WUW0W1yiQVca0WvMWGMmtRq1dFU9v6WjZbB37tVVBI3wy5784HrOSjunfRT4lum1rk3bF4tbxr5I2mtO85GpbSQoa8eeWdft8bTtXMWOascbaFfK3js1OiNR8c5D3sSnktckrzLXJlqh1tG/X6sARRoOVr+0NvrYd4PZ5WIm+oHvLkrM+oO2sRGK9kTBvTtc7/5bn/vfCSoQ6v7sBdT4AAAAA0k6p9QPp8qkXmBWSnVCoUXF6BMMT1/erxhXkb30hobducOqkTRVHd8QAAHYOSURBVM92WxVTJ2vnfVN1YFGhe3e2iXrQGRFh73PTM6dc9Sltek6qu2+qDtw3QSt0Wv/0uqsawwpJhTHBFSAsXaotG2KZ/yEdzDQeAQvFemSpL7m0zArEtj+r5hkxyQma2j0uz7Q+n5JLyyRXr2NvEsDimdvdx+iZaiibWSmle/YPsEdze6taPQEwe5qr0NrU3JLn+I3ekYPhH4ESnjf4nCMA55IOrIe6b60ptwIDd7m2D9P2xtRRiz1BIIvnWpcu1RZnBFF7q1rz3DthhGl7a55tfzDqjNo+D8+8/OlX7tEJDuucNmlL7Xo97Iz8aW1WS8jfdF6tzWrxBNWDr50nATpvvSewP/fmTILJXCfGWSDbfHl6YbvnWL+zWYvdgf327aquWqTmO5vSI2T8gf/cPMHHectU404IGesGWAt5u/dvBe6t+sdV+TN3gNJKPGaCl3sU2xDzPEe8528fvzuxsHuFrv1ZpTW6a+tSlQzo2loJj8zonzatNBM2udrWSY47rw1lqltiBJZzbp+7befWWqO9nPsqfvMmxYIS3O3bVb0qrtiGcL+JNHO6OvPc8lybvEJem8af1+VI1Foj4LT88ZwjDwYjV9un5WjbUNvnYY3giGljlkRfvvrAtitdaj/r7Gt3j7RseWV6zYWObatVN2NTzvb0PnOt0VckFgAAADBw/Xqr0yxznFLrBxGtuHFiumT6lUUq70wq/Z/VFcXpEQ7TryxS+Qf9IUYVnHKNbnhPX34hpdb3+z2fWHiDM/3SBbrjW1OzjqLA+UdSYUwwApquQMrGGXVaHBigza7x6XjOYHnW+vJKVRxuVePeuHTzMlUeelYdrc1qcQIhZ1qfT3mlKtSc/p95f49uM5Bq9XjMMIMSViDfUXJpmatnrNXzNdNDOgxjUVEn2GN+LFCZKvPNTWOMmug44uuTmkfwCJQw0sEXVyAkeIFOL0+SJN99GzR9i1vO7XO1fSZw5tTtClzgMwtzrvpByd/2c2v9UwfpbLV9DmcyUqHtUHM6mGYtMh3XylVZnh+DZS5U3JRrFFaAeQsUa4lrb3uH9sa968iEGqngZowSsYKOTgCxRLdttaYfqw8VIBz4lHAl82M5prAKGIHjWXR2vcqOtLkWnDXZo7Ocd5eWWb8r1zPMt4ZELva8/84zuuT2Lb5pxTyCRuC4zVuQ+773bB+mbb1Ji3XlrWo1g/Lt21U92KC7kRDyJQsHdG28Ql+b9u2qzzrCwhplFB/AFH/hhGn7XG0bcvs8rCnr5BpBNrD6XG3nScZtXSodaraft9ZzXq5k1eLNzvtsz1RrZBsAAAAwcAW6fIr01nvukQLn1tFnTmqTxumJ9EiFiPkRjCAkFYaj0nKVZ52qxQ6Oe+b5zi7fHN2+xSklO1iQZSqLgOH8HvnqJbUdKlNsXonKFNejT/sDIWdaH7hIsB3AcweGvUEaO6CWXt8iE9SyzsX6H3fvPPnuKYWcKQtcQaDQCQHX/OFBbe7m9F41A+rOgrfmXPlO7fyYKozpMszpnPLKMgIlNFfALedUIU5vzZbsCxL771u7/UOej2f7kG2fDrL7pqvIx54q5R7zmg1A3rbP8ZvV2W1705mMVCib6f3Nzb3ZCPsaz8L03O+GdADRXuw5zZ4mxlz/YmDm6q7lUt09q7VnhnekSKiRCi7WM8N4HruTfe3Pao9vxJEzRZE/qDj3ZveaPJlnVvC169COewJ6TqfZz4QsiauObdVaHI9lT5Q60+A4289boJjcv6vc+w/mThLYAVcz8O3UBrWtS75/C83tB9S27dtVvSSuBT9wPX9cQe+sQfesz/OByXptnOmdzOdCyGtjJb2CRkdlEgoDStCFlLft87Rt3u3zyCQMgp9j+eqVs+28Gmutac8yiUXvs2TX8kpp4absz9Sca40AAAAAuVygO24oVOsLJzPrIbjqyj+ZykxpJOn5Z0+rtaIocOHl5589Lc0al3eB59b3U9InC+zPdeufXkiZH8EIEkl83JO+gqlUKv2SpGQyab1PJpVMpZRMJnXxlIvc2w87XR+dNIvOqkSixywamIY11pQD7l7QVfWqNP/ntGGNawqWSt//vFr/U+sEz2LaaAfIveV2L113b0Sz3rVtRvaAQce2ams6iiyBhNz1xn7tc4xtcIJwZ1pvf0ttlVbutqaC8QT37ECEa3CB7/y97eNvd2ffFqPtPNfM5mp/f9vL2EeHdtyxSHWuA6wwgybOORjX1WF+h2d74/zddZnrVqYdd1jTsawr367qJc1aZh9fY621mK0/iGMdt7lNmedesK+dvUXF8hqVb45n7ntf2+W6Lv5669wyx2rKu32etjd/bzXL21Tnus+zt02G995x35/+Z4C5P/O9X/bf7Nlve/9ncgnePvPb8v2mNsgareC0v/v4Fm7SRlkLgQfe1xU12hiLa6XnGeQ9f3na3nXv5go42t9Rbj5T8jHb1ve79d93vudW+jP+55F87Zv72nmfJ/m+26j33Vvm9kHH52177/7910Xyfo95/J5jyNe2Zr15/Ga9ub3v+3O1rf/3YP7eLWYbOW3o3z63fNfG5pxjYH2ua+Ns2xZwTc1zz0jvw2zbgdb7vsPbPmHaNvv25n1rS1//LPdl6PrcbWe2u+/feEPm3+Zsz7OB3jsAAAAYtcYNMl77eqfmPN6XeT9lnJ741mRN1ylt/elH2uRMkZQutxZq/rI7IVBRrANftadKMvcn17bvndCSR0/bUyhFtOL6Am16v8je1vq+t244S1Menf7QLBmQ4uLxZtFZNWnChWbRsHK880NFo1FFIxFFolFFIhFFo9bYhEgkYr1IKgzMGScVzjH//4CeTf7gp1e++vMrKDDr9BI88/YKCk5aZXtiuYMGI0KeoP0ZazCTbQMTdG1HjWHe9kPtvFzrc30NMGY11lZp5WF/QgMAAAAABmSwSYVBOPrM+/ry+5/IJBKGI5IKZyRMUoHpjzAAc7Uu2xB8KUT9+WSujyBJjYrvlm/6pMHxrq8gZZvKZIRyLzw8DM2tbRraIPNQGuZtP/pZ0wa5F2gGzliDNTURCQUAAAAAwEhEUgFjRIlu+0GNtHmRa0HVFWrNM/VAeHO1bkNM8VWuBVsHM10KgGHCWctgkepmnO3FaDHmOQstk1AAAAAAAIxATH80QMN9+iMAAAAAAAAAY8gQTn80IjD90Rlh+iMAAAAAAAAAGM1S/WbJ2EVbDAmSCgAAAAAAAAAwUqX6zJKxi7YYEiQVAAAAAAAAAGCk6j9tloxdtMWQIKkAAAAAAAAAACNVqk9Ksg6skj2MVBgiJBUAAAAAAAAAYCTrOyUle83SsSPZa7UBhgRJBQAAAAAAAAAY6fo+GpsjFpI91rljyJBUAAAAAAAAAIDRoO+U1NttTwXUb9aOHql+6xx7uxmhcB5EEh/3pJw3qVQq/ZKkZDJpvU8mlUyllEwmdfGUi9zbDztdH500i86qRGIMZvsAAAAAAAAAYAwoLh5vFp1VkyZcaBYNK8c7P1Q0GlU0ElEkGlUkElE0ao1NiEQi1ntzIwAAAAAAAAAAgCAkFQAAAAAAAAAAQCgkFQAAAAAAAAAAQCgkFQAAAAAAAAAAQCgkFQYoEomYRQAAAAAAAACAEY7YbzgkFQaooIAmAwAAAAAAAIDRhthvOLTSAHFjAQAAAAAAAMDoQ+w3HFppgKLRqAoLC8xiAAAAAAAAAMAIVVhYoGiUcHkYtNIgFBUVcoMBAAAAAAAAwCgQjUZVVFRoFiMLIuODNH58ESMWAAAAAAAAAGAEKyws0PjxRWYxciCpcAaKigrTyQVWBgcAAAAAAACA4S8SiaSTCYxQGLhI4uOelPMmlUqlX5KUTCat98mkkqmUksmkLp5ykXv7Yafro5NmEQAAAAAAAAAA592kCReaRcPK8c4PFY1GFY1EFIlGFYlE0ksBRCIR6725EQAAAAAAAAAAQBCSCgAAAAAAAAAAIBSSCgAAAAAAAAAAIBSSCgAAAAAAAAAAIBSSCgAAAAAAAAAAIBSSCgAAAAAAAAAAIBSSCgAAAAAAAAAAIBSSCgAAAAAAAAAAIBSSCgAAAAAAAAAAIBSSCgAAAAAAAAAAIBSSCgAAAAAAAAAAIBSSCgAAAAAAAAAAIBSSCgAAAAAAAAAAIBSSCgAAAAAAAAAAIBSSCgAAAAAAAAAAIBSSCgAAAAAAAAAAIBSSCgAAAAAAAAAAIBSSCgAAAAAAAAAAIBSSCgAAAAAAAAAAIBSSCmNF53OqX7NJz/zZrBjdet/4tR5av11vJswaAAAAAAAAAMBAkVQYiORB/fLuVfrh7mNGxUH9892rVHP3drUYNceefMgqTxoVQ6zlyd16c+JVuubTknRMTz2wSg89aZ7H6FN0RZU+l3xZ8d91mlUAAAAAAAAAgAEiqTAQ0VmafZnU/s4h9brL33lLr/ZK6jmkN99xV3SrpblTumy2Ks5nSydf1r5X+jR77vWaZNaNepfq85+bqNYXn1O7WQUAAAAAAAAAGJDzGeoekWbPmikdfktvukYeHHvzoLo+dZWuu6RbrW3dmYrkQbX8SZo96/JMWU+nWl95SfubDqr9ZF+mXFLvyW51nQh4GZ9Tz1G1NFn7ONbjrQrU/KbeSE7XFVcUmzVSr308rxzScXNfvQl1nUioV33qevs17f/D0UwyJdmn42+/pv1NL6nlTwlPkqX3ZLe6ugLOLV+Za59vvt3pTdzYejsP6c0m63i7jA/0dnUr0ZNpn1Z7cELp5z+nSScO6s0xNvUTAAAAAAAAAJxtBffee1+tWehIpVLOX5Sy319QHBCYHkZ6TgeFos+egvEf6LWGgyqonK/LL5KkhF77f/9Nf/zMV7VwwgE91T5Zt3zxP6lAkt7aq1/9e4G+9PfzdOknpGO7f6S19Xv00tt/1OFDr6ph92/1amqWrr/MGj/w+pbv68e/fk7P7DVeH0zXwi9cIkk69sxmPfzf92jfO3/U4eb9+u2/PafD4yr1xfLsYxCOvfiknun+nBb9zUxNkCSd1OHfNapj4gVq/eUv9MTBP+rwHxr11FMNev9T1+nqTxdZG766Rd/9v5rU2f5v2vbUG2p9b7w+N3emJnzwgh576Cf61Ustam1t0b7fPaXfvpLU5+fO1ISIlPz9/63V//01lfz1HE2LSNIRPfHAD/XYU0d9Zf/a9wXNq5ggnXxZW9Zv0i/3t6j1nXd0oOlpPfVyZp9SQi2//JEe2fGiXvtjm97+w0vavecFfVRapSumFkk6pqd/9JB2vf0nvfirJ/TcO+8oWXKTrvq0pIuk48826vBfXKfrysdb53bw11q38X/pz5+s0lXT7PMFAAAAAAAAgHNo/LhxZtGwkkh8rEgk4ntJSv+dkQoDdcksVUzq1ptv2usRJN/S24cLdfWVl6pi1mWeUQztrx9S4pOzVDFZ0gcv6MmmU7r6a2v14wfX6oH19+uBr12m4/En9KK9iPDV39yguv+WeX3/lkuk6HT93Veusj7w5z167DfvqeKr9j4efFgPfLVMf/rNL/RU1l74Cb3zp06pZLqstETGuy8e0JS7Hrb29cj9WlFVrP3bfqH9nkWNj+jdqd/Uj390vx74zgJdomN6qv5xtZQs0tpH7tcD6+/Xj+9fqqtP/FYbf3lQklR0xSyVJ99WS7O9i2MH1fLRRF08wVX254N6s2uiZs+2jqr9336j/UXX63s/uF8PrF+rR2r/XlcnDur3h62RDL0Hduix3xfpxm8/oEfWr9UDP3hA3/tSkRq27NCrruN9t02K1W7Qjx+8X1+b45SWatpU6d0/ZyZA6u3qVleiW8dPGKNAAAAAAAAAAABZkVQYsEs1u7JQ7za/pS45UwuVqbRM0qzLNTvZrtY2SepW6x+7NalylhXM/+T1+kbtWlVXTUzvqbh0qv5Cneo+kdl72tE9+sUzXbrm9mWaN8Uqan++Se9+5hZ9xbWPSdfdousmdeqVV7Itutyl7g+laVOnmhXSlQt1a1mh/aZY5X97g2YnD2n/AXdWYZZit16qdF/+dxr1uw+m6ObF1+ti5+658Av62q0zlfj3Rr2alDT5Kl09vU+vvn5EktR7qE3tM27RVyqVLus6eFDvTvqcrvmss2NJyS4d/8jZ5xdVXbtCt15WKCmh/S8elP7yVtfxFqp04Q2a3XNQrzqJCknTrlugq32DNiZq0l9YWTZHUdU39OP/tkH/MD/TlgAAAAAAAACA3EgqDELFrMukPx1Sa9IejfCZWbqiWFLx53TFZ+xRDIk/6I0/WSMYHL3HXtZTv6zXD9es0713r1LNj57Tu549206+rC0/+a100zJVz8lMN3X8P7qld39rbZ9+/U+9mJDaj3Z4dhHGtGkl3oLimfrsJ6XOD7u85e675ESnunSJLvm0q0xS0WfLNC15TMeOSdIUXTFrirqaD+qYpDcPHtK0S2dqdlmZuv7Ypi4l9MbBoyquvFyl9val//lvdU3/a3pszWrdvX6THtv1glo7nVEEVmIk8YcdrvNep3t/sEdvR6X2dldCJeokHQIcP24lggAAAAAAAAAAg0JSYTBmXa7ZelstzcfUcqhb0yovl9U5fqLK/9NEaxRDW5tao5epotLepu0JPfTIdr3YVaZ5i5dqxT1r9ePv3qJpnh1LSh7VU3XbtX/SLfr6f55u1kqfXaDvrVzpeX3/+2v1wNfsKZIGImlO/dOn064FqAck6V3L4pIrZ+niDw6q5cRBtbxtTXNUdMUslf/poN5IHNLbhwv1+c/Pymxw4RdU/eDDeuQ7X9dX5kxX75tPaNMD6/TP1oxKkqRp13zdOPfvae2atVrx1+bETllcfLF9nQAAAAAAAAAAg0FSYTCKP6crPtOn1sMvq/VYZl0ASSq9cqaKj7Zp39tHlJhxuWbbLXzs9dd0fPINWnbXAl33+Zm6ePJEFfUkdCqzV+tzT/5CT3bN0jdqFugS4+pMmzZFOvaeuiZP1CTXq7ioWJMuzNZD/xJd8inp3aPWtENu7zYf9Pbc7zyotzul0pIcQfpPT9c0va033/AWd71+SO+Ov1RlzgiGsjm6etJRtf7uLb093p7maPJVunr6Ib29+5BadJlmu3IK6unW8a5eFX9mlq679e+17N7l+pvJCe0/cNA6h2nSux90qthz7sUqKipWsb32cnbHdPx9adJf2PNIAQAAAAAAAAAGhaTCoExUReUUtb/UpNbxMzXbvS5A5WxdoTb9bn+nSj87M70WwZSLp0gn3tLv37EXHu48qH/51QueoH7iwGPa+EyXrr51kcp7u9V1wn51WdtccuMNmt31gh7b/rKO91gjDY79rl73ft/bo99Uftl06Z231WJW/Pk5Pbb7iHqTknqO6MlH96h18vW66fPmB10+fYNuvKxPL257TPs7+yT1qeuNx1UfP6rS+beoIv1Ba+2Jlv1/0H+kpzmypkV6o6lJXZddlU64SAnt//+t07qf7lGL3SC97xzQmyekz0y3trz6put1cfMTejR+SIleSb2davnnTbr7vs1q6HT2k0XikFqOSRUzMlNR6eCvte6edfrlK55VqQEAAAAAAAAAOZBUGKRLZs/SpK5udV022xVIlxS9XJfN6FZX10RVVGZ6/Bdd93V948ouPVW3WjXfXqXv/OBx9c75omf6o5YDB5VQn17954d0b+26zKvutzomSRdeb41gaP6V1t29SjUrV+vBJ46p/G+X6e/cvf4Nk2bN0rSeQ3rzHW/5tPlf1jXNP9d3Vq5Szd2b9Wxilr72D4tUmvOuKNZ1dy7XVz7dpi3rV6vm26t172NNKvrSMi1f6B3hUDHnKvV2deuKWZmDu2T2LBX19Gn2567KLP6sYl1T/Q3N62/ST9asstrnJy+o73/7hr7hLKT82UVa8V+vUtcz9br7u6tU892H9JP90rxvZBayzqb3ldf0ZnSmZ2REb1e3uhLdOn7CnAIKAAAAAAAAAJBNJPFxT8p5k0ql0i9JSiaT1vtkUslUSslkUhdPuci9/bDT9dFJs2h46elWV0IqnjRRRTmD97n1nuxWordQxZOLXcH5bDr1zI8eUvySb+iRan/2ofdktxL9xZo0KdsUSln0JtR1su+Mz8UjRPv0dnUrobDHm9D+/36f/vnC4HMHAAAAAAAAgKEyacKFZtGwcrzzQ0WjUUUjEUWiUUUiEUWjVqA2EolY782NcI6Nt9YDyBYwD6voQntNAbMi0BTddOsXpFee04sBOZeiCyeGDNAbiorPyrl4hGifokkDON539uhfm6fo5r8moQAAAAAAAAAAZ4qRCgAAAAAAAAAADAFGKgAAAAAAAAAAgDGDpAIAAAAAAAAAAAiFpAIAAAAAAAAAAAiFpAIAAAAAAAAAAAiFhZrPUDKZVH+/9XLaDQAAAAAAAAAwPEUiERUURFVQEE0vQjxUWKh5jOvt7VNPT6/6+vpJKAAAAAAAAADACJBKpdTX16+enl719vaZ1ciDpMIgOckEAAAAAAAAAMDI5CQXEB5JhUHo7e1TMpk0iwEAAAAAAAAAI0wymWTEwgCQVBigZDLJCAUAAAAAAAAAGEX6+vrpSB4SSYUB6u/nxgIAAAAAAACA0YbYbzgkFQaIGwsAAAAAAAAARh9iv+GQVBigVCplFgEAAAAAAAAARjhiv+GQVAAAAAAAAAAAAKGQVAAAAAAAAAAAAKGQVAAAAAAAAAAAAKGQVAAAAAAAAAAAAKFEEh/3pFefSKVS6ZckJZNJ630yqWQqpWQyqYunXOTeftjp+uikWXRWJRI9ZhEAAAAAAAAADA+RQqlgnPVnpMCsHR1S/VKqT+o/bf15FhUXjzeLzqpJEy40i4aV450fKhqNKhqJKBKNKhKJKBq1xiZEIhHrvbkRAAAAAAAAAGAEKrxAKpooRceP3oSCZJ1bdLx1roUXmLU4x0gqAAAAAAAAAMBIVzjBCrSPNdHx1rljyJBUAAAAAAAAAICRrPACKVpklo4d0SJGLAwhkgoAAAAAAAAAMFJFCsfmCAVTdLzVFjjnSCoAAAAAAAAAwEhVMM4sGbtoiyFBUgEAAAAAAAAARip652fQFkOCpAIAAAAAAAAAjFSRArNk7KIthgRJBQAAAAAAAAAAEApJBQAAAAAAAAAAEApJhaHWsEbX3rFdHWb5CNVYW6XqbdnPJl/9mDbAe6FjW7WuraqyXrWNZrWkRq2164PavLHW3naQ9QAwnOR/Jp571nOzWjvazRoAAAAAAEYvkgrDUft2VVetUdYQyQCD0edM+3bV745p2e0lZo0lX/2Y1qEdP4srdudShW2dktu3aF9Tk3YtrzSrbHO1rqlJ+5o2qXzzIl+QbW5tk/Y1NWnjQk9xWr76nNq3q9oJ7lVVBd6fngDgIBMX7sSH5/zM7zfrG9Zkr5M8CZmgYzOP/dqqKq1t8HxCO+7ItX/XMeaqc16e9jP27Qtgeo/dt33OfWd4ztH4jKfdfduHOPczkvva5Jdje/O+CDoHz2fMtrc4bee9JzLC1l/ra99wbZv1d+GpDzh2497wHV+uevO+Cjr+XNu7OW1sHLvnvKqMc2jfrtWby7TRfubFdtf7z2+EIykPAAAAABiuSCpg0Dr2xqXlyzTXrLDlqx/T2p/VHtXornlmxdkwV+t21qhiKINspUu1pclKSuxratLGGXVabARmF8dj2uV8ZmeNtHn1AI7PCq6u1Kb0d+yrNe6siprM/s36eesz5U2Pq+bwClewrkM77lih1uWP2/VWUsYMgFak663XOte1a6xdpLoZzrFtUmy3e/920PgeaUFgwqZRa5fEtWCn6/hUp9Xp7Ut021bXeW0oU90SM+kYs4Or9murK1mV79rYwUvP9XFt37GtWisPZ9rW3L5j22rtiWXazjz3MxPu2mRnbL+zRnJv77kv7LavkCpmltkfaNTaVUq37a7lMtreui9XK6ZYuswtX32+ts/Xtvl+F1ZCJT6zRhWuUkuHdtzjuu82xBRf5U485Kk37qt9TkJyRrl9/I1au6RO5Rvs+p01avXs39GotavaFFsYnCyNOds3NWlf0xbdVmpXtDarpaJSzpWSmtXcmn4zZKxkrOu4AAAAAAB6/lfvac79nXrerMCoQVLhPGlz9UzNBInsHrVL6tSiuFaavTOdXp+r4lJLnRan6zNBro5t1are1uHp4WkG4Mxe12Z9+jgCerxmNOrRzdKC+dn62Zv1VvAr+LvcgSaj17XnGAJ6ZJu9b0P0Ks7N7BXuDd56e86ax71GO+y2rd7WaO8n+Bgaf14nxW50jVLwt0/Htuo81yCH0nKVn6cgmySVzfQGCDuOtLmCjc7xDUBDvRW0NxMJg1Kishmutw31qmtxj6iZq7uWVyr+dMi2b9+u+t2Vqvmmc2zW9i3xZ60e2+3btfrQMu3butQVAHVpb1WrylSWDkoax2cqrwwIEIdnXhu1b1f94Rrtcici0hr16OZmz4iaud+sUcXuPenfRcntW7TF1XaxhVLLoTb7/Rk602tjbl+6VMsWKvv27c9qj/F965rWpxOjJfNjqlCb2uzfdMe21Wq+s0lbbg++m/PV5277EG2b53fRWFuvyp1NWjffrJGdrHIFw+ctUMzzzMhXb2pU3PU76NhWr3iFK3FaulTLFjZrz15vwqmxdoXiC5fprpme4vzmLVCspU6PNliJI893yf63oLbR8++dL9lljFTJPH+tf2u8/14ZZZ5RGGaSz+IfaeE+BuPfGtcID+eYV+6WWjYvynzG8+9BuFEsQTq2VftGHPnLcozwkb/tfPUAAAAARob3TmjJ/e9pjvP66QkdNT8DBCCpcD601GnloWXp3p8tm+vtgIQ9fc3OGlV4eh7bgR2nZ+iGmNErOxP0kqwgRP1Mu3frhpjiq1wBD8+UEdbL3eM6rI5t9YovXJa1d6a/3gqUth7JHXhorN2jWPrYrJ65mcCOM72P9dq1vFIVyx/OfEf7dlWvalNNumdtUI/uXDq04w53j3Nv25o9tv29luOqO7TMvqYr1HxnkzYGBNGsIPQ5nhaqvVWtqlRllljmudWhvfFmxW7O3JUl82OqcPWybqxdoXhFTPOz3D+mxqfjqpjZ6gly+RNUYVnBT09CzNPjWSq5tEw63Bo4TZBPa7Na3OfSsEaLNzdLLc1qk/27zRL0lSSV3qgFFXGtdAJ6DWu00jw+l469cbUsXDDIEUD+a9OxN66WGdJeV4DSGyA07qPScpW7Auvn3Blcm44jbZKrrTq2VWvlbmXdvvHndQMaXVVy+5acz8989fnbPrd8v4u5tUPXg97/zHePWrCUzaw0kiJrtHJ3TBtz/T6yshNMqxZZozmCEjO7V2hx4L+1soLmTy/IPOs9/1ZaCRxP8qm9Va2KKeZKkmxpcv69DuCcW1NTegSMFm5KJ4k6ttVLP3D+nfGOTnKmutu40Bgh5Won7+goc/RVbiXzY6poiWuva1TK3nizKtKJ7nwjhKzRJel/a5uaXMkvAAAAACPG652a8+hpXb5oqg7cZ7++NVnTzc8Nwpe+OlUH7puiL5kVGDVIKpwPFTXa5QQH5i1Q7GwH6FyBi+D9xxXPGZC1g/dZAz3+wKRXcH2mh7SrV77RS3turTtBYgV2AhMR7du1Oh7Tw65AhjXdkivJMG+ZairynauL3as5OMDl77FdcvvDxv5dvdXNXrMuZxYUzsPpPbukztsWZyrb/OmBc88vUp05tVPpUm1pelwL4lav25XaFBwEDNShtsNSy+bmTMLJnIpFVrIuaPSOI9Nj2eoZ7emB3VKnRz0Bs3hmQ1v2HsO29EgiaWPTpoDfXTbW9Ea7YnHr+FdJG33TqWR6DS/eLNeoCEfAyCa3HNem7VCztDueCXB6pgiaq9jCZtX93BWKrV0hf+vY7ISI//gGKeS1ycs+/8XxmHbtrFGFk/Bxy5vs69COe+rUYgbOz0Dutjf42jbk7yIkK9GX/bmVu94amea+7lYi0TUFW/t2rd7cnK6X7HVlNniT4qb4qszzxpxSbPHmMs/oDd8aBDn/rZ2rdZ4p0rz15oicgU7n1/h03JXQKtH8WKUnmVVy+3pP0n1+zEi45NSouCcZU6Lb7ox5RkflfF6bo0bMETr29HyZf1+DRggFJMwBAAAAjCjPv9Gn8usn6MErzRqLNYWR88pMZXT0mfe15Jlubf2pU/e+tr5nV7pHPvhGPXTr++5REZ7pkU5p60/f19bXc22P4YSkwpjgmrKidKm2bIhlAjW+RVdDaKj3BSY9stSXXFpmBU3an1XzjJjkJAvcPZGNKRVW7nbtIM2e6/sH3qB026Fmb+C3apHqWlwfyKPjSJuvV7TX2ej57w++nXX2KJaz2nM0YP50s+esZ376O5u12B3Yb9+u6qpFar4z06s2KPCfiyf4OG+ZaiqM+9p1XLuWt2mlsX+n9+++pibtmlnvuvfnap37N1G1R7ENMU8va/e26eN3JxZa6rR4SbOWNTVZo1t8UxrlYiXZnB7V1rGbIzHco3SWqXmJu947gscaoWMElnNdG8k74seeIshJ5s2ttUYMOb+r+M2bFAs6t/btql4VV2yDmRDJwxcAdR9b/muT1+4VuvZnldYIo61LVeKbi9/S+PO6nMm+xlorIZMOUp8ludo+LUfb5vxdhGSN4IhpY5ZEX/76ev/Io9Kleni5VLfEvnb3SMuWV6bXq+jYtlp1MzblHMnhLB5vvaze8lbSwH6O7lyvdfb9Wb2tUW2HpfJLg44wmHd6IiNZZo8gspLGHdobzzXdn1/ZzEopnZQwRwL47/vFnoRLHu2tavUkEu1pER0hntdzb84kIXwJk9ZmtXiStObxWev2KP3v7cCe5QAAAACGg1Nq/UC6fOoFZoVkJxRqVJwewfDE9f2qcQX5W19I6K0bnDpp07PdVsXUydp531QdWFTo3p1toh50RkTY+9z0zClXfUqbnpPq7puqA/dN0Aqd1j+97qrGsEJSYUwwguGuAOPGGXVaPMDEQuPTcW9wxJC1vrxSFYdb1bg3Lt28TJWHnlVHa7NanABhOnCWCYJsDFjY1lq8NLgXvrmY7r4BTO9UcqkZZjSZwbo2NQ8gaSFJatjjD76dTaVLtSVL4O+M+AK/9iuox778vX6tgK0TQCzRbVsfV01FXPWhpusIN3WWmzX3fXbW9B+u3uqeBXvXq+xIm2uxXpPd69hRXqkKVapmpyu4myVwHcgYIVNy+xbtWl6p+M+y/S5zjOCR0/Y5GNfGNyWNjzdpsa68Va3mubVvV/WSOmn546F/b2m+AKjRc31A18bL+k17g+G+9T3kjFLIPsKisbYqZ1B9sPK3fa62HfjvIojV498K0Aedfb76oFFcDk8ybutS6VCzHfS3guxyJasWb3beZxtpYd33khNUdxJbToB7hepaXNMT5ZFOlKTvrU3G78b6ncefbrR77g/suW3de07g30pIZXr+W4tYy/Xv1a7lwQtVZ2cszm63cfrfUvNZbT6v5y1QrCWuve1ZEibmwvdNRhLZ9bsNSuICAAAAGO769VanWeY4pdYPIlpx48R0yfQri1TemVQ6LFZRnB7hMP3KIpV/0B9iVMEp1+iG9/TlF1Jqfb/f84mFNzjTL12gO741NesoCpx/JBWGo9Jyleeaoqi80pgPObt8c9f7Fm2VrICHGYBw5JsiJF+9pLZDZYrNK1GZ4nr0aTNA6EqANKzxj1RoWKPFxrRHjrk3x9SyeXWWgFSG0zvVN8WIPdWKM6+1lz3HtivQ61uINC97uo+A4JsjHSB05uUfIGuKn2xBuTPgC/wGBJlcAnsuu+exb39We1r8vYqzXRvr2rrmQ7cD8cEBRGeamhy9znP0Su/YVp31HpOse3z1Ztf0XqU3akFFs+ruce4N6zoHJtayck/LYgdczcC3ww6A+4KAtny/efPaBE1Tk3X/7dtVvcQYJeQKemcfHeMsKntm92bWa+MEUc0E6bwFiimulelnmR0AN6Zms+6H4GmN0gkFM9lxFuRt+zxtO7DfhV8mYeAfARGmXgN4DjbWWtOeZRKL3mfJruWV0sJNmTWETO61Rux/I9NJydIbtSBXFjEbV3IsaFqvkvmxdCK8PMdz28+Z2ikg4O+Sfv75poaylM10Lfju5qzDEvRvtMI+r+fqruVS3T2rtWeGce/n/LfQL39CHgAAAMDwU6DLp0hvveceKXBuHX3mpDZpnJ5Ij1SImB/BCBJJfNyTct6kUqn0S5KSyaT1PplUMpVSMpnUxVMucm8/7HR9dNIsOqsSiR6zaGAa1lhTcaQDDI1aW1WvSjNo07DGNZ1BpS+oYwV7nCBEJuDlLbd7G7p76Zr1rm0zGrW2aoXiCzf5gsYd26qtaVqyBpNz1Rv7tc8xtiEzmsAK4Nkfr6hRzYw67ZnpBNTs7d27tEcnpANunnZT4Pk53+H+Xlet8R3e7T3H56lzXcfWzDVuq61SvXP87dtVvaRZy3ztbbMDiC2yzn1jLG4t6F071w7KBkznZFyj7EFA87wsmbbLV5+H2e7GfRd0/EHtn+vaZLvn/XX+4zbrve1mHJvvvjeP3f97ND/j/f7gtnV/T+7jM7c3vt9se/P4zXrftTE/491/rnaX7zfh8LeRs5+ga5tdvmtjc347QedmtJ/v+xvW6NpVbb7jlYzfpJvxDDOlvyNfvczPeNstTNvmuj6++0pybW/eV7Z0G+arz7RPudmmkq/dzd+kyf9vh/n9xr1nXJuK5Zu0IG6NVtjYtF5z8/5bax5fjco3x33/FmdLKgW3retzQdfe1XbmdatZ3qY637+due5/87mUv419BnD9lPO+9v/eAQAAAAyxcYOI177eqTmP92vFXZ/SHVO9Venpj75qjVZwvz/6zPv68vuf8NRt+tQE7bzJNZXS652a81xUT7gWfvbus1vfvz+h3RXO+1Pa+tOP9NYNZ2l0wukPzZIBKS4ebxadVZMmXGgWDSvHOz9UNBpVNBJRJBpVJBJRNGqNTYhEItaLpMLAnHFS4RzzB2bOJjMoY8pXP7Y1uhMMwFiTK3gPjCpWwL/5Tnew3irbExtG/wbkS3QDAAAAGDkGk1SQk1joy7yfMs5OBFhB/k3OFEnpcmuh5i+/kA4nS+nEQMD+5Nr2vRNa8uhpewqliFZcX6BN7xeRVBiGSCqcA2M7qQAAA+X0eKY3M8YK656XewRAzlEB58MwTHIAAAAAGLzBJhUGwRypMCyRVDgjYZIKrKkAADiHnIWeSShgrJirdRtiiq9yLZI8bBIKzvomi1Q3YxMJBQAAAADAoDBSYYCG+0gFAAAAAAAAAGMIIxW8GKlwRhipAAAAAAAAAAA4K6bf9KnhnVDAkCCpAAAAAAAAAAAjVarfLBm7aIshQVIBAAAAAAAAAEaqVJ9ZMnbRFkOCpAIAAAAAAAAAjFT9p82SsYu2GBIkFQAAAAAAAABgpEr1Sckes3TsSfYwUmGIkFQAAAAAAAAAgJGs75SU7DVLx45kr9UGGBIkFQAAAAAAAABgpOv7aGyOWEj2WOeOIUNSAQAAAAAAAABGg75TUm+3PRVQv1k7eqT6rXPs7WaEwnkQSXzck3LepFKp9EuSksmk9T6ZVDKVUjKZ1MVTLnJvP+x0fXTSLDqrEokxmO0DAAAAAAAAgDGguHi8WXRWTZpwoVk0rBzv/FDRaFTRSESRaFSRSETRqDU2IRKJWO/NjQAAAAAAAAAAAIKQVAAAAAAAAAAAAKGQVAAAAAAAAAAAAKGQVAAAAAAAAAAAAKGQVBigSCRiFgEAAAAAAAAARjhiv+GQVBigggKaDAAAAAAAAABGG2K/4dBKA8SNBQAAAAAAAACjD7HfcGilAYpGoyosLDCLAQAAAAAAAAAjVGFhgaJRwuVh0EqDUFRUyA0GAAAAAAAAAKNANBpVUVGhWYwsiIwP0vjxRYxYAAAAAAAAAIARrLCwQOPHF5nFyIGkwhkoKipMJxdYGRwAAAAAAAAAhr9IJJJOJjBCYeAiiY97Us6bVCqVfklSMpm03ieTSqZSSiaTunjKRe7th52uj06aRQAAAAAAAAAAnHeTJlxoFg0rxzs/VDQaVTQSUSQaVSQSSS8FEIlErPfmRgAAAAAAAAAAAEFIKgAAAAAAAAAAgFBIKgAAAAAAAAAAgFBIKgAAAAAAAAAAgFBIKgAAAAAAAAAAgFBIKgAAAAAAAAAAgFBIKgAAAAAAAAAAgFBIKgAAAAAAAAAAgFBIKgAAAAAAAAAAgFBIKgAAAAAAAAAAgFBIKgAAAAAAAAAAgFBIKgAAAAAAAAAAgFBIKgAAAAAAAAAAgFBIKgAAAAAAAAAAgFBIKgAAAAAAAAAAgFBIKgAAAAAAAAAAgFBIKgAAAAAAAAAAgFBIKgAAAAAAAAAAgFBIKgAAAAAAAAAAgFBIKowVnc+pfs0mPfNns+Ic++A51a/ZPPTfCwAAAAAAAAA460gqDETyoH559yr9cPcxo+Kg/vnuVaq5e7tajJpjTz5klSeNiiHW8uRuvTnxKl3zabPmHPvkF3XNp48o/v8eNGsAAAAAAAAAACMMSYWBiM7S7Muk9ncOqddd/s5berVXUs8hvfmOu6JbLc2d0mWzVXE+Wzr5sva90qfZc6/XJLPunCvW1Z+fqcQrz2l/wqwDAAAAAAAAAIwk5zPUPSLNnjVTOvyW3nSNPDj25kF1feoqXXdJt1rbujMVyYNq+ZM0e9blmbKeTrW+8pL2Nx1U+8m+TLmk3pPd6joR8DI+p56jammy9nGsx1sVqPlNvZGcriuuKPaW9ybU/sZL2t/0mlo/ML5DfUqc6Fai1/V9bxy13rv0dnUr0SOp1z6vVw7puHFMRZ+/SrOTh/QmgxUAAAAAAAAAYESLJD7uSTlvUqlU+iVJyWTSep9MKplKKZlM6uIpF7m3H3a6PjppFp1dx/bohz9oUkXNWn3ls5KU0Is/vU//OnW5qk//d/3kxJf1429dryJJOrhddz/6nm6tXaF5k6Vju3+kH8aPSRdOVHFBnxJdvboktlzfWzhdkvTqz1fpsdeN75Okz31ddf/7VZKkY89s1uYnjyhRPFHFSqjrZJEq/naZ/uEmax9Bjv3mIT34hzn6/r0LdIldljjwCz247TUlxk9UcVGfEh8lVHzlUn3/f/+CrNTDy9ry7e3qvekWHd+7V8cnFEuJbiV0ib7y7e/K+rpjeuqBH2n/Zbeo9JXf6tXoRBX3daurt1jX3P6Pqp7jJDG61fDjdXpy2jf0yNJZVlHnc/rJj36r3vn/oBUx56gAAAAAAAAAYPSaNOFCs2hYOd75oaLRqKKRiCLRqCKRiKJRa2xCJBKx3psbIY9LZqliUrfefNNeVyH5lt4+XKirr7xUFbMu84xiaH/9kBKfnKWKyZI+eEFPNp3S1V9bqx8/uFYPrL9fD3ztMh2PP6EX7WmBrv7mBtX9t8zr+7dcIkWn6+++YiUU9Oc9euw376niq/Y+HnxYD3y1TH/6zS/0VNaFkBN650+dUsn0dEJBPYf09NOHdPH85Xr4B9ax/Pg7N+iCP/xGcc/0TdKrLxzVTbUP65H1a/XII/+or5Ud17/8j8fV7vrMuy8e0JS7HraO6ZH7taKqWPu3/cI13dFEXTKtUIl331OXU9TVpeM9Cb3b6RrZAQAAAAAAAAAY1kgqDNilml1ZqHeb37IC5M1v6o1kmUrLJM26XLOT7Wptk6Rutf6xW5MqZ1nB/E9er2/UrlV11cT0nopLp+ov1KnuE5m9px3do18806Vrbl+meVOsovbnm/TuZ27RV1z7mHTdLbpuUqdeecVcPNrRpe4PpWlTp2aKxs/Urd+9Xyv+9lJrRIUkffoSXaJudRnHMm3erbrGWYghOkXXLazSpBN/0H538uHKhbq1rNB+U6zyv71Bs5OHtP9AZhGFv/iLSVIioXRJ2Ze1duMGPfK1menPAAAAAAAAAACGN5IKg1Ax6zLpT4fUmrRHI3xmlq4ollT8OV3xGXsUQ+IPeuNP1ggGR++xl/XUL+v1wzXrdO/dq1Tzo+f0rmfPtpMva8tPfivdtMw1hZB0/D+6pXd/a22ffv1PvZiQ2o92eHaRV9cRvbjrMW1av0733rNaNSt/rVfNz0gqLTGmJvpsmSqM5MO0aSXuT0jFM/XZT0qdH6bHJVj+45iOe0sAAAAAAAAAACMISYXBmHW5ZutttTQfU8uhbk2rvFxWZ/6JKv9PE61RDG1tao1epopKe5u2J/TQI9v1YleZ5i1eqhX3rNWPv3uLpnl2LCl5VE/Vbdf+Sbfo6/85YJ2Ezy7Q91au9Ly+//21euBr9hRJYSRe0mP3b9a/vD1RV8f+Xsvu/r4e+dFSXWN+TlKvsTCzkr0yi5T0L/J82rWQddpfXKKLzTIAAAAAAAAAwIhBUmEwij+nKz7Tp9bDL6v12ETNnp3pzV965UwVH23TvrePKDHjcs22W/jY66/p+OQbtOyuBbru8zN18eSJKupJ6FRmr9bnnvyFnuyapW/ULNAlxtWZNm2KdOw9dU2eqEmuV3FRsSZd6Ew/ZLpEl3xKevfokUzRwdf0au8s3fbdv9dNVbNUOnmiivtO+Y5FklqaD3oLDr6tFk3RtE9nit5tPphZK0GSOg/q7U7vKIfj73VKF02UPZMTAAAAAAAAAGAEIqkwKBNVUTlF7S81qXX8TM3+rKuqcrauUJt+t79TpZ+dmV6zYMrFU6QTb+n371i9+ns7D+pffvWCJxifOPCYNj7TpatvXaTy3m51nbBfXdY2l9x4g2Z3vaDHtr+s4z3WCIFjv6vXvd9fp382Yv9u5ZdNl955Wy1OwZQpulhterWp0xp10HNUL/7PPXrTs5Ul8cqv9csD1ud6O1/Slm0vK3HZDZrnSiroz8/psd1H1JuU1HNETz66R62Tr9dNn3c+cEQtbdK0SzPtoc7n9JN77tOmeLa1IAAAAAAAAAAAw03BvffeV2sWOlKplPMXpez3FxRn5vgfjnpO+ybnOScmFH6gF353SF2zbtbtc1wR9shknTq0R//+54m65r/8F11+kVVc8JkrVHL0t/pfv9mj3Xue0lONR1R6/VU6fahTJV+apxkTpTf/dYdeei+pY2826Jm9z2Ver0lz/mqmJoz7T7q6MqqW3z6h//Wve7Q7/ls1HOpVxa136utfdFZT9hv/if/Qy8+9JlXMt45n8izNSv27dv0/1rHsfuZVnZ77RZU2H1HB1X+jqz8tSe/q1T2vqWTRHRq/p07/41+e0lPPvaH3P329/s9v/o0+NU6STurw7xrVVbVY1x36/2vTr/5Nu3/7kv5YMEtfXX6brrjQPoC2Z/Wr507oC3/7X1Qx2S479pp2Nx7Sh1M+p7++ivELAAAAAAAAAEa/8ePGmUXDSiLxsSKRiO8lKfM+8XGPnTmwkgbOS5KSyaT1PplUMpVSMpnUxVPsKPkw1fXRSbNoeOnpVldCKp40UUVnME6k92S3Er2FKp5cnOn9n1WnnvnRQ4pf8g09Uj0rU9ybUNfJPhVdOFHFvp28rC3f3i5Vb1D1HKm3q1uJAnOapWN66oEfaf/nv6t/vPUS65j6izVpkncqpvZd6/TDw9frge/eYq89AQAAAAAAAABjz6QJTk/s4el454eKRqOKRiKKRKOKRCKKRq1AtpNUOIOwNgZlvLUOwpkkFCSp6MKJmhQqoSBJU3TTrV+QXnlOL7pzLkXF9poMrrIsiiZNzLFug6Xowom+hIJOvqAnn0/ompuvJ6EAAAAAAAAAACPcGYa2MWLMWqpHNi7TdUOdCLvwei3b+LCq5wzvabMAAAAAAAAAAPkx/RGy6FPiREIKnBopo7erW33jJ6p4vFkDAAAAAAAAAHBj+iOMYoUqDjE1UtEkEgoAAAAAAAAAMFaQVAAAAAAAAAAAAKGQVAAAAAAAAAAAAKGwpsIZSiaT6u+3Xk67AQAAAAAAAACGp0gkooKCqAoKoun1AoYKayqMcb29ferp6VVfXz8JBQAAAAAAAAAYAVKplPr6+tXT06ve3j6zGnmQVBgkJ5kAAAAAAAAAABiZnOQCwiOpMAi9vX1KJpNmMQAAAAAAAABghEkmk4xYGACSCgOUTCYZoQAAAAAAAAAAo0hfXz8dyUMiqTBA/f3cWAAAAAAAAAAw2hD7DYekwgBxYwEAAAAAAADA6EPsNxySCgOUSqXMIgAAAAAAAADACEfsNxySCgAAAAAAAAAAIBSSCgAAAAAAAAAAIBSSCgAAAAAAAAAAIBSSCgAAAAAAAAAAIJRI4uOe9OoTqVQq/ZKkZDJpvU8mlUyllEwmdfGUi9zbDztdH500i86qRKLHLAIAAAAAAACA4SFSKBWMs/6MFJi1o0OqX0r1Sf2nrT/PouLi8WbRWTVpwoVm0bByvPNDRaNRRSMRRaJRRSIRRaPW2IRIJGK9NzcCAAAAAAAAAIxAhRdIRROl6PjRm1CQrHOLjrfOtfACsxbnGEkFAAAAAAAAABjpCidYgfaxJjreOncMGZIKAAAAAAAAADCSFV4gRYvM0rEjWsSIhSFEUgEAAAAAAAAARqpI4dgcoWCKjrfaAuccSQUAAAAAAAAAGKkKxpklYxdtMSRIKgAAAAAAAADASEXv/AzaYkiQVAAAAAAAAACAkSpSYJaMXbTFkCCpAAAAAAAAAAAAQiGpAAAAAAAAAAAAQiGpgJwaa6tUva3DLE7z1zdqbVWVrq0yy+3aWqtusPUAMJx0bKtOP7OurW00q4eE9dys1o52swYAAAAAAODsI6mA7Nq3q353TMtuLzFrLIH1c7WuqUn7mjapfPMiX5Btbm2T9jU1aeNCT3Favvqc2rer2gnuVVXp2ju2y0xLeAKAg0xcuBMfnvMzv9+sb1iTvU7yJGSCjs089murqrS2wfMJ7bgj1/5dx5irznl52s/Yty+A6T123/Y5953hOUfjM552920f4tzPSO5rk1+O7c37IugcPJ8x297itJ33nsgIW3+tr33DtW3W34WnPuDYjXvDd3y56s37Kuj4c23v5rSxceye86oyzqF9u1ZvLtNG+5kX213vP78Rzp84BgAAAAAgt+d/9Z7m3N+p580KjBokFZBVx964tHyZ5poVttz1c7VuZ40qhjLIVrpUW5qspMS+piZtnFGnxUZgdnE8pl3OZ3bWSJtXD+D4rODqSm1Kf8e+WuPsK2oy+zfr563PlDc9rprDK1zBug7tuGOFWpc/btdbSRkzAFqRrrde6+Zl6hprF6luhnNsmxTb7d6/HTS+R1oQmLBp1NolcS3Y6To+1Wl1evsS3bbVdV4bylS3ZI284deYHVy1X1uXKp1uyndt7OCl5/q4tu/YVq2VhzNta27fsW219sQybWee+5kJd22yM7bfWSO5t/fcF3bbV0gVM8vsDzRq7Sql23bXchltb92XqxVTLF3mlq8+X9vna9t8vwsroRKfWaMKV6mlQzvucd13G2KKr3InHvLUG/fVPichOaPcPv5GrV1Sp/INdv3OGrV69u9o1NpVbYotrDQrJEkxZ/umJu1r2qLbSu2K1ma1VFTKuVJSs5pb02+GjJWMdR0XAAAAAABhvHdCS+5/T3Oc109P6Kj5GSAASYWh1L5d1VVmINbuIevuWWv0XHYHL4N6q5s9a72fCfi+dO/b4DpLox7dLC2Yn2WUQt56SaXlKj9PQTZJKpvpDRB2HGlzBRud4xuAhnoraG8mEgalRGUzXG8b6lXX4h71MVd3La9U/OnsV8ijfbvqd1eq5pvOsVnbt8Sfte6r9u1afWiZ9m1d6gqAurS3qlVlKksHJY3jM5VXBgSIwzOvjdq3q/5wjXa5ExFpjXp0c7Nid2bq5n6zRhW796Tv35Lbt2iLq+1iC6WWQ232+zN0ptfG3L50qZYtVPbt25/VHuP71jWtTyfvSubHVKE2tdmB8Y5tq9V8Z5O23B58N+erz932Ido2z++isbZelTubtG6+WSM7WeUKhs9boJjnmZGv3tSouOt30LGtXvGKGt3lJN9Kl2rZwmbt2etNODXWrlB84TLdNdNTnN+8BYq11OnRBitx5Pku2c/y2kbPM9mX7Mr6vLeSMd7klVHmGYUR/Dz3j7RwH4MxCsX175BzzCt3Sy2bF2U+4/n3JtwoliAd26p9I478ZTlG+Mjfdr56AAAAAEB2r3dqzqOndfmiqTpwn/361mRNNz83CF/66lQduG+KvmRWYNQgqTCUSstV7goGBmvU2qcXZHrFbogpvioTLCq5fYurx+wmxRTTRncwr2GNFqen42jSruVtWumbKia/jm31ii9clrXna756yQlUV6oySyzz3OrQ3nizYjdn2qZkfkwVrl7WjbUrFK+IaX6uc3BpfDquipmtniBX+N7qJiv46UnKeHo8SyWXlkmHW8Ndu9ZmtbjPpWGNFm9ullqa1Sa7R3eWoK8kqfRGLaiIZ+6VhjVaaR6fS8feuFoWLsgySiUf/7Xp2BtXywxprytA6Q0QGvdRqN/SWXQG16bjSJvkaquObdVauVtZt2/8eV2OEUB+Jbdv8YxYMeWrz9/2ueX7XcytHboe9IHPJXci0U5oeZMia7Ryt/EcDc1OMK1aZI3mCErM7F6hxYeWpZ/nLZvrXcH/XM97K4HjST61t6pVMcVcSZIt9giMwCSfc25NTekRMFq4KZ0k6thWL/3A+ffEOzrJ+bdm40JjhJSrnbyjo8zRV7mVzI+poiWuva5RKXvjzaqI3Wi3Yb4RQtbokpr06KomV/ILAAAAAJDP82/0qfz6CXrwSrPGYk1h5LwyUxkdfeZ9LXmmW1t/6tS9r63v2ZXukQ++UQ/d+r57VIRneqRT2vrT97X19VzbYzghqTCkylTpRH5coxa8Pejnap1nypwFimUJnjbWrpA2ZHowyw7wxVxlJbcvU8wTuLFY02V4t83wB3298tQ7vWeX1EnLHz57AcVs86cHzj2/SHUyeg2XLtWWpse1IG71ul2pTcFBwEAdajsstWxuVswTADSmUmmp0+L0sfl7Dmd6LFs9oz09sFvq9KgnYBbPbGjL3mPY5rTRKmlj06as946fNb3RrljcOv5V0kbfdCqZXsOLN8s1KsIR18r0uQdMMZPj2rQdapZ2xzMBTs8UQXMVW9isup+7QrG1K+RvHZudEPEf3yCFvDZ52ee/OB7Trp01qnASPm6B65S4dWjHPXVqMQPnZyB32xt8bRvydxGSlegzfrcuueut0VPu624lEl1TsLVv1+rNzel6qUM7fuZ9ZgaJr8o8b8wpxRZvLvOM3vCtQVBRo13OM933PM/9vDdH5OSecs6v8em4K6FVovmxSk8yq+T29a77yKoPP8KnUXFPMqZEt90Z84yOyvm8NkeNmCN02p/VHtXo4ZwjhPyjTgAAAAAAYZxS6wfS5VMvMCskO6FQo+L0CIYnru9XjSvI3/pCQm/d4NRJm57ttiqmTtbO+6bqwKJC9+5sE/WgMyLC3uemZ0656lPa9JxUd99UHbhvglbotP7pdVc1hhWSCkOqRGUzrKk7OvY2q3yh0sGjzPzp5nQVWYKnDWu0UpuMHshWgM8dAMu6fS4N9b6gr0e+emXWFjirPUcD5k83e8565qe/s1mL3YH99u2qrlqk5jszvWqDAv+5eIKP85appsI1FYtxfLuWt2mlsX/3SJNdM+tdU33M1boNMde126PYhpinl7V3lIp9/O7EQkudFi9p1rImO2Hkm9IoF2saE6dHtXXs5kgMZxHuJu1rWqbmJe56d52z5oIRWM51bSRVuBNQ9hRBrUfs1qm15vJ37uv4zZsUCzq39u2qXhVXbIOZEMnDFwB1H1v+a5PX7hW69meV1poFW5eqxDcXv6Xx53U5R4A01loJmXSQ+izJ1fZpOdo25+8iJGsER0wbsyT68tfX+0celS7Vw8uluiX2tbtHWra8Mv287di2WnUzzOeol7N4vPWyestbSQM7ibFzvdbZ92f1tka1HZbKLw06wmA5n/f2CKJ4g+xkbp4p5wxlMyuldFLCHAngv+8XexIuebS3qtWTSKzSte5kW4jn9dybM0kIX8KktVktniSteXzWuj1KJ1oH9iwHAAAAgLGtX291mmWOU2r9IKIVN05Ml0y/skjlnUml/1e/ojg9wmH6lUUq/6A/xKiCU67RDe/pyy+k1Pp+v+cTC29wpl+6QHd8a2rWURQ4/0gqDLGymZVqPdKovXEp9s1KNe/tUNuh5nQQKh04cwWx/Iur2gu3ZgksehcVbRrwAp6NT8e9gSdDvnqVLtWWLIG/M+IL/NqvoB778vf6tQK2TgCxRLdtfVw1FXHVh5quw1pjwBdozcGa+z47a/oPV291z4K961V2pM2TbPKyex07yitVoUrV7HQFd7MErgPZ8/4791TJ7Vu0a3ml4j/LNnWWNTVL1vaYtyDgvnUxro1vShofb9JiXXmrWs1za9+u6iV10vLHcwaJA/kCoEbP9QFdG6+SS8usRazdix+b63vIGaWQfYRFY21VzqD6YOVv+1xtO/DfRRCrx78VoA86+3z1QetuODzJuK1LpfTz1gqyy5WsWrzZeZ9tpIV130tOUN1JbDkB7hWqa3FNT5RH/ue99TuPP91o99wPP12b0veeE/i3ElKZnv/WItZyTW20a3nwQtXZGYuz221copDP63kL7JF0WRIm5sL3TUYS2fW7DUriAgAAAACyKdDlU6S33nOPFDi3jj5zUps0Tk+kRypEzI9gBCGpcF60qnnGAs0tLZfi9YofNuaLdwVL/dO8WPNMm9MeWewAlGsNhmyyLtScb/qVfPV2oCx7UO4M+AK/AUEml8Cey+557Nuf1Z4Wf69ip+ewOf3L3JuN+dDtQHxwANGZpiZHr/McvdI7tlVrcTzmCgAa7Glc0lNQld6oBRXNqrvHSQJY07rkTP74uKdlsQOuZuDbYQfAfUFAW771KsxrEzRNTdb9t29X9ZK4FvzAFUB2Bb2zj45xFpU9s3sz67VxgqjmGibzFiimuFamg6l2ANyYPsy6H4KnNUonFMxkx1mQt+3ztO3Afhd+mYRBcPIzX73S91Oe0VNOO6ZHeFlTfrmfJbuWV0oLN2VPxLrXGiktV7lcScnSG7UgVxYxm5zPe/v6HG5V4964ygOSJtk5UzsFBPxd0s8/39RQlrKZrgXf3Zx1WLIldUM9r+fqruVS3T2rtWeGce/b0445azzkYyVQAAAAAADhXKA7bihU6wsnM+shuOrKP5nKTGkk6flnT6u1oihw4eXnnz0tzRqXd4Hn1vdT0icL7M91659eSJkfwQgSSXzck76CqVQq/ZKkZDJpvU8mlUyllEwmdfGUi9zbDztdH500i86qRKLHLBqYhjW6dpUV6Fk3LyhY2Ki1rikwKpbXqHxzXJV2QM0KsJmBH2+w0feZihrtMoJJ/u+1dGyrtqbAyRqoz12vnEFA77k5KtLBynz1edhtm+Y77w7tuGOR6loyH3Gug5vVNsF13rbN3e7mcZv1WrjJ1Y7GsXnqAupVGdC+3s94vz+4bd3fk/v4zO2N7zfb3jx+s953bczPePefq93lumZe/jZy9hN0bbPLd21sdvC9JejcjPbzfX/DGl27qs13vJJrv0Zx+jjMtrWlvyNfvczPeNstTNvmuj6++0pybW/eV7Z0G+arz7RPudmmkq/dzd+kyf98M7/fuPeMa1OxfJMWxK3RChub1mtuwxpr2qv0/dCotVX16ee5uX/zee/I+bz2ta3rc0HX3tV25nWrWd6mOt/zPdf9bz6X8rexzwCun3Le1/7fOwAAAACMGeMGGa99vVNzHu/LvJ8yTk98a7Km65S2/vQjbXKmSEqXWws1f9mdEKgo1oGv2lMlmfuTa9v3TmjJo6ftKZQiWnF9gTa9X2Rva33fWzecpSmPTn9olgxIcfF4s+ismjThQrNoWDne+aGi0aiikYgi0agikYiiUWtsQiQSsV4kFQbmjJMKw5oZ8DLlqweGuVzBe2BUsQL+zXe6g/VW2Z7YAAP/51L7dlUvadayczAKBwAAAADGjMEmFQbh6DPv68vvfyKTSBiOSCqckTBJBaY/gstcrcs27YcUoh4Yrhq1tqqKhALGkDY1m8Nbskz5dv5Y08R5FmgGAAAAAADDHiMVBmh0j1QAAIwavimCAqbeOi9c0yZlm04MAAAAABAeIxW8GKlwRsKMVCCpMEAkFQAAAAAAAAAMG0OYVBgRSCqckTBJBaY/AgAAAAAAAAAAoZBUAAAAAAAAAICRKtVvloxdtMWQIKkAAAAAAAAAACNVqs8sGbtoiyFBUgEAAAAAAAAARqr+02bJ2EVbDAmSCgAAAAAAAAAwUqX6pGSPWTr2JHsYqTBESCoAAAAAAAAAwEjWd0pK9pqlY0ey12oDDAmSCgAAAAAAAAAw0vV9NDZHLCR7rHPHkCGpAAAAAAAAAACjQd8pqbfbngqo36wdPVL91jn2djNC4TyIJD7uSTlvUqlU+iVJyWTSep9MKplKKZlM6uIpF7m3H3a6PjppFp1VicQYzPYBAAAAAAAAwBhQXDzeLDqrJk240CwaVo53fqhoNKpoJKJINKpIJKJo1BqbEIlErPfmRgAAAAAAAAAAAEFIKgAAAAAAAAAAgFBIKgAAAAAAAAAAgFBIKgAAAAAAAAAAgFBIKgxQJBIxiwAAAAAAAAAAIxyx33BIKgxQQQFNBgAAAAAAAACjDbHfcGilAeLGAgAAAAAAAIDRh9hvOLTSAEWjURUWFpjFAAAAAAAAAIARqrCwQNEo4fIwaKVBKCoq5AYDAAAAAAAAgFEgGo2qqKjQLEYWRMYHafz4IkYsAAAAAAAAAMAIVlhYoPHji8xi5EBS4QwUFRWmkwusDA4AAAAAAAAAw18kEkknExihMHCRxMc9KedNKpVKvyQpmUxa75NJJVMpJZNJXTzlIvf2w07XRyfNIgAAAAAAAAAAzrtJEy40i4aV450fKhqNKhqJKBKNKhKJpJcCiEQi1ntzIwAAAAAAAAAAgCAkFQAAAAAAAAAAQCgkFQAAAAAAAAAAQCgkFQAAAAAAAAAAQCgkFQAAAAAAAAAAQCgkFQAAAAAAAAAAQCgkFQAAAAAAAAAAQCgkFQAAAAAAAAAAQCgkFQAAAAAAAAAAQCgkFQAAAAAAAAAAQCgkFQAAAAAAAAAAQCgkFQAAAAAAAAAAQCgkFQAAAAAAAAAAQCgkFQAAAAAAAAAAQCgkFQAAAAAAAAAAQCgkFQAAAAAAAAAAQCgkFQAAAAAAAAAAQCgkFQAAAAAAAAAAQCgkFQAAAAAAAAAAQCgkFQAAAAAAAAAAQCgkFc7EG9t197dXqeanL6jXrDubDjymmm8/plfN8oH48x499O1VqllZr/0Js9LmnM8De3TMrAMAAAAAAAAAjHkkFc7Aqy++LH1muqa9/ZIaOs3a4eqQGn4XdLAJ7f/dy8qWbwAAAAAAAAAAgKTCYCVe0otvFuqa/7xYn5t8VK/+3h+o7+3qVqJHUm+nWl95SftfOaTjPcaHerrV1dUnqU9db7+m/U2vqfWDPuNDwXo7D+nNJmu/XaGGSkzR7MsmqvXF59RuVp14SQ3NEzX7silmjaQ+Jf50UPubXtKbb3eqN2nUnehWoldSz1G1NL2k/W8ctd6beux2aHpNrZ3hzhEAAAAAAAAAMHwU3HvvfbVmoSOVSjl/Ucp+f0FxsfmxYaXndFA0++zr3f+Etr/9Gf3tV+fpMx++qH99NaI5fzVTE9KfOKanf/SQdr2fVOsvf6EnDv5Rh//QqKeeatD7n7pOV3+6yPrUnh9r3f9zTAUtv1b9b99Q69uv6Lmnn9ILHZ/SdV/4tIok6c8va/er0pwFczRNkpRQyy9/pEd2vKjX/timt//wknbveUEflVbpiqnWfn0+OqSGF/6sK265Usf//Q+KXj5fFZMz1V3PPa5dH1Rq4ewP9Oq7n9ZfOedy8mVtWbdJWxrfUmvrO3rt90/rief+rJJrP69p4yTpVf1y9Wa92p/Ubx/7tV440qY39z+n3U+/qvFXXK/ySdb+Ewd+oXWbdqqx5Y86fOg1NT71W72amqXrL7M+0PKrdfrhr49q+rWf06eynAIAAAAAAAAAjGTjx40zi4aVROJjRSIR30tS+u+MVBiUhPYfOKTiK+aoIiqVzvmcLv6gSb9vMz8nvfviAU2562H9+MG1euCR+7Wiqlj7t/3Cu67BBy9p/5Rv6seP3K8HHnxYj3zri7rgD9v1ixeDJyPqPbBDj/2+SDd++wE9sn6tHvjBA/rel4rUsGWHXg3eJKNsrq77ZLcafnfQVXhEv3vxqC7+3Bx9xlUq9ak1vlctU27Q9x66Xw+sX6sHfrBCf1P8mv753454PvnqC0d1U+3DemT9Wj3yyD/qa2XH9S//43F7RMQRxf/lNRVdt9xqh/X364GvzVLi9ZfU2iNJCSVOJJT4qFP/YY7kAAAAAAAAAAAMGyQVBqPzBe17u1Cf/8tZ1vuyOfrLyd3a93tvoF2SdOVC3VpWaL8pVvnf3qDZyUPaf8AV/Y/O0n/5yqXWqARJxZd9WTdeJr154EDAAtAJ7X/xoPSXt7r2W6jShTdods9BvdpsfNznEl37v01X4pXnMomNdw5o34npmjf/UuOzhSpfvEIPfOfLKnUOLjpdn/mU1PUf3umeps27VdfYoxIUnaLrFlZp0ok/aP87mc/0nuxUlz11UnHV17X2u4tUPl6SinX1XQ+rbuNyXecaPQEAAAAAAAAAGF5IKgxC1+9fU6suUfFHL2l/00va33RM4y4pVtf+59XiWW9AmjatxFtQPFOf/aTU+WFXpmzKdE3zXIliffbSKdKH3fKv1NCl7g+lxB926N416zKvH+zR21Gpvf2YuYHPpL+6XrN1SPtfsbIKLc83qavyes0LWk4h2a323z2ux378kO5dc5++8+1Vesw9yMFWWnKJt+CzZapQt7pOSNKlin3lKukP23Xv3ffpoR8/pid/F3YdCAAAAAAAAADAcEFSYcCOad/vj0o6qmd++WttsV9PNiekntf072bAPWkuSNyn00biQcmA6Lr5GcO0a76u761c6Xp9T2vXrNWKvzaC+0GKv6ibPl+oNxtfUlfyZe17pU+zP39VeqRERkKv/o8H9cPdhzTp6ltU/X98T2sffFjfuNL8nNRrnkKy1zPKonjO1/XAI/fre/91ga4p6dUfnqjXvbW/9iVhAAAAAAAAAADDF0mFgWpr1IsfFGreXRtU99/cr3/UV6b36cUXX/Z8/N3mg3KNSZA6D+rtTqNnf+chveEZktCpN5o7pWmXyJ8iuESXTJPe/aBTxZMnalL6VayiomIVjzc/H6ziS1Wa9KcD2r/3gPYXfUE3VQUtwP2WXj3Yp6u/8l393S1fVMVnJmrShb06FbDuQUuzkU05+LZaNEXTPm297e3qVFdfsUqvuF5/87Vl+sdv36BpJw+EmK4JAAAAAAAAADBckFQYoPbf/0HHJ1XpOns5hYwpuuYvp0tvNnkXYf7zc3ps9xH1JiX1HNGTj+5R6+TrddPnXZ+JHlX8/96j9h5rZEP7bx7TvxydqJtu+oLrQxlX33S9Lm5+Qo/GDynRK6m3Uy3/vEl337dZDf75koJ9do6unXxU8fjburjqS6oIvBOmaMpkqeW1l6ypipJ9Ova7X+hf3jY/JyVe+bV+eaBT1uG8pC3bXlbishs079OSEi/psdqHVP/kQWtNhWSf2v/9Lb0bna5SO+nQ8qt1unvNdr2Zb6FpAAAAAAAAAMB5ExhKRhbJg2rY361JV81RqVknadJ1X9Ts5CHt+30mMj5t/pd1TfPP9Z2Vq1Rz92Y9m5ilr/3DIpW6W37KDbrtC29r892rVLNytX7YcErX/N1yfeWzrs+4fXaRVvzXq9T1TL3u/u4q1Xz3If1kvzTvG8uC10UIdKn+6rrpSvRM0nXXmQs0Oy7Vrf/HLbq4+de697vWsW1+ZZbm+RIq0jVf+XsV/uYhfefbq/Sd9b/Wq5+8Xiv+6/UqljXd0te/8UX1vfSY7l1pn+ML0rxvfNNemDmhxImEEh916j8CRkEAAAAAAAAAAIaHSOLjnpTzJpVKpV+SlEwmrffJpJKplJLJpC6ecpF7+2Gn66OTZtF5ckxPPfAj7f/8d/WPt16i3pPdSvQXa9KkQu+nnnxID74yR9+/d4Eu6U2o62SfiidNVFHIdE9vV7cS8u/37OpT4kRCvUXFmnSh+T0va8u3t0vVG1Q9xz6egqDPWYbmeAEAAAAAAABg+Jk04UKzaFg53vmhotGoopGIItGoIpGIolErWB2JRKz35kY4N4ounJg/kF5UrEmTwycUJKloUoj9nrFCa/2GLIkCt6JJuT83NMcLAAAAAAAAADgXBhC+BgAAAAAAAAAAYxnTH51DvV3d6hs/UcXjzRqXnm519Yzk6YCsqZF04UQVF5l1AAAAAAAAAAAH0x8hp6JJeRIKkjR+pE8HZE2NREIBAAAAAAAAAEY/kgoAAAAAAAAAACAUkgoAAAAAAAAAACAU1lQ4Q8lkUv391stpNwAAAAAAAADA8BSJRFRQEFVBQTS9XsBQYU2FMa63t089Pb3q6+snoQAAAAAAAAAAI0AqlVJfX796enrV29tnViMPkgqD5CQTAAAAAAAAAAAjk5NcQHgkFQaht7dPyWTSLAYAAAAAAAAAjDDJZJIRCwNAUmGAkskkIxQAAAAAAAAAYBTp6+unI3lIJBUGqL+fGwsAAAAAAAAARhtiv+GQVBggbiwAAAAAAAAAGH2I/YZDUmGAUqmUWQQAAAAAAAAAGOGI/YZDUgEAAAAAAAAAAIRCUgEAAAAAAAAAAIRCUgEAAAAAAAAAAIRCUgEAAAAAAAAAAIQSSXzck159IpVKpV+SlEwmrffJpJKplJLJpC6ecpF7+2Gn66OTZtFZlUj0mEUAAAAAAAAAMDxECqWCcdafkQKzdnRI9UupPqn/tPXnWVRcPN4sOqsmTbjQLBpWjnd+qGg0qmgkokg0qkgkomjUGpsQiUSs9+ZGAAAAAAAAAIARqPACqWiiFB0/ehMKknVu0fHWuRZeYNbiHCOpAAAAAAAAAAAjXeEEK9A+1kTHW+eOIUNSAQAAAAAAAABGssILpGiRWTp2RIsYsTCESCoAAAAAAAAAwEgVKRybIxRM0fFWW+CcI6kAAAAAAAAAACNVwTizZOyiLYYESQUAAAAAAAAAGKnonZ9BWwwJkgoAAAAAAAAAMFJFCsySsYu2GBIkFQAAAAAAAAAAQCgkFQAAAAAAAAAAQCgkFYZawxpde8d2dZjlI1RjbZWqt2U/m3z1Y0r7dlVXVenaqipdW7VGjWb9iNKhHXdUaW2DWZ5No9amz71aO9rN+nOvsdb+/mH/+8vSts79Uzuy7xwAAAAAAACMbCQVhqP27arOFXQeLomJ9u2q3x3TsttLzBpLvvqxpnSptjQ1ad/OGlWYdSNNQ73qVKO75pkV2czVuqYm7WvapJhZNUTm1jZpX1OTNs6o0+Jcv6+xKN8z50w0rLGTSfbLlxRxJ5wGm3Dz7sOdkEknkwKTWlYCJ7jO5kkGmske89gDklae8w/Yv6SObdUB+7aYx+/5TL62NY7d/EzOfadlb1uzzpdADnHuZ8JpN+s1iPsm6/GZ90WIz5htb7PaONu52+1n3jNpOdo+530Z9JmAY8iVqMzaNhbPvWMcv3lfBR1juGvntLHx/XnuawAAAADn3/O/ek9z7u/U82YFRg2SChi0jr1xafkyzTUrbPnqMXI1Ph1X7M6lGonporm1j6umIq56MwA63DlJqdoR9ouat177mqyEzr6mx1VzeIUr+NyhHXeskDY49U3auDCulQMJELZvV3WVdx/rjGRXzFW3r2mLbit1akp021ZX3YYy1S1xBzgbtXZJncqd7XfWqHWVGWCNaWN6303at9X1u2jfrupVbarZadXtWi5j/1bQdLVigcm2jm3VWqlNruOLKb7KtX3OtrVV1GiX+/hc94+TaMt6bjnb1rp2rcsft+s2qXzzIlfguFFrVyndNv5zP0MNa7R4c5lr/21amTU4HyDntTHuC7vtpTKV2fdOx7bV2hPLnHtst9n2VkIgPjNLErlhja6t2qPK5ZVmjSVf298T1wL72K37wrh2DWt07RLXZzz3vR3Uv0dasNC1TVqea9ewxnVfPq4a1Wmx6zfrua/se6tClaosz2wf5tp1bFutuhnBv41c9zUAAACAAXjvhJbc/57mOK+fntBR8zNAAJIK50mbq5deJhBh90pcUqcWxbXS7CXo9M5bFZda6rQ4oJdfx7ZqVW/r8PQUNHswensI+uvTx5EzsNeoRzdLC+ZnCyv7661j2273vFyjRqcnpOd7jJ6/vro1anT3UjQDEUbPXV+ALR9je7NnZa62zVefX7ierznlOn+zd6dr/+Gujc0egRJzB24b1uja2kbPvXU2295i3BvGtQ/X81WSSlQ2Q2o51OYtztV2eb47d31mOqPMvWEGpt3bL1Jdi7vO2/PX165h2j5r2+Z55tjCt20+VttntKm5xRVslFQ2M0uQNYvGn1tBfzORMCjllZ4AcMe2esUrXCNySpdq2cJm7dkb7t5u/HmdWhYuSwdzS25fppjiitvt37FttZrvbNKW210N4NJ2qFkVM8syBcbxeZltO0Cl5TKPImfbNtSrrsU9Em2u7lpeqfjTzt0xV+ua1qeTyiXzY6pQm9rM3vKD0qEdP4urwpW0Lrl9mWItce0Nuf9818bU+LT5fVu0xXXusYXeZ0pjbb0qdzZp3fx0kUuj1v6sUrua1iuwOl/bq0S3bXUlCeYtUEzNam516ju042dtqtnpTSSktW/X6kPLtG/rUrnuLpc8127eelcQv0TzY5XS4VZfUsDRsTfuauuQ1659u1Zvlmq+ucBVCAAAAOCser1Tcx49rcsXTdWB++zXtyZruvm5QfjSV6fqwH1T9CWzAqMGSYXzoaVOKw8tS/cwbNlcbwfp7ClidtaowtP71Q4MOD2VN8SMXnqZ//mXpJbNi1Q/0+5BafZsbd+u1a4egt7ej+F1bKtX3BWQMWWrb9kcV+VOq6f4yp9VatfOGlXs3pM+vsbaPYqlj83q/ekNLse1ckmzljVlekiudidlXD1P9zU1uYI+YTRq7dMLMj0fzbbL17Yh6nNprF2kuhmu3p9BvY5zaVija7Oev9HjOqBnbb5r42j8eV3wCJTdK7TYua931kibV/umzMguX9s3am2Vu1e00SM8ZM9XS4faDssbrM3ZdmaPbLNnbr56S3xVVfre2LiwWXU/z7G9ETlOT90U2KvYaHvPM0V52jbPM0cDbdt8GhXfXelKNs5VbGFzphd0+3at3tys2M2+uysLa3+VR9xJk/C/OZMV/FzgvbdnlHtG5JTNrPQnpAJZ91nmXKzrHJfUesRqvZLbt+R8/s69OaaWdO//Du24p85/fGlm2w5Qwx7FK2Kan35mh2jbikpPULrk0rKcweWzrfxSz5VRZYU7sJ5L/mvjMYip/ObWZgnoS9bvzv388gnR9rm0P6s9LWXSXlcy0P2bLV2qLUPWs9/qYFDzTe/35b521r2u5Q/naEMAAAAAZ+r5N/pUfv0EPXilWWOxpjByXpmpjI4+876WPNOtrT916t7X1vfsSvfIB9+oh2593z0qwjM90ilt/en72vp6ru0xnJBUOB8qarTL+R/6eQsUO2u9N20LN2UCooH7z94b02IHGrMGHTq0N54r8Jej3pVoCJo+Z26tO0Fi9f70BnkqVbPT+YzVQ9Ib4Avfi9hvrta5zzmo7fK1bb76rBoV3x3TRlfvz9vujKkl/mzIAJ3T+zM4COPrca25WrfB2H+ea2PJEbh039elN2pB6ACf8ra9c/wPZwnqNT4dV2yDq2dtUM/X9EiQRaqTe1+5287fI7tEt/3AlXDJV+9w3Rtzb45lgq/2+hTZzi2UnM+U3G2bT762DZ4/PdtIhxW+ZOPc2ibt2yBrlIQ9XUuuQLtHe6ta1ay6Q5mkycaFcV/SI74qc2z+RF1mlMhiI/hZMj+mit31mXOxkx5e2Ud4OKw2WqQ9sce1a7n5zMph3nrta9okrcpsbz6Xc7WtZCWxg0a1WVyjo1YZU5rla9t5CxRrqdOjnumO4s4bg5MQCTi+QbGe/fGfZa5zx7bVvhE+YYS5NlkTqY6GNVq5u9IXOB+0fG1vaKxd4X2+tzarRXHt0cM5E53h5Ll2TiIwy78Z/g4GIa5dmGdizvsaAAAAQH6n1PqBdPnUC8wKyU4o1Kg4PYLhiev7VeMK8re+kNBbNzh10qZnu62KqZO1876pOrCo0L0720Q96IyIsPe56ZlTrvqUNj0n1d03VQfum6AVOq1/et1VjWGFpMKY4Aruli7Vlg2xTJAtS5Aip3yL9Oarz8WYpmXlbvMDAdI9Y+dq3c4aafOiQQcavAFSq+dqbvkC5/nqbe2tavUEJ+1prkJrU3OL2fvTYPS4Hgx/gCi3wF6/WeRq+7ZDzTmO3+p17A4cm9tnVFqjETy9hEO0ndEj2ydfvdy9ou1gcc6eymdXrrbNLX/b+uZPN0c62D3ynbpdM+s9z53G2ipd+7NKa+TVhjLVLQkK/OfiTsZJc79Zo4qWZjmhYe/xWfP+e/fvLCLepH1Ny9S8xDU9VOlSPbxcqltin/s90rLlla5RLu5tneP3JhbcI1S23F7in9Iol4Y1urbKmkbHOXbzmZ2rbdOj25z65W1a6XkuutcOeFyVPzPbPlfbWonJzL2xR7ENscDfaWOtlchLJ77CMv49cJ9bye0PW4Fyu261lqmmwjuVVj6hrk37dtVnS6TKnlZuVVyxDblGJgxGrrbP6NhWrZW7Y9poPk88SVgrST2YUSS5r501Ak7LH8+SCGzUowEjj3JfO3vE4Q9yPB/z3tcAAAAA8uvXW51mmeOUWj+IaMWNE9Ml068sUnlnUukQV0VxeoTD9CuLVP5Bf4hRBadcoxve05dfSKn1/X7PJxbe4Ey/dIHu+NbUrKMocP6RVBgTjECLa3HPjTPqtHiAiYXGp+OqiN2Y9X/489VnlQ7OZIIFWad7cXMHsVzBhoEGGtLBGVcAMnCBSI98Qax89W7Ggq9NZvA7lzJVZp9s3WIElDqOmOGpfHKMQMkiZ6DeJV/bh5ln37sYb5MvsO2bhzwtRNuZwbzWZnk6ReerP4/ytW0Yudo2zEgFt5L5sUxw1A7YpgOI89YHTN+UQ2m5ygcw6sIZ/ZSdf3SUO2i/b+tS6VBz9vt63gJX29prHLhHL9lJmqzbe5gjaOZqXdMmY3SAl6dtA1hz42djjPwK07aehaLXq+xImy8o31hbFRz0DsOzf/N56F1MecvtUnNLZiHl3MJfG3PtBY/27arOGVQfpDBtb/+2F2+Wa/Serbwy530QVu5rZ01JF/e0oZd/hJwjx7Vr2KO4mjOJvKoVmfdZRlrkvq8BAAAABCvQ5VOkt95zjxQ4t44+c1KbNE5PpEcqRMyPYAQhqTAclZarPNcUReWVqvBN7RLMmhbBPU+2V3CwNsdCzfnmls5Xn5crCN+wJvdIhTzzr5dcGtwb2AmC+hcC9vY4b6zN3aM7X9vmq/covVELKuJaGdTmbs5iy75EkD2lRJY1HKxgo3eqkkdzTFkRaAAjUKzpLIzFnPPJ0fbWNDTm+hqO3OeeZredvxd8nu3nLVBMcdWntzMWGs1Xn4/xe26s9S/UfMZytK2U65mTp218IwH8SQeTFaR1rwvgHc3T+HTcP/Ij631vr8mQXp8iaP8u9jQ1uXqd5+qV3lhbpZXalDWAbP7m594ck9z3rT1V1kB+F57peBr2KJ4jUZnz3EOsyeDtVT6wtu3YVq3F8Zhnypp0UNpY98cj16LwoVkBbrmm6UrXZHneh7o2TtIraFojV0IhW1B98PK3fSahEPBbs/898T2TBpDsz33tMgkFczqujLD/xhjXzkwkNW1SzBlhFvhd+e5rAAAAAMEu0B03FKr1hZOZ9RBcdeWfTGWmNJL0/LOn1VpRFLjw8vPPnpZmjcu7wHPr+ynpkwX257r1Ty+kzI9gBIkkPu5JX8FUKpV+SVIymbTeJ5NKplJKJpO6eMpF7u2Hna6PTppFZ1Ui0WMWDUzDGmuqj3TPv0atrapXpRkYaFjjmv6m0hc4sAIKztzemf/x95bbc627ehn66l3bZmQPGHRsq7YWhA38n/vc9Zm6Mu24Y5Ga72zSuvLtql7SrGX2MViBDHuDihrVzKjTnplO0MY+Ltc+Yxtc86972kyB7SbXd3i2tWo8+69YXqPyzfH0tfG1Xb62zVcvGe3foR13eAPKFWbAyg5ktRj7dpjf4dne2TagLuy1qU9fC4Ov7Y37ylcv4/rkbnvJf/x529dsozxBQHN7b9sb957vt5Gr3rquzXea91uG+7srlj+uZYcWKX6z83n/fe98bsvtJSGeKSHaVuY18v52zLbxtW0Ovm3NtjPvjaB957zvjd+NZ/9m25nPO7PefGaYbWfcO+axm+cm8zNhfhfuZ1Pu48vXtma99/j9zxv/MzFX2+aqC/i9OszPOecYeG1zyHG/umV/3pv7MO8N+/xmmMdr8fxblZY5DrPtvfX+tpfMez9X+5r3hc2zfa57N8v2znfkuXbB5+Zt48baKq08nOWahrx2FvN55m9b3+8SAAAAGIvGDTJe+3qn5jzel3k/ZZye+NZkTdcpbf3pR9rkTJGULrcWav6yOyFQUawDX7WnSjL3J9e2753QkkdP21MoRbTi+gJter/I3tb6vrduOEtTHp3+0CwZkOLi8WbRWTVpwoVm0bByvPNDRaNRRSMRRaJRRSIRRaPW2IRIJGK9SCoMzBknFc6xTHDYHwQ5c/7/uffKV3+mzvX+c8vXtvnqR7R2b4LBxxfYBoAwcgfvAQAAAAAhDDapMAhHn3lfX37/E5lEwnBEUuGMhEkqMP0RBmCu1uWY1iR/PUas0qXaki2hAACD0LGtWtdWkVAAAAAAAGCkIakAAACGXHoRbBIKAAAAAACMKEx/NEDDffojAAAAAAAAAGPIEE5/NCIw/dEZYfojAAAAAAAAAABw1pBUAAAAAAAAAICRKtVvloxdtMWQIKkAAAAAAAAAACNVqs8sGbtoiyFBUgEAAAAAAAAARqr+02bJ2EVbDAmSCgAAAAAAAAAwUqX6pGSPWTr2JHsYqTBESCoAAAAAAAAAwEjWd0pK9pqlY0ey12oDDAmSCgAAAAAAAAAw0vV9NDZHLCR7rHPHkCGpAAAAAAAAAACjQd8pqbfbngqo36wdPVL91jn2djNC4TyIJD7uSTlvUqlU+iVJyWTSep9MKplKKZlM6uIpF7m3H3a6PjppFp1VicQYzPYBAAAAAAAAwBhQXDzeLDqrJk240CwaVo53fqhoNKpoJKJINKpIJKJo1BqbEIlErPfmRgAAAAAAAAAAAEFIKgAAAAAAAAAAgFBIKgAAAAAAAAAAgFBIKgAAAAAAAAAAgFBIKgxQJBIxiwAAAAAAAAAAIxyx33BIKgxQQQFNBgAAAAAAAACjDbHfcGilAeLGAgAAAAAAAIDRh9hvOLTSAEWjURUWFpjFAAAAAAAAAIARqrCwQNEo4fIwaKVBKCoq5AYDAAAAAAAAgFEgGo2qqKjQLEYWRMYHafz4IkYsAAAAAAAAAMAIVlhYoPHji8xi5EBS4QwUFRWmkwusDA4AAAAAAAAAw18kEkknExihMHCRxMc9KedNKpVKvyQpmUxa75NJJVMpJZNJXTzlIvf2w07XRyfNIgAAAAAAAAAAzrtJEy40i4aV450fKhqNKhqJKBKNKhKJpJcCiEQi1ntzIwAAAAAAAAAAgCAkFQAAAAAAAAAAQCgkFQAAAAAAAAAAQCgkFQAAAAAAAAAAQCgkFQAAAAAAAAAAQCgkFQAAAAAAAAAAQCgkFQAAAAAAAAAAQCgkFQAAAAAAAAAAQCgkFQAAAAAAAAAAQCgkFQAAAAAAAAAAQCgkFQAAAAAAAAAAQCgkFQAAAAAAAAAAQCijLqkQiUTMIgAAAAAAAAAAzqvRErsedUmFguioOyUAAAAAAAAAwAg3WmLXo+MsXAoKCswiAAAAAAAAAADOq9ESux51SYWiwtFxYQAAAAAAAAAAo8doiV2PuqRCNBpVUWGhWQwAAAAAAAAAwHlRVFioKNMfDV/jxxWZRQAAAAAAAAAAnBejKWY9KpMK0WhUnxg/3iwGAAAAAAAAAGBIfWL8+FEzSkGjNakgSeOKCjV+3DizGAAAAAAAAACAITF+3DiNKxpd0/WP2qSC7CEljFgAAAAAAAAAAAy1T4wfP6qmPXKM6qSC7BELEy4oZvFmAAAAAAAAAMA5V1RoxaRH2wgFx6hPKsheY6H4E+M14YJijR83ToUFBYpEIubHAAAAAAAAAAAYkEgkosKCAo0fN04TLihW8SdG1xoKpkji456U8yaVSqVfkpRMJq33yaSSqZSSyaQunnKRe3sAAAAAAAAAADAKHO/8UNFoVNFIRJFoVJFIJJ0giUQi1ntzIwAAAAAAAAAAgCAkFQAAAAAAAAAAQCgkFQAAAAAAAAAAQCgkFQAAAAAAAAAAQCgkFQAAAAAAAAAAQCgkFQAAAAAAAAAAQCgkFQAAAAAAAAAAQCgkFQAAAAAAAAAAQCgkFQAAAAAAAAAAQCgkFQAAAAAAAAAAQCgkFQAAAAAAAAAAQCgkFQAAAAAAAAAAQCgkFQAAAAAAAAAAQCgkFQAAAAAAAAAAQCgkFQAAAAAAAAAAQCgkFQAAAAAAAAAAQCgkFQAAAAAAAAAAQCgkFQAAAAAAAAAAQCiBSYVIJGIWAQAAAAAAAACAMcidMwhMKviQZAAAAAAAAAAAYGzIkRMIl1QAAAAAAAAAAABjHkkFAAAAAAAAAAAQyoCSCtkHPAAAAAAAAAAAgJEsTA5gQEkFAAAAAAAAAAAwdvmSCu5VnN1/twuUSqW8ZQAAAAAAAAAAYERLpVK+BZqD8gW+pEI2zqb9/f1GDQAAAAAAAAAAGMmc2H++KZDyJhXSmQj7zz6SCgAAAAAAAAAAjCrp2L+dC/DNZGSLZqvIpq+3zywCAAAAAAAAAAAjWNjYf96RCnJlJCKRiE739prVAAAAAAAAAABgBDvd2+vJBWTjSSrk+qBTk0ql9HFPj1ELAAAAAAAAAABGoo97eqyFmvOsqRCJRLKPVIhEIt4kgytD8XHi40w5AAAAAAAAAAAYsT5OfOxbX9n6q5EnMEcqONwfcm/k/NmfTOpUIpH+DAAAAAAAAAAAGHlOJRLqTyYlYykEM0/gCEwqBDETC6dOJdTXF27hBgAAAAAAAAAAMLz09fXp1ClrAIGZA8gmdFJBTnbC9Wf3Rx8pmbTmWQIAAAAAAAAAACNDMplS90cfeWL++RIKcpIK2YYxOEMcPEMdnL9HIurvT6qru1tJe2gEAAAAAAAAAAAY3pJJK7bf35/0xPyVLS/gyh1kHakQlJEwdxaJRNTX26sT/9GlXqZCAgAAAAAAAABgWOvt69OJ/+hSX2+vL96fLS/glk4qmBUOc4fO59zv+/v79eGHJ3Tq1ClzcwAAAAAAAAAAMAycOnVKH354Qv39/Tlj/u5yU+TjntPpRRFSqcz6CM7fU6lU3lcymUz/vaCgQBcUf0LFxcXpfQEAAAAAAAAAgPMjkUjoVOJjTzIhGo36kghBL5nLJoRJKjh/5nw5iQXXNuPHjdO4cUUqLCxUQUGBotGssy0BAAAAAAAAAIAzlEwm1d/fr76+Pp0+3aue06clZySC82eIhIKzjftPmUkF5UgsmH8P8zL3Ye4XAAAAAAAAAACcOU/gPyApEPbl/nzQfnMmFdzvzURBrpdS3hEL5p9eKQUWAwAAAAAAAACAQFas37/ugZkMiESsEQoKSCCYr/TnAxIK6TozqaAsowrMhIL779nKzO3S7KQDAAAAAAAAAAA4M07SIP0+KLEQkDgIKjO3c6TLgpIKCpFYcP40EwipVPaRCubfswrzGQAAAAAAAAAAxgpj1ECQwCRAxD9SIV2eI5EQtC+FTSq43wf9me3v7j/Nv7sKGbUAAAAAAAAAAMAAOIkCU1AywEwkBP096E9HqKSCApIAZqIg7J++xIH5HgAAAAAAAAAADIqZYHC/NxMFYf90+N7nSiooR2LB/fdsf+b6e1ZhPgMAAAAAAAAAwFhjBPiDeEYVBPw925/m34PeK0xSQQHJgGyJgnxJhVxlAAAAAAAAAABgcAITAAEJg6Ay8+9B7x2hkgrKkgjIljwwP2u+d2QrBwAAAAAAAAAA+WUN/udIEmT7e64yR+ikgrIkAcwy8322MgAAAAAAAAAAcG4EJQbMMvN9tjK3ASUVHEFJgqAy5SjPZTDbAAAAAAAAAAAwWuUL9gfJtk1QeVBZkEElFZQn8J+rzi3s5wAAAAAAAAAAgF/oZECOz+WqMw06qeAImxgI+zkAAAAAAAAAADB4YZMEYT/n9v8BuPZCbyU3FigAAAAASUVORK5CYII=;" vertex="1" parent="1">
                    <mxGeometry x="-810" y="10" width="989.63" height="750" as="geometry"/>
                </mxCell>
                <mxCell id="3" value="&lt;p style=&quot;--tw-border-spacing-x: 0; --tw-border-spacing-y: 0; --tw-translate-x: 0; --tw-translate-y: 0; --tw-rotate: 0; --tw-skew-x: 0; --tw-skew-y: 0; --tw-scale-x: 1; --tw-scale-y: 1; --tw-pan-x: ; --tw-pan-y: ; --tw-pinch-zoom: ; --tw-scroll-snap-strictness: proximity; --tw-gradient-from-position: ; --tw-gradient-via-position: ; --tw-gradient-to-position: ; --tw-ordinal: ; --tw-slashed-zero: ; --tw-numeric-figure: ; --tw-numeric-spacing: ; --tw-numeric-fraction: ; --tw-ring-inset: ; --tw-ring-offset-width: 0px; --tw-ring-offset-color: light-dark(#fff, #000000); --tw-ring-color: rgb(59 130 246 / 0.5); --tw-ring-offset-shadow: 0 0 #0000; --tw-ring-shadow: 0 0 #0000; --tw-shadow: 0 0 #0000; --tw-shadow-colored: 0 0 #0000; --tw-blur: ; --tw-brightness: ; --tw-contrast: ; --tw-grayscale: ; --tw-hue-rotate: ; --tw-invert: ; --tw-saturate: ; --tw-sepia: ; --tw-drop-shadow: ; --tw-backdrop-blur: ; --tw-backdrop-brightness: ; --tw-backdrop-contrast: ; --tw-backdrop-grayscale: ; --tw-backdrop-hue-rotate: ; --tw-backdrop-invert: ; --tw-backdrop-opacity: ; --tw-backdrop-saturate: ; --tw-backdrop-sepia: ; --tw-contain-size: ; --tw-contain-layout: ; --tw-contain-paint: ; --tw-contain-style: ; box-sizing: border-box; border-width: 0px; border-style: solid; border-color: rgb(229, 231, 235); margin: 0px; --tw-text-opacity: 1; color: rgb(95, 99, 104); font-size: 0.95rem; font-family: Inter, sans-serif; text-align: start;&quot; class=&quot;text-gray-700&quot;&gt;&lt;span style=&quot;font-size: 1.25rem; background-color: light-dark(#ffffff, var(--ge-dark-color, #121212));&quot;&gt;Coordenadas:&lt;/span&gt;&lt;/p&gt;&lt;div style=&quot;--tw-border-spacing-x: 0; --tw-border-spacing-y: 0; --tw-translate-x: 0; --tw-translate-y: 0; --tw-rotate: 0; --tw-skew-x: 0; --tw-skew-y: 0; --tw-scale-x: 1; --tw-scale-y: 1; --tw-pan-x: ; --tw-pan-y: ; --tw-pinch-zoom: ; --tw-scroll-snap-strictness: proximity; --tw-gradient-from-position: ; --tw-gradient-via-position: ; --tw-gradient-to-position: ; --tw-ordinal: ; --tw-slashed-zero: ; --tw-numeric-figure: ; --tw-numeric-spacing: ; --tw-numeric-fraction: ; --tw-ring-inset: ; --tw-ring-offset-width: 0px; --tw-ring-offset-color: light-dark(#fff, #000000); --tw-ring-color: rgb(59 130 246 / 0.5); --tw-ring-offset-shadow: 0 0 #0000; --tw-ring-shadow: 0 0 #0000; --tw-shadow: 0 0 #0000; --tw-shadow-colored: 0 0 #0000; --tw-blur: ; --tw-brightness: ; --tw-contrast: ; --tw-grayscale: ; --tw-hue-rotate: ; --tw-invert: ; --tw-saturate: ; --tw-sepia: ; --tw-drop-shadow: ; --tw-backdrop-blur: ; --tw-backdrop-brightness: ; --tw-backdrop-contrast: ; --tw-backdrop-grayscale: ; --tw-backdrop-hue-rotate: ; --tw-backdrop-invert: ; --tw-backdrop-opacity: ; --tw-backdrop-saturate: ; --tw-backdrop-sepia: ; --tw-contain-size: ; --tw-contain-layout: ; --tw-contain-paint: ; --tw-contain-style: ; box-sizing: border-box; border-width: 0px; border-style: solid; border-color: rgb(229, 231, 235); color: rgb(0, 0, 0); font-family: Inter, sans-serif; font-size: medium; text-align: start;&quot;&gt;&lt;p style=&quot;--tw-border-spacing-x: 0; --tw-border-spacing-y: 0; --tw-translate-x: 0; --tw-translate-y: 0; --tw-rotate: 0; --tw-skew-x: 0; --tw-skew-y: 0; --tw-scale-x: 1; --tw-scale-y: 1; --tw-pan-x: ; --tw-pan-y: ; --tw-pinch-zoom: ; --tw-scroll-snap-strictness: proximity; --tw-gradient-from-position: ; --tw-gradient-via-position: ; --tw-gradient-to-position: ; --tw-ordinal: ; --tw-slashed-zero: ; --tw-numeric-figure: ; --tw-numeric-spacing: ; --tw-numeric-fraction: ; --tw-ring-inset: ; --tw-ring-offset-width: 0px; --tw-ring-offset-color: light-dark(#fff, #000000); --tw-ring-color: rgb(59 130 246 / 0.5); --tw-ring-offset-shadow: 0 0 #0000; --tw-ring-shadow: 0 0 #0000; --tw-shadow: 0 0 #0000; --tw-shadow-colored: 0 0 #0000; --tw-blur: ; --tw-brightness: ; --tw-contrast: ; --tw-grayscale: ; --tw-hue-rotate: ; --tw-invert: ; --tw-saturate: ; --tw-sepia: ; --tw-drop-shadow: ; --tw-backdrop-blur: ; --tw-backdrop-brightness: ; --tw-backdrop-contrast: ; --tw-backdrop-grayscale: ; --tw-backdrop-hue-rotate: ; --tw-backdrop-invert: ; --tw-backdrop-opacity: ; --tw-backdrop-saturate: ; --tw-backdrop-sepia: ; --tw-contain-size: ; --tw-contain-layout: ; --tw-contain-paint: ; --tw-contain-style: ; box-sizing: border-box; border-width: 0px; border-style: solid; border-color: rgb(229, 231, 235); margin: 0px; font-size: 0.95rem; color: rgb(95, 99, 104);&quot;&gt;&lt;span style=&quot;background-color: light-dark(#ffffff, var(--ge-dark-color, #121212));&quot;&gt;&lt;br&gt;&lt;/span&gt;&lt;/p&gt;&lt;p style=&quot;--tw-border-spacing-x: 0; --tw-border-spacing-y: 0; --tw-translate-x: 0; --tw-translate-y: 0; --tw-rotate: 0; --tw-skew-x: 0; --tw-skew-y: 0; --tw-scale-x: 1; --tw-scale-y: 1; --tw-pan-x: ; --tw-pan-y: ; --tw-pinch-zoom: ; --tw-scroll-snap-strictness: proximity; --tw-gradient-from-position: ; --tw-gradient-via-position: ; --tw-gradient-to-position: ; --tw-ordinal: ; --tw-slashed-zero: ; --tw-numeric-figure: ; --tw-numeric-spacing: ; --tw-numeric-fraction: ; --tw-ring-inset: ; --tw-ring-offset-width: 0px; --tw-ring-offset-color: light-dark(#fff, #000000); --tw-ring-color: rgb(59 130 246 / 0.5); --tw-ring-offset-shadow: 0 0 #0000; --tw-ring-shadow: 0 0 #0000; --tw-shadow: 0 0 #0000; --tw-shadow-colored: 0 0 #0000; --tw-blur: ; --tw-brightness: ; --tw-contrast: ; --tw-grayscale: ; --tw-hue-rotate: ; --tw-invert: ; --tw-saturate: ; --tw-sepia: ; --tw-drop-shadow: ; --tw-backdrop-blur: ; --tw-backdrop-brightness: ; --tw-backdrop-contrast: ; --tw-backdrop-grayscale: ; --tw-backdrop-hue-rotate: ; --tw-backdrop-invert: ; --tw-backdrop-opacity: ; --tw-backdrop-saturate: ; --tw-backdrop-sepia: ; --tw-contain-size: ; --tw-contain-layout: ; --tw-contain-paint: ; --tw-contain-style: ; box-sizing: border-box; border-width: 0px; border-style: solid; border-color: rgb(229, 231, 235); margin: 0px; font-size: 0.95rem; color: rgb(95, 99, 104);&quot;&gt;&lt;span style=&quot;background-color: light-dark(#ffffff, var(--ge-dark-color, #121212));&quot;&gt;Decimal:&amp;nbsp;&lt;span style=&quot;font-family: SFMono-Regular, Consolas, &amp;quot;Liberation Mono&amp;quot;, Menlo, Courier, monospace; font-size: 0.9rem; white-space-collapse: preserve;&quot;&gt;38.65395, -9.07212&lt;/span&gt;&lt;/span&gt;&lt;/p&gt;&lt;p style=&quot;--tw-border-spacing-x: 0; --tw-border-spacing-y: 0; --tw-translate-x: 0; --tw-translate-y: 0; --tw-rotate: 0; --tw-skew-x: 0; --tw-skew-y: 0; --tw-scale-x: 1; --tw-scale-y: 1; --tw-pan-x: ; --tw-pan-y: ; --tw-pinch-zoom: ; --tw-scroll-snap-strictness: proximity; --tw-gradient-from-position: ; --tw-gradient-via-position: ; --tw-gradient-to-position: ; --tw-ordinal: ; --tw-slashed-zero: ; --tw-numeric-figure: ; --tw-numeric-spacing: ; --tw-numeric-fraction: ; --tw-ring-inset: ; --tw-ring-offset-width: 0px; --tw-ring-offset-color: light-dark(#fff, #000000); --tw-ring-color: rgb(59 130 246 / 0.5); --tw-ring-offset-shadow: 0 0 #0000; --tw-ring-shadow: 0 0 #0000; --tw-shadow: 0 0 #0000; --tw-shadow-colored: 0 0 #0000; --tw-blur: ; --tw-brightness: ; --tw-contrast: ; --tw-grayscale: ; --tw-hue-rotate: ; --tw-invert: ; --tw-saturate: ; --tw-sepia: ; --tw-drop-shadow: ; --tw-backdrop-blur: ; --tw-backdrop-brightness: ; --tw-backdrop-contrast: ; --tw-backdrop-grayscale: ; --tw-backdrop-hue-rotate: ; --tw-backdrop-invert: ; --tw-backdrop-opacity: ; --tw-backdrop-saturate: ; --tw-backdrop-sepia: ; --tw-contain-size: ; --tw-contain-layout: ; --tw-contain-paint: ; --tw-contain-style: ; box-sizing: border-box; border-width: 0px; border-style: solid; border-color: rgb(229, 231, 235); margin: 0px; font-size: 0.95rem; color: rgb(95, 99, 104);&quot;&gt;&lt;span style=&quot;background-color: light-dark(#ffffff, var(--ge-dark-color, #121212));&quot;&gt;&lt;span style=&quot;letter-spacing: inherit; font-size: 0.95rem;&quot;&gt;GMS:&amp;nbsp;&lt;/span&gt;&lt;span style=&quot;font-family: inherit; letter-spacing: inherit; white-space-collapse: preserve; font-size: 0.9rem;&quot;&gt;38° 39′ 14.2″N 9° 4′ 19.6″W&lt;/span&gt;&lt;/span&gt;&lt;/p&gt;&lt;p style=&quot;--tw-border-spacing-x: 0; --tw-border-spacing-y: 0; --tw-translate-x: 0; --tw-translate-y: 0; --tw-rotate: 0; --tw-skew-x: 0; --tw-skew-y: 0; --tw-scale-x: 1; --tw-scale-y: 1; --tw-pan-x: ; --tw-pan-y: ; --tw-pinch-zoom: ; --tw-scroll-snap-strictness: proximity; --tw-gradient-from-position: ; --tw-gradient-via-position: ; --tw-gradient-to-position: ; --tw-ordinal: ; --tw-slashed-zero: ; --tw-numeric-figure: ; --tw-numeric-spacing: ; --tw-numeric-fraction: ; --tw-ring-inset: ; --tw-ring-offset-width: 0px; --tw-ring-offset-color: light-dark(#fff, #000000); --tw-ring-color: rgb(59 130 246 / 0.5); --tw-ring-offset-shadow: 0 0 #0000; --tw-ring-shadow: 0 0 #0000; --tw-shadow: 0 0 #0000; --tw-shadow-colored: 0 0 #0000; --tw-blur: ; --tw-brightness: ; --tw-contrast: ; --tw-grayscale: ; --tw-hue-rotate: ; --tw-invert: ; --tw-saturate: ; --tw-sepia: ; --tw-drop-shadow: ; --tw-backdrop-blur: ; --tw-backdrop-brightness: ; --tw-backdrop-contrast: ; --tw-backdrop-grayscale: ; --tw-backdrop-hue-rotate: ; --tw-backdrop-invert: ; --tw-backdrop-opacity: ; --tw-backdrop-saturate: ; --tw-backdrop-sepia: ; --tw-contain-size: ; --tw-contain-layout: ; --tw-contain-paint: ; --tw-contain-style: ; box-sizing: border-box; border-width: 0px; border-style: solid; border-color: rgb(229, 231, 235); margin: 0px; font-size: 0.95rem; color: rgb(95, 99, 104);&quot;&gt;&lt;span style=&quot;background-color: light-dark(#ffffff, var(--ge-dark-color, #121212));&quot;&gt;&lt;span style=&quot;font-size: 0.95rem; letter-spacing: inherit;&quot;&gt;Graus e Minutos:&amp;nbsp;&lt;/span&gt;&lt;span style=&quot;font-family: SFMono-Regular, Consolas, &amp;quot;Liberation Mono&amp;quot;, Menlo, Courier, monospace; font-size: 0.9rem; white-space-collapse: preserve;&quot;&gt;38° 39.237′N 9° 4.327′W&lt;/span&gt;&lt;/span&gt;&lt;/p&gt;&lt;p style=&quot;--tw-border-spacing-x: 0; --tw-border-spacing-y: 0; --tw-translate-x: 0; --tw-translate-y: 0; --tw-rotate: 0; --tw-skew-x: 0; --tw-skew-y: 0; --tw-scale-x: 1; --tw-scale-y: 1; --tw-pan-x: ; --tw-pan-y: ; --tw-pinch-zoom: ; --tw-scroll-snap-strictness: proximity; --tw-gradient-from-position: ; --tw-gradient-via-position: ; --tw-gradient-to-position: ; --tw-ordinal: ; --tw-slashed-zero: ; --tw-numeric-figure: ; --tw-numeric-spacing: ; --tw-numeric-fraction: ; --tw-ring-inset: ; --tw-ring-offset-width: 0px; --tw-ring-offset-color: light-dark(#fff, #000000); --tw-ring-color: rgb(59 130 246 / 0.5); --tw-ring-offset-shadow: 0 0 #0000; --tw-ring-shadow: 0 0 #0000; --tw-shadow: 0 0 #0000; --tw-shadow-colored: 0 0 #0000; --tw-blur: ; --tw-brightness: ; --tw-contrast: ; --tw-grayscale: ; --tw-hue-rotate: ; --tw-invert: ; --tw-saturate: ; --tw-sepia: ; --tw-drop-shadow: ; --tw-backdrop-blur: ; --tw-backdrop-brightness: ; --tw-backdrop-contrast: ; --tw-backdrop-grayscale: ; --tw-backdrop-hue-rotate: ; --tw-backdrop-invert: ; --tw-backdrop-opacity: ; --tw-backdrop-saturate: ; --tw-backdrop-sepia: ; --tw-contain-size: ; --tw-contain-layout: ; --tw-contain-paint: ; --tw-contain-style: ; box-sizing: border-box; border-width: 0px; border-style: solid; border-color: rgb(229, 231, 235); margin: 0px; font-size: 0.95rem; color: rgb(95, 99, 104);&quot;&gt;&lt;span style=&quot;font-size: 1.25rem; letter-spacing: inherit; background-color: light-dark(#ffffff, var(--ge-dark-color, #121212));&quot;&gt;&lt;br&gt;&lt;/span&gt;&lt;/p&gt;&lt;p style=&quot;--tw-border-spacing-x: 0; --tw-border-spacing-y: 0; --tw-translate-x: 0; --tw-translate-y: 0; --tw-rotate: 0; --tw-skew-x: 0; --tw-skew-y: 0; --tw-scale-x: 1; --tw-scale-y: 1; --tw-pan-x: ; --tw-pan-y: ; --tw-pinch-zoom: ; --tw-scroll-snap-strictness: proximity; --tw-gradient-from-position: ; --tw-gradient-via-position: ; --tw-gradient-to-position: ; --tw-ordinal: ; --tw-slashed-zero: ; --tw-numeric-figure: ; --tw-numeric-spacing: ; --tw-numeric-fraction: ; --tw-ring-inset: ; --tw-ring-offset-width: 0px; --tw-ring-offset-color: light-dark(#fff, #000000); --tw-ring-color: rgb(59 130 246 / 0.5); --tw-ring-offset-shadow: 0 0 #0000; --tw-ring-shadow: 0 0 #0000; --tw-shadow: 0 0 #0000; --tw-shadow-colored: 0 0 #0000; --tw-blur: ; --tw-brightness: ; --tw-contrast: ; --tw-grayscale: ; --tw-hue-rotate: ; --tw-invert: ; --tw-saturate: ; --tw-sepia: ; --tw-drop-shadow: ; --tw-backdrop-blur: ; --tw-backdrop-brightness: ; --tw-backdrop-contrast: ; --tw-backdrop-grayscale: ; --tw-backdrop-hue-rotate: ; --tw-backdrop-invert: ; --tw-backdrop-opacity: ; --tw-backdrop-saturate: ; --tw-backdrop-sepia: ; --tw-contain-size: ; --tw-contain-layout: ; --tw-contain-paint: ; --tw-contain-style: ; box-sizing: border-box; border-width: 0px; border-style: solid; border-color: rgb(229, 231, 235); margin: 0px; font-size: 0.95rem; color: rgb(95, 99, 104);&quot;&gt;&lt;span style=&quot;font-size: 1.25rem; letter-spacing: inherit; background-color: light-dark(#ffffff, var(--ge-dark-color, #121212));&quot;&gt;Links para Mapas:&lt;/span&gt;&lt;/p&gt;&lt;p style=&quot;--tw-border-spacing-x: 0; --tw-border-spacing-y: 0; --tw-translate-x: 0; --tw-translate-y: 0; --tw-rotate: 0; --tw-skew-x: 0; --tw-skew-y: 0; --tw-scale-x: 1; --tw-scale-y: 1; --tw-pan-x: ; --tw-pan-y: ; --tw-pinch-zoom: ; --tw-scroll-snap-strictness: proximity; --tw-gradient-from-position: ; --tw-gradient-via-position: ; --tw-gradient-to-position: ; --tw-ordinal: ; --tw-slashed-zero: ; --tw-numeric-figure: ; --tw-numeric-spacing: ; --tw-numeric-fraction: ; --tw-ring-inset: ; --tw-ring-offset-width: 0px; --tw-ring-offset-color: light-dark(#fff, #000000); --tw-ring-color: rgb(59 130 246 / 0.5); --tw-ring-offset-shadow: 0 0 #0000; --tw-ring-shadow: 0 0 #0000; --tw-shadow: 0 0 #0000; --tw-shadow-colored: 0 0 #0000; --tw-blur: ; --tw-brightness: ; --tw-contrast: ; --tw-grayscale: ; --tw-hue-rotate: ; --tw-invert: ; --tw-saturate: ; --tw-sepia: ; --tw-drop-shadow: ; --tw-backdrop-blur: ; --tw-backdrop-brightness: ; --tw-backdrop-contrast: ; --tw-backdrop-grayscale: ; --tw-backdrop-hue-rotate: ; --tw-backdrop-invert: ; --tw-backdrop-opacity: ; --tw-backdrop-saturate: ; --tw-backdrop-sepia: ; --tw-contain-size: ; --tw-contain-layout: ; --tw-contain-paint: ; --tw-contain-style: ; box-sizing: border-box; border-width: 0px; border-style: solid; border-color: rgb(229, 231, 235); margin: 0px; font-size: 0.95rem; color: rgb(95, 99, 104);&quot;&gt;&lt;span style=&quot;font-size: 0.95rem; background-color: light-dark(#ffffff, var(--ge-dark-color, #121212));&quot;&gt;&lt;br&gt;&lt;/span&gt;&lt;/p&gt;&lt;p style=&quot;--tw-border-spacing-x: 0; --tw-border-spacing-y: 0; --tw-translate-x: 0; --tw-translate-y: 0; --tw-rotate: 0; --tw-skew-x: 0; --tw-skew-y: 0; --tw-scale-x: 1; --tw-scale-y: 1; --tw-pan-x: ; --tw-pan-y: ; --tw-pinch-zoom: ; --tw-scroll-snap-strictness: proximity; --tw-gradient-from-position: ; --tw-gradient-via-position: ; --tw-gradient-to-position: ; --tw-ordinal: ; --tw-slashed-zero: ; --tw-numeric-figure: ; --tw-numeric-spacing: ; --tw-numeric-fraction: ; --tw-ring-inset: ; --tw-ring-offset-width: 0px; --tw-ring-offset-color: light-dark(#fff, #000000); --tw-ring-color: rgb(59 130 246 / 0.5); --tw-ring-offset-shadow: 0 0 #0000; --tw-ring-shadow: 0 0 #0000; --tw-shadow: 0 0 #0000; --tw-shadow-colored: 0 0 #0000; --tw-blur: ; --tw-brightness: ; --tw-contrast: ; --tw-grayscale: ; --tw-hue-rotate: ; --tw-invert: ; --tw-saturate: ; --tw-sepia: ; --tw-drop-shadow: ; --tw-backdrop-blur: ; --tw-backdrop-brightness: ; --tw-backdrop-contrast: ; --tw-backdrop-grayscale: ; --tw-backdrop-hue-rotate: ; --tw-backdrop-invert: ; --tw-backdrop-opacity: ; --tw-backdrop-saturate: ; --tw-backdrop-sepia: ; --tw-contain-size: ; --tw-contain-layout: ; --tw-contain-paint: ; --tw-contain-style: ; box-sizing: border-box; border-width: 0px; border-style: solid; border-color: rgb(229, 231, 235); margin: 0px; font-size: 0.95rem; color: rgb(95, 99, 104);&quot;&gt;&lt;span style=&quot;background-color: light-dark(#ffffff, var(--ge-dark-color, #121212));&quot;&gt;&lt;span style=&quot;font-size: 0.95rem;&quot;&gt;Google Maps:&amp;nbsp;&lt;/span&gt;&lt;span style=&quot;font-family: SFMono-Regular, Consolas, &amp;quot;Liberation Mono&amp;quot;, Menlo, Courier, monospace; font-size: 0.9rem; white-space-collapse: preserve;&quot;&gt;https://www.google.com/maps/search/?api=1&amp;amp;query=38.65395018353692,-9.072116261227945&lt;/span&gt;&lt;/span&gt;&lt;/p&gt;&lt;p style=&quot;--tw-border-spacing-x: 0; --tw-border-spacing-y: 0; --tw-translate-x: 0; --tw-translate-y: 0; --tw-rotate: 0; --tw-skew-x: 0; --tw-skew-y: 0; --tw-scale-x: 1; --tw-scale-y: 1; --tw-pan-x: ; --tw-pan-y: ; --tw-pinch-zoom: ; --tw-scroll-snap-strictness: proximity; --tw-gradient-from-position: ; --tw-gradient-via-position: ; --tw-gradient-to-position: ; --tw-ordinal: ; --tw-slashed-zero: ; --tw-numeric-figure: ; --tw-numeric-spacing: ; --tw-numeric-fraction: ; --tw-ring-inset: ; --tw-ring-offset-width: 0px; --tw-ring-offset-color: light-dark(#fff, #000000); --tw-ring-color: rgb(59 130 246 / 0.5); --tw-ring-offset-shadow: 0 0 #0000; --tw-ring-shadow: 0 0 #0000; --tw-shadow: 0 0 #0000; --tw-shadow-colored: 0 0 #0000; --tw-blur: ; --tw-brightness: ; --tw-contrast: ; --tw-grayscale: ; --tw-hue-rotate: ; --tw-invert: ; --tw-saturate: ; --tw-sepia: ; --tw-drop-shadow: ; --tw-backdrop-blur: ; --tw-backdrop-brightness: ; --tw-backdrop-contrast: ; --tw-backdrop-grayscale: ; --tw-backdrop-hue-rotate: ; --tw-backdrop-invert: ; --tw-backdrop-opacity: ; --tw-backdrop-saturate: ; --tw-backdrop-sepia: ; --tw-contain-size: ; --tw-contain-layout: ; --tw-contain-paint: ; --tw-contain-style: ; box-sizing: border-box; border-width: 0px; border-style: solid; border-color: rgb(229, 231, 235); margin: 0px; font-size: 0.95rem; color: rgb(95, 99, 104);&quot;&gt;&lt;span style=&quot;font-size: 0.95rem; letter-spacing: inherit; background-color: light-dark(#ffffff, var(--ge-dark-color, #121212));&quot;&gt;&lt;br&gt;&lt;/span&gt;&lt;/p&gt;&lt;p style=&quot;--tw-border-spacing-x: 0; --tw-border-spacing-y: 0; --tw-translate-x: 0; --tw-translate-y: 0; --tw-rotate: 0; --tw-skew-x: 0; --tw-skew-y: 0; --tw-scale-x: 1; --tw-scale-y: 1; --tw-pan-x: ; --tw-pan-y: ; --tw-pinch-zoom: ; --tw-scroll-snap-strictness: proximity; --tw-gradient-from-position: ; --tw-gradient-via-position: ; --tw-gradient-to-position: ; --tw-ordinal: ; --tw-slashed-zero: ; --tw-numeric-figure: ; --tw-numeric-spacing: ; --tw-numeric-fraction: ; --tw-ring-inset: ; --tw-ring-offset-width: 0px; --tw-ring-offset-color: light-dark(#fff, #000000); --tw-ring-color: rgb(59 130 246 / 0.5); --tw-ring-offset-shadow: 0 0 #0000; --tw-ring-shadow: 0 0 #0000; --tw-shadow: 0 0 #0000; --tw-shadow-colored: 0 0 #0000; --tw-blur: ; --tw-brightness: ; --tw-contrast: ; --tw-grayscale: ; --tw-hue-rotate: ; --tw-invert: ; --tw-saturate: ; --tw-sepia: ; --tw-drop-shadow: ; --tw-backdrop-blur: ; --tw-backdrop-brightness: ; --tw-backdrop-contrast: ; --tw-backdrop-grayscale: ; --tw-backdrop-hue-rotate: ; --tw-backdrop-invert: ; --tw-backdrop-opacity: ; --tw-backdrop-saturate: ; --tw-backdrop-sepia: ; --tw-contain-size: ; --tw-contain-layout: ; --tw-contain-paint: ; --tw-contain-style: ; box-sizing: border-box; border-width: 0px; border-style: solid; border-color: rgb(229, 231, 235); margin: 0px; font-size: 0.95rem; color: rgb(95, 99, 104);&quot;&gt;&lt;span style=&quot;background-color: light-dark(#ffffff, var(--ge-dark-color, #121212));&quot;&gt;&lt;span style=&quot;font-size: 0.95rem; letter-spacing: inherit;&quot;&gt;Waze (browser):&amp;nbsp;&lt;/span&gt;&lt;span style=&quot;font-family: SFMono-Regular, Consolas, &amp;quot;Liberation Mono&amp;quot;, Menlo, Courier, monospace; font-size: 0.9rem; white-space-collapse: preserve;&quot;&gt;https://waze.com/ul?ll=38.65395018353692,-9.072116261227945&amp;amp;navigate=yes&lt;/span&gt;&lt;/span&gt;&lt;/p&gt;&lt;p style=&quot;--tw-border-spacing-x: 0; --tw-border-spacing-y: 0; --tw-translate-x: 0; --tw-translate-y: 0; --tw-rotate: 0; --tw-skew-x: 0; --tw-skew-y: 0; --tw-scale-x: 1; --tw-scale-y: 1; --tw-pan-x: ; --tw-pan-y: ; --tw-pinch-zoom: ; --tw-scroll-snap-strictness: proximity; --tw-gradient-from-position: ; --tw-gradient-via-position: ; --tw-gradient-to-position: ; --tw-ordinal: ; --tw-slashed-zero: ; --tw-numeric-figure: ; --tw-numeric-spacing: ; --tw-numeric-fraction: ; --tw-ring-inset: ; --tw-ring-offset-width: 0px; --tw-ring-offset-color: light-dark(#fff, #000000); --tw-ring-color: rgb(59 130 246 / 0.5); --tw-ring-offset-shadow: 0 0 #0000; --tw-ring-shadow: 0 0 #0000; --tw-shadow: 0 0 #0000; --tw-shadow-colored: 0 0 #0000; --tw-blur: ; --tw-brightness: ; --tw-contrast: ; --tw-grayscale: ; --tw-hue-rotate: ; --tw-invert: ; --tw-saturate: ; --tw-sepia: ; --tw-drop-shadow: ; --tw-backdrop-blur: ; --tw-backdrop-brightness: ; --tw-backdrop-contrast: ; --tw-backdrop-grayscale: ; --tw-backdrop-hue-rotate: ; --tw-backdrop-invert: ; --tw-backdrop-opacity: ; --tw-backdrop-saturate: ; --tw-backdrop-sepia: ; --tw-contain-size: ; --tw-contain-layout: ; --tw-contain-paint: ; --tw-contain-style: ; box-sizing: border-box; border-width: 0px; border-style: solid; border-color: rgb(229, 231, 235); margin: 0px; font-size: 0.95rem; color: rgb(95, 99, 104);&quot;&gt;&lt;span style=&quot;font-size: 0.95rem; letter-spacing: inherit; background-color: light-dark(#ffffff, var(--ge-dark-color, #121212));&quot;&gt;&lt;br&gt;&lt;/span&gt;&lt;/p&gt;&lt;p style=&quot;--tw-border-spacing-x: 0; --tw-border-spacing-y: 0; --tw-translate-x: 0; --tw-translate-y: 0; --tw-rotate: 0; --tw-skew-x: 0; --tw-skew-y: 0; --tw-scale-x: 1; --tw-scale-y: 1; --tw-pan-x: ; --tw-pan-y: ; --tw-pinch-zoom: ; --tw-scroll-snap-strictness: proximity; --tw-gradient-from-position: ; --tw-gradient-via-position: ; --tw-gradient-to-position: ; --tw-ordinal: ; --tw-slashed-zero: ; --tw-numeric-figure: ; --tw-numeric-spacing: ; --tw-numeric-fraction: ; --tw-ring-inset: ; --tw-ring-offset-width: 0px; --tw-ring-offset-color: light-dark(#fff, #000000); --tw-ring-color: rgb(59 130 246 / 0.5); --tw-ring-offset-shadow: 0 0 #0000; --tw-ring-shadow: 0 0 #0000; --tw-shadow: 0 0 #0000; --tw-shadow-colored: 0 0 #0000; --tw-blur: ; --tw-brightness: ; --tw-contrast: ; --tw-grayscale: ; --tw-hue-rotate: ; --tw-invert: ; --tw-saturate: ; --tw-sepia: ; --tw-drop-shadow: ; --tw-backdrop-blur: ; --tw-backdrop-brightness: ; --tw-backdrop-contrast: ; --tw-backdrop-grayscale: ; --tw-backdrop-hue-rotate: ; --tw-backdrop-invert: ; --tw-backdrop-opacity: ; --tw-backdrop-saturate: ; --tw-backdrop-sepia: ; --tw-contain-size: ; --tw-contain-layout: ; --tw-contain-paint: ; --tw-contain-style: ; box-sizing: border-box; border-width: 0px; border-style: solid; border-color: rgb(229, 231, 235); margin: 0px; font-size: 0.95rem; color: rgb(95, 99, 104);&quot;&gt;&lt;span style=&quot;background-color: light-dark(#ffffff, var(--ge-dark-color, #121212));&quot;&gt;&lt;span style=&quot;font-size: 0.95rem; letter-spacing: inherit;&quot;&gt;Waze (app):&amp;nbsp;&lt;/span&gt;&lt;span style=&quot;font-family: SFMono-Regular, Consolas, &amp;quot;Liberation Mono&amp;quot;, Menlo, Courier, monospace; font-size: 0.9rem; white-space-collapse: preserve;&quot;&gt;waze://?ll=38.65395018353692,-9.072116261227945&amp;amp;navigate=yes&lt;/span&gt;&lt;/span&gt;&lt;/p&gt;&lt;p style=&quot;--tw-border-spacing-x: 0; --tw-border-spacing-y: 0; --tw-translate-x: 0; --tw-translate-y: 0; --tw-rotate: 0; --tw-skew-x: 0; --tw-skew-y: 0; --tw-scale-x: 1; --tw-scale-y: 1; --tw-pan-x: ; --tw-pan-y: ; --tw-pinch-zoom: ; --tw-scroll-snap-strictness: proximity; --tw-gradient-from-position: ; --tw-gradient-via-position: ; --tw-gradient-to-position: ; --tw-ordinal: ; --tw-slashed-zero: ; --tw-numeric-figure: ; --tw-numeric-spacing: ; --tw-numeric-fraction: ; --tw-ring-inset: ; --tw-ring-offset-width: 0px; --tw-ring-offset-color: light-dark(#fff, #000000); --tw-ring-color: rgb(59 130 246 / 0.5); --tw-ring-offset-shadow: 0 0 #0000; --tw-ring-shadow: 0 0 #0000; --tw-shadow: 0 0 #0000; --tw-shadow-colored: 0 0 #0000; --tw-blur: ; --tw-brightness: ; --tw-contrast: ; --tw-grayscale: ; --tw-hue-rotate: ; --tw-invert: ; --tw-saturate: ; --tw-sepia: ; --tw-drop-shadow: ; --tw-backdrop-blur: ; --tw-backdrop-brightness: ; --tw-backdrop-contrast: ; --tw-backdrop-grayscale: ; --tw-backdrop-hue-rotate: ; --tw-backdrop-invert: ; --tw-backdrop-opacity: ; --tw-backdrop-saturate: ; --tw-backdrop-sepia: ; --tw-contain-size: ; --tw-contain-layout: ; --tw-contain-paint: ; --tw-contain-style: ; box-sizing: border-box; border-width: 0px; border-style: solid; border-color: rgb(229, 231, 235); margin: 0px; font-size: 0.95rem; color: rgb(95, 99, 104);&quot;&gt;&lt;span style=&quot;font-family: SFMono-Regular, Consolas, &amp;quot;Liberation Mono&amp;quot;, Menlo, Courier, monospace; font-size: 0.9rem; white-space-collapse: preserve; background-color: light-dark(#ffffff, var(--ge-dark-color, #121212));&quot;&gt;&lt;br&gt;&lt;/span&gt;&lt;/p&gt;&lt;/div&gt;&lt;div style=&quot;--tw-border-spacing-x: 0; --tw-border-spacing-y: 0; --tw-translate-x: 0; --tw-translate-y: 0; --tw-rotate: 0; --tw-skew-x: 0; --tw-skew-y: 0; --tw-scale-x: 1; --tw-scale-y: 1; --tw-pan-x: ; --tw-pan-y: ; --tw-pinch-zoom: ; --tw-scroll-snap-strictness: proximity; --tw-gradient-from-position: ; --tw-gradient-via-position: ; --tw-gradient-to-position: ; --tw-ordinal: ; --tw-slashed-zero: ; --tw-numeric-figure: ; --tw-numeric-spacing: ; --tw-numeric-fraction: ; --tw-ring-inset: ; --tw-ring-offset-width: 0px; --tw-ring-offset-color: light-dark(#fff, #000000); --tw-ring-color: rgb(59 130 246 / 0.5); --tw-ring-offset-shadow: 0 0 #0000; --tw-ring-shadow: 0 0 #0000; --tw-shadow: 0 0 #0000; --tw-shadow-colored: 0 0 #0000; --tw-blur: ; --tw-brightness: ; --tw-contrast: ; --tw-grayscale: ; --tw-hue-rotate: ; --tw-invert: ; --tw-saturate: ; --tw-sepia: ; --tw-drop-shadow: ; --tw-backdrop-blur: ; --tw-backdrop-brightness: ; --tw-backdrop-contrast: ; --tw-backdrop-grayscale: ; --tw-backdrop-hue-rotate: ; --tw-backdrop-invert: ; --tw-backdrop-opacity: ; --tw-backdrop-saturate: ; --tw-backdrop-sepia: ; --tw-contain-size: ; --tw-contain-layout: ; --tw-contain-paint: ; --tw-contain-style: ; box-sizing: border-box; border-width: 0px; border-style: solid; border-color: rgb(229, 231, 235); color: rgb(0, 0, 0); font-family: Inter, sans-serif; font-size: medium; text-align: start;&quot;&gt;&lt;p style=&quot;--tw-border-spacing-x: 0; --tw-border-spacing-y: 0; --tw-translate-x: 0; --tw-translate-y: 0; --tw-rotate: 0; --tw-skew-x: 0; --tw-skew-y: 0; --tw-scale-x: 1; --tw-scale-y: 1; --tw-pan-x: ; --tw-pan-y: ; --tw-pinch-zoom: ; --tw-scroll-snap-strictness: proximity; --tw-gradient-from-position: ; --tw-gradient-via-position: ; --tw-gradient-to-position: ; --tw-ordinal: ; --tw-slashed-zero: ; --tw-numeric-figure: ; --tw-numeric-spacing: ; --tw-numeric-fraction: ; --tw-ring-inset: ; --tw-ring-offset-width: 0px; --tw-ring-offset-color: light-dark(#fff, #000000); --tw-ring-color: rgb(59 130 246 / 0.5); --tw-ring-offset-shadow: 0 0 #0000; --tw-ring-shadow: 0 0 #0000; --tw-shadow: 0 0 #0000; --tw-shadow-colored: 0 0 #0000; --tw-blur: ; --tw-brightness: ; --tw-contrast: ; --tw-grayscale: ; --tw-hue-rotate: ; --tw-invert: ; --tw-saturate: ; --tw-sepia: ; --tw-drop-shadow: ; --tw-backdrop-blur: ; --tw-backdrop-brightness: ; --tw-backdrop-contrast: ; --tw-backdrop-grayscale: ; --tw-backdrop-hue-rotate: ; --tw-backdrop-invert: ; --tw-backdrop-opacity: ; --tw-backdrop-saturate: ; --tw-backdrop-sepia: ; --tw-contain-size: ; --tw-contain-layout: ; --tw-contain-paint: ; --tw-contain-style: ; box-sizing: border-box; border-width: 0px; border-style: solid; border-color: rgb(229, 231, 235); margin: 0px; font-size: 0.95rem; color: rgb(95, 99, 104);&quot;&gt;&lt;span style=&quot;background-color: light-dark(#ffffff, var(--ge-dark-color, #121212));&quot;&gt;Apple Maps:&amp;nbsp;&lt;span style=&quot;font-family: SFMono-Regular, Consolas, &amp;quot;Liberation Mono&amp;quot;, Menlo, Courier, monospace; font-size: 0.9rem; white-space-collapse: preserve;&quot;&gt;https://maps.apple.com/place?coordinate=38.65395018353692,-9.072116261227945&lt;/span&gt;&lt;/span&gt;&lt;/p&gt;&lt;/div&gt;" style="text;strokeColor=none;align=center;fillColor=none;html=1;verticalAlign=middle;whiteSpace=wrap;rounded=0;" vertex="1" parent="1">
                    <mxGeometry x="190" y="90" width="650" height="640" as="geometry"/>
                </mxCell>
            </root>
        </mxGraphModel>
    </diagram>
</mxfile>